STARTFONT 2.1
COMMENT
COMMENT Converted from OpenType font "NimbusSans-Regular.otf" by "otf2bdf 3.0".
COMMENT
FONT -FreeType-Nimbus Sans-Medium-R-Normal--42-300-100-100-P-218-ISO10646-1
SIZE 30 100 100
FONTBOUNDINGBOX 52 57 -9 -13
STARTPROPERTIES 19
FOUNDRY "FreeType"
FAMILY_NAME "Nimbus Sans"
WEIGHT_NAME "Medium"
SLANT "R"
SETWIDTH_NAME "Normal"
ADD_STYLE_NAME ""
PIXEL_SIZE 42
POINT_SIZE 300
RESOLUTION_X 100
RESOLUTION_Y 100
SPACING "P"
AVERAGE_WIDTH 218
CHARSET_REGISTRY "ISO10646"
CHARSET_ENCODING "1"
FONT_ASCENT 30
FONT_DESCENT 11
COPYRIGHT "(URW)++,Copyright 2014 by (URW)++ Design & Development"
_OTF_FONTFILE "NimbusSans-Regular.otf"
_OTF_PSNAME "NimbusSans-Regular"
ENDPROPERTIES
CHARS 854
STARTCHAR 0020
ENCODING 32
SWIDTH 288 0
DWIDTH 12 0
BBX 0 0 0 0
BITMAP
ENDCHAR
STARTCHAR 0021
ENCODING 33
SWIDTH 288 0
DWIDTH 12 0
BBX 4 30 5 0
BITMAP
F0
F0
F0
F0
F0
F0
F0
F0
F0
F0
F0
F0
F0
F0
F0
E0
E0
60
60
60
60
60
60
00
00
00
F0
F0
F0
F0
ENDCHAR
STARTCHAR 0022
ENCODING 34
SWIDTH 360 0
DWIDTH 15 0
BBX 11 11 2 19
BITMAP
F1E0
F1E0
F1E0
F1E0
F1E0
F1E0
F1C0
71C0
61C0
60C0
60C0
ENDCHAR
STARTCHAR 0023
ENCODING 35
SWIDTH 552 0
DWIDTH 23 0
BBX 22 30 1 -1
BITMAP
00E0E0
01E0E0
01C0E0
01C1E0
01C1C0
01C1C0
03C1C0
0381C0
7FFFFC
7FFFFC
7FFFFC
038380
078380
070380
070780
070700
070700
0F0700
FFFFF0
FFFFF0
FFFFF0
0E0E00
0E0E00
1E0E00
1C0E00
1C1E00
1C1C00
1C1C00
3C1C00
381C00
ENDCHAR
STARTCHAR 0024
ENCODING 36
SWIDTH 552 0
DWIDTH 23 0
BBX 20 37 2 -5
BITMAP
00E000
00E000
01F800
0FFE00
1FFF80
3EE7C0
78E3C0
70E1E0
F0E1E0
F0E0E0
F0E000
F0E000
F0E000
78E000
7EE000
3FE000
1FFC00
07FF00
00FFC0
00EFE0
00E3E0
00E0F0
00E0F0
E0E0F0
E0E0F0
E0E0F0
E0E0F0
F0E0E0
78E1E0
7CE7C0
3FFF80
1FFF00
03FC00
00E000
00E000
00E000
00E000
ENDCHAR
STARTCHAR 0025
ENCODING 37
SWIDTH 888 0
DWIDTH 37 0
BBX 35 30 1 -1
BITMAP
000000E000
07C000C000
1FF001C000
3FF8038000
7878038000
701C070000
E01C070000
E01C0E0000
E00C0C0000
E01C1C0000
701C180000
7878380000
3FF8300000
1FF0700000
07C0E00000
0000E00000
0001C07C00
0001C1FF00
000383FF80
000303C3C0
00070701C0
00060700E0
000E0600E0
001C0700E0
001C0700E0
00380701C0
003803C3C0
007003FF80
006001FF00
00E0007C00
ENDCHAR
STARTCHAR 0026
ENCODING 38
SWIDTH 672 0
DWIDTH 28 0
BBX 24 31 2 -1
BITMAP
00F800
03FE00
07FF00
0F0780
0F0380
0E0380
0E0380
0E0380
0E0380
0F0780
078F00
07FE00
03FC00
01F800
07F000
0FF800
1F7C1C
3E3E3C
781E3C
780F38
F00FB8
F007F8
F003F0
F001F0
F001F0
7803F8
7C07FC
7F1FBE
3FFF1E
1FFC0F
07F000
ENDCHAR
STARTCHAR 0027
ENCODING 39
SWIDTH 192 0
DWIDTH 8 0
BBX 4 11 2 19
BITMAP
F0
F0
F0
F0
F0
F0
F0
E0
60
60
60
ENDCHAR
STARTCHAR 0028
ENCODING 40
SWIDTH 336 0
DWIDTH 14 0
BBX 9 39 3 -9
BITMAP
0180
0300
0700
0600
0E00
0C00
1C00
1C00
3800
3800
3800
7000
7000
7000
7000
F000
F000
F000
E000
E000
E000
F000
F000
F000
F000
7000
7000
7000
7800
3800
3800
1C00
1C00
1C00
0E00
0E00
0700
0300
0380
ENDCHAR
STARTCHAR 0029
ENCODING 41
SWIDTH 336 0
DWIDTH 14 0
BBX 9 39 2 -9
BITMAP
C000
E000
7000
7000
3800
3800
1C00
1C00
1E00
0E00
0E00
0F00
0700
0700
0700
0700
0780
0780
0780
0780
0780
0780
0780
0700
0700
0700
0700
0F00
0E00
0E00
0E00
1C00
1C00
1800
3800
3000
7000
6000
C000
ENDCHAR
STARTCHAR 002A
ENCODING 42
SWIDTH 384 0
DWIDTH 16 0
BBX 12 12 2 18
BITMAP
0600
0600
0600
C630
F6F0
FFF0
1F80
0F00
1F80
39C0
70E0
1080
ENDCHAR
STARTCHAR 002B
ENCODING 43
SWIDTH 576 0
DWIDTH 24 0
BBX 20 21 2 -1
BITMAP
007000
007000
007000
007000
007000
007000
007000
007000
007000
FFFFF0
FFFFF0
FFFFF0
007000
007000
007000
007000
007000
007000
007000
007000
007000
ENDCHAR
STARTCHAR 002C
ENCODING 44
SWIDTH 288 0
DWIDTH 12 0
BBX 4 10 4 -6
BITMAP
F0
F0
F0
F0
30
30
30
30
E0
C0
ENDCHAR
STARTCHAR 002D
ENCODING 45
SWIDTH 336 0
DWIDTH 14 0
BBX 10 3 2 10
BITMAP
FFC0
FFC0
FFC0
ENDCHAR
STARTCHAR 002E
ENCODING 46
SWIDTH 288 0
DWIDTH 12 0
BBX 4 4 4 0
BITMAP
F0
F0
F0
F0
ENDCHAR
STARTCHAR 002F
ENCODING 47
SWIDTH 288 0
DWIDTH 12 0
BBX 12 31 0 -1
BITMAP
0070
0060
0060
00E0
00C0
00C0
01C0
0180
0180
0180
0300
0300
0300
0700
0600
0600
0E00
0C00
0C00
1C00
1800
1800
3800
3000
3000
7000
6000
6000
E000
C000
C000
ENDCHAR
STARTCHAR 0030
ENCODING 48
SWIDTH 552 0
DWIDTH 23 0
BBX 19 32 2 -1
BITMAP
01F800
07FC00
1FFF00
1F1F00
3C0780
7C0780
7803C0
7803C0
7001C0
F001E0
F001E0
F001E0
F001E0
F001E0
F001E0
F001E0
F001E0
F001E0
F001E0
F001E0
F001E0
F001E0
F001E0
7001C0
7803C0
7803C0
380380
3C0780
1F0F00
1FFE00
0FFC00
03F000
ENDCHAR
STARTCHAR 0031
ENCODING 49
SWIDTH 552 0
DWIDTH 23 0
BBX 10 30 4 0
BITMAP
00C0
00C0
01C0
01C0
03C0
1FC0
FFC0
FFC0
FFC0
01C0
01C0
01C0
01C0
01C0
01C0
01C0
01C0
01C0
01C0
01C0
01C0
01C0
01C0
01C0
01C0
01C0
01C0
01C0
01C0
01C0
ENDCHAR
STARTCHAR 0032
ENCODING 50
SWIDTH 552 0
DWIDTH 23 0
BBX 20 31 1 0
BITMAP
01FC00
07FF00
0FFFC0
1F8FE0
3E03E0
3C01F0
3C00F0
7800F0
780070
780070
7800F0
0000F0
0000F0
0001E0
0003E0
000FC0
001F80
007F00
01FC00
03F000
07E000
0F8000
1F0000
3C0000
3C0000
780000
780000
7FFFF0
7FFFF0
7FFFF0
FFFFF0
ENDCHAR
STARTCHAR 0033
ENCODING 51
SWIDTH 552 0
DWIDTH 23 0
BBX 20 32 1 -1
BITMAP
01FC00
07FF00
1FFF80
1F0FC0
3C03C0
3C01E0
7801E0
7801E0
7801E0
7801E0
0001E0
0001E0
0003C0
007F80
00FF00
00FF00
00FFC0
0003E0
0001E0
0000F0
0000F0
0000F0
F000F0
F000F0
7000F0
7800F0
7801E0
3C03E0
3F8FC0
1FFF80
0FFF00
03FC00
ENDCHAR
STARTCHAR 0034
ENCODING 52
SWIDTH 552 0
DWIDTH 23 0
BBX 21 30 1 0
BITMAP
000700
000700
000F00
001F00
001F00
003F00
007F00
00F700
00E700
01C700
03C700
038700
070700
0F0700
1E0700
1C0700
3C0700
780700
700700
F00700
FFFFF8
FFFFF8
FFFFF8
000700
000700
000700
000700
000700
000700
000700
ENDCHAR
STARTCHAR 0035
ENCODING 53
SWIDTH 552 0
DWIDTH 23 0
BBX 19 31 2 -1
BITMAP
1FFFC0
3FFFC0
3FFFC0
3FFFC0
380000
380000
380000
380000
780000
780000
79F800
77FE00
7FFF80
7E1F80
7807C0
F003E0
0001E0
0001E0
0001E0
0000E0
0000E0
0000E0
0001E0
E001E0
F001E0
F003C0
7807C0
7F1F80
3FFF00
1FFE00
03F800
ENDCHAR
STARTCHAR 0036
ENCODING 54
SWIDTH 552 0
DWIDTH 23 0
BBX 19 32 2 -1
BITMAP
01F800
07FE00
0FFF00
1F9F80
3E07C0
3C03C0
7801C0
7801E0
700000
F00000
F00000
F00000
F1FC00
F7FF00
FFFF80
FF9FC0
FC07C0
F803E0
F001E0
F001E0
F000E0
F000E0
F000E0
F000E0
7001E0
7801E0
7803C0
3C07C0
3F1F80
1FFF00
0FFE00
03F800
ENDCHAR
STARTCHAR 0037
ENCODING 55
SWIDTH 552 0
DWIDTH 23 0
BBX 20 30 2 0
BITMAP
FFFFF0
FFFFF0
FFFFF0
FFFFE0
0001E0
0001C0
000380
000780
000700
000E00
001E00
001C00
003C00
003800
007800
007000
00F000
00E000
01E000
01C000
01C000
03C000
038000
038000
078000
078000
070000
0F0000
0F0000
0F0000
ENDCHAR
STARTCHAR 0038
ENCODING 56
SWIDTH 552 0
DWIDTH 23 0
BBX 19 32 2 -1
BITMAP
03F800
0FFE00
1FFF00
3F1F80
7C07C0
7803C0
7803C0
7001C0
7001C0
7803C0
7803C0
7C07C0
3E0F80
1FFF00
0FFC00
1FFF00
3E0F80
7803C0
F003E0
F001E0
F001E0
E000E0
E000E0
E000E0
F001E0
F001E0
F803E0
7C07C0
3F1F80
3FFF00
0FFE00
03F800
ENDCHAR
STARTCHAR 0039
ENCODING 57
SWIDTH 552 0
DWIDTH 23 0
BBX 19 32 2 -1
BITMAP
03F800
0FFE00
1FFF00
3F1F80
7C0780
7803C0
F003C0
F001C0
E001E0
E001E0
E001E0
E001E0
F001E0
F001E0
F803E0
7C07E0
7F3FE0
3FFFE0
0FFDE0
07F1E0
0001E0
0001E0
0001E0
0001C0
F003C0
7003C0
780780
7C0F80
3E1F00
1FFE00
0FFC00
03F000
ENDCHAR
STARTCHAR 003A
ENCODING 58
SWIDTH 288 0
DWIDTH 12 0
BBX 4 22 5 0
BITMAP
F0
F0
F0
F0
00
00
00
00
00
00
00
00
00
00
00
00
00
00
F0
F0
F0
F0
ENDCHAR
STARTCHAR 003B
ENCODING 59
SWIDTH 288 0
DWIDTH 12 0
BBX 4 28 5 -6
BITMAP
F0
F0
F0
F0
00
00
00
00
00
00
00
00
00
00
00
00
00
00
F0
F0
F0
F0
30
30
30
30
E0
C0
ENDCHAR
STARTCHAR 003C
ENCODING 60
SWIDTH 576 0
DWIDTH 24 0
BBX 20 20 2 -1
BITMAP
000010
0000F0
0003F0
000FE0
007F80
01FE00
07F000
3FC000
FE0000
F80000
F80000
FF0000
1FC000
07F800
01FE00
003F80
000FF0
0003F0
000070
000010
ENDCHAR
STARTCHAR 003D
ENCODING 61
SWIDTH 576 0
DWIDTH 24 0
BBX 20 10 2 5
BITMAP
FFFFF0
FFFFF0
FFFFF0
000000
000000
000000
000000
FFFFF0
FFFFF0
FFFFF0
ENDCHAR
STARTCHAR 003E
ENCODING 62
SWIDTH 576 0
DWIDTH 24 0
BBX 20 20 2 -1
BITMAP
C00000
F00000
FC0000
7F8000
1FE000
03F800
00FF00
003FC0
0007F0
0001F0
0001F0
0007F0
003FC0
00FE00
03F800
1FE000
7F0000
FC0000
F00000
800000
ENDCHAR
STARTCHAR 003F
ENCODING 63
SWIDTH 552 0
DWIDTH 23 0
BBX 18 31 3 0
BITMAP
03F800
0FFE00
3FFF00
3F1F80
7807C0
7803C0
7003C0
F003C0
F003C0
F003C0
0003C0
000780
000F80
001F00
003E00
007C00
00F800
00F000
01E000
01E000
01E000
01E000
01E000
000000
000000
000000
000000
01E000
01E000
01E000
01E000
ENDCHAR
STARTCHAR 0040
ENCODING 64
SWIDTH 1008 0
DWIDTH 42 0
BBX 39 37 1 -6
BITMAP
00007F8000
0007FFF800
001FFFFE00
003F81FF00
00FC001F80
01F00007C0
03E00003E0
07800001F0
0F000000F8
0F003E0078
1E00FF3C3C
3C03FFBC3C
3C07C1F83C
380780F81E
780F00F81E
781E00F01E
701E00F01E
701C00F01E
703C00E01C
F03C00E01C
F03C01E03C
F03C01E038
703C01C078
783C03C0F0
781E07C1F0
781F0FE3E0
3C0FFDFFC0
3C07F9FF00
1E01C07C00
1F00000000
0F80000000
07E0000000
03F8000000
00FF01F000
007FFFF000
001FFFF000
0001FF0000
ENDCHAR
STARTCHAR 0041
ENCODING 65
SWIDTH 672 0
DWIDTH 28 0
BBX 26 30 1 0
BITMAP
003F0000
003F0000
003F0000
007F8000
007F8000
0077C000
00F3C000
00F3C000
01E3E000
01E1E000
01E1E000
03C0F000
03C0F000
03C0F000
07807800
07807800
07007800
0F003C00
0FFFFC00
1FFFFC00
1FFFFE00
1E001E00
3C001F00
3C000F00
3C000F00
78000F80
78000780
78000780
F00007C0
F00003C0
ENDCHAR
STARTCHAR 0042
ENCODING 66
SWIDTH 672 0
DWIDTH 28 0
BBX 23 30 3 0
BITMAP
FFFF00
FFFFC0
FFFFF0
F00FF0
F000F8
F00078
F0007C
F0003C
F0003C
F00038
F00078
F00078
F001F0
FFFFE0
FFFFC0
FFFFF0
F003F8
F0007C
F0003C
F0001E
F0001E
F0001E
F0001E
F0001E
F0003C
F0007C
F003F8
FFFFF8
FFFFE0
FFFF80
ENDCHAR
STARTCHAR 0043
ENCODING 67
SWIDTH 720 0
DWIDTH 30 0
BBX 26 32 2 -1
BITMAP
003FC000
01FFF000
03FFFC00
07FBFE00
0F803F00
1F000F00
3E000F80
3C000780
78000780
780003C0
78000000
70000000
F0000000
F0000000
F0000000
F0000000
F0000000
F0000000
F0000000
F0000000
F00003C0
780003C0
780003C0
7C0007C0
3C000780
3E000F80
1F000F00
0F803F00
0FF9FE00
03FFFC00
01FFF000
003FC000
ENDCHAR
STARTCHAR 0044
ENCODING 68
SWIDTH 720 0
DWIDTH 30 0
BBX 24 30 4 0
BITMAP
FFFE00
FFFFC0
FFFFE0
F00FF0
F001F8
F0007C
F0003C
F0003E
F0001E
F0001E
F0001E
F0000F
F0000F
F0000F
F0000F
F0000F
F0000F
F0000F
F0000F
F0001E
F0001E
F0001E
F0003C
F0003C
F0007C
F000F8
F00FF0
FFFFE0
FFFF80
FFFE00
ENDCHAR
STARTCHAR 0045
ENCODING 69
SWIDTH 672 0
DWIDTH 28 0
BBX 22 30 4 0
BITMAP
FFFFF8
FFFFF8
FFFFF8
F00000
F00000
F00000
F00000
F00000
F00000
F00000
F00000
F00000
F00000
FFFFF0
FFFFF0
FFFFF0
F00000
F00000
F00000
F00000
F00000
F00000
F00000
F00000
F00000
F00000
F00000
FFFFFC
FFFFFC
FFFFFC
ENDCHAR
STARTCHAR 0046
ENCODING 70
SWIDTH 600 0
DWIDTH 25 0
BBX 20 30 4 0
BITMAP
FFFFF0
FFFFF0
FFFFF0
F00000
F00000
F00000
F00000
F00000
F00000
F00000
F00000
F00000
F00000
FFFFC0
FFFFC0
FFFFC0
F00000
F00000
F00000
F00000
F00000
F00000
F00000
F00000
F00000
F00000
F00000
F00000
F00000
F00000
ENDCHAR
STARTCHAR 0047
ENCODING 71
SWIDTH 768 0
DWIDTH 32 0
BBX 28 32 2 -1
BITMAP
003FE000
00FFF800
03FFFE00
07FDFF00
0FC01F80
1F0007C0
3E0003C0
3C0003E0
7C0001E0
780001E0
78000000
F0000000
F0000000
F0000000
F0000000
F001FFF0
F001FFF0
F001FFF0
F00000F0
F00000F0
F00000F0
780000F0
780000F0
7C0001F0
3C0001F0
3E0003F0
1F0007F0
0FC01FF0
07FCFEF0
03FFFC70
01FFF070
003F8000
ENDCHAR
STARTCHAR 0048
ENCODING 72
SWIDTH 720 0
DWIDTH 30 0
BBX 24 30 3 0
BITMAP
F0000F
F0000F
F0000F
F0000F
F0000F
F0000F
F0000F
F0000F
F0000F
F0000F
F0000F
F0000F
F0000F
FFFFFF
FFFFFF
FFFFFF
F0000F
F0000F
F0000F
F0000F
F0000F
F0000F
F0000F
F0000F
F0000F
F0000F
F0000F
F0000F
F0000F
F0000F
ENDCHAR
STARTCHAR 0049
ENCODING 73
SWIDTH 288 0
DWIDTH 12 0
BBX 4 30 4 0
BITMAP
F0
F0
F0
F0
F0
F0
F0
F0
F0
F0
F0
F0
F0
F0
F0
F0
F0
F0
F0
F0
F0
F0
F0
F0
F0
F0
F0
F0
F0
F0
ENDCHAR
STARTCHAR 004A
ENCODING 74
SWIDTH 504 0
DWIDTH 21 0
BBX 17 31 1 -1
BITMAP
000780
000780
000780
000780
000780
000780
000780
000780
000780
000780
000780
000780
000780
000780
000780
000780
000780
000780
000780
000780
F00780
F00780
F00780
F00780
F00780
F00F00
F81F00
7E7E00
3FFE00
1FF800
07E000
ENDCHAR
STARTCHAR 004B
ENCODING 75
SWIDTH 672 0
DWIDTH 28 0
BBX 24 30 3 0
BITMAP
F0001F
F0003E
F0007C
F000F8
F001F0
F003E0
F007C0
F00F80
F01F00
F03E00
F07C00
F0F800
F1F000
F3F800
F7FC00
FF3C00
FE3E00
FC1F00
F80F00
F00780
F007C0
F003C0
F001E0
F001F0
F000F8
F00078
F0007C
F0003E
F0001E
F0001F
ENDCHAR
STARTCHAR 004C
ENCODING 76
SWIDTH 552 0
DWIDTH 23 0
BBX 19 30 3 0
BITMAP
F00000
F00000
F00000
F00000
F00000
F00000
F00000
F00000
F00000
F00000
F00000
F00000
F00000
F00000
F00000
F00000
F00000
F00000
F00000
F00000
F00000
F00000
F00000
F00000
F00000
F00000
F00000
FFFFE0
FFFFE0
FFFFE0
ENDCHAR
STARTCHAR 004D
ENCODING 77
SWIDTH 840 0
DWIDTH 35 0
BBX 29 30 3 0
BITMAP
FC0001F8
FC0001F8
FC0003F8
FE0003F8
FE0003F8
FE0007F8
FF000778
F7000778
F7000F78
F7800E78
F3800E78
F3801E78
F3C01C78
F1C01C78
F1E03C78
F1E03878
F0E03878
F0F07878
F0F07078
F0707078
F078F078
F078E078
F038E078
F03DE078
F01DC078
F01DC078
F01FC078
F00F8078
F00F8078
F00F8078
ENDCHAR
STARTCHAR 004E
ENCODING 78
SWIDTH 720 0
DWIDTH 30 0
BBX 24 30 3 0
BITMAP
F8000F
F8000F
FC000F
FE000F
FE000F
FF000F
FF800F
F7800F
F3C00F
F3E00F
F1E00F
F0F00F
F0F00F
F0780F
F03C0F
F03C0F
F01E0F
F01F0F
F00F0F
F0078F
F007CF
F003CF
F001EF
F001FF
F000FF
F0007F
F0007F
F0003F
F0001F
F0001F
ENDCHAR
STARTCHAR 004F
ENCODING 79
SWIDTH 768 0
DWIDTH 32 0
BBX 29 32 2 -1
BITMAP
003FC000
00FFF800
03FFFE00
07F9FF00
0F801F80
1F0007C0
3E0003C0
3C0001E0
780001F0
780000F0
F00000F0
F00000F0
F0000078
F0000078
F0000078
E0000078
E0000078
F0000078
F0000078
F0000078
F0000070
F00000F0
780000F0
780001E0
7C0001E0
3E0003C0
1F0007C0
0FC01F80
07F9FF00
03FFFE00
01FFF800
003FC000
ENDCHAR
STARTCHAR 0050
ENCODING 80
SWIDTH 672 0
DWIDTH 28 0
BBX 22 30 4 0
BITMAP
FFFF00
FFFFC0
FFFFE0
F00FF0
F000F8
F00078
F0007C
F0003C
F0003C
F0003C
F0007C
F00078
F000F8
F001F8
FFFFF0
FFFFE0
FFFF80
F00000
F00000
F00000
F00000
F00000
F00000
F00000
F00000
F00000
F00000
F00000
F00000
F00000
ENDCHAR
STARTCHAR 0051
ENCODING 81
SWIDTH 768 0
DWIDTH 32 0
BBX 29 33 2 -3
BITMAP
003FC000
00FFF800
03FFFE00
07F9FF00
0F801F80
1F0007C0
3E0003E0
3C0001E0
780001F0
780000F0
F00000F0
F00000F0
F0000078
F0000078
F0000078
E0000078
E0000078
F0000078
F0000078
F0000078
F0000070
F00000F0
780000F0
780061E0
7C00F9E0
3E007FC0
1F003FC0
0FC01F80
07F9FF80
03FFFFE0
01FFF9F0
003FC0F0
00000060
ENDCHAR
STARTCHAR 0052
ENCODING 82
SWIDTH 720 0
DWIDTH 30 0
BBX 24 30 4 0
BITMAP
FFFFC0
FFFFF0
FFFFF8
F003FC
F0007E
F0003E
F0001E
F0001E
F0001E
F0001E
F0001E
F0003C
F0003C
F003F8
FFFFE0
FFFFE0
FFFFF8
F000FC
F0003C
F0003C
F0001C
F0001C
F0001C
F0001E
F0001E
F0001E
F0001E
F0001E
F0001F
F0001F
ENDCHAR
STARTCHAR 0053
ENCODING 83
SWIDTH 672 0
DWIDTH 28 0
BBX 24 32 2 -1
BITMAP
00FF00
07FFC0
0FFFF0
1FC7F8
3E007C
3C003C
78003E
78001E
78001E
780000
780000
7C0000
3F0000
3FF000
1FFF00
07FFE0
00FFF8
000FFC
0000FE
00003E
00001F
F0000F
F0000F
F0000F
F0000F
78001E
7C001E
3E003C
3FE7FC
0FFFF8
07FFE0
00FF00
ENDCHAR
STARTCHAR 0054
ENCODING 84
SWIDTH 600 0
DWIDTH 25 0
BBX 24 30 1 0
BITMAP
FFFFFF
FFFFFF
FFFFFF
003C00
003C00
003C00
003C00
003C00
003C00
003C00
003C00
003C00
003C00
003C00
003C00
003C00
003C00
003C00
003C00
003C00
003C00
003C00
003C00
003C00
003C00
003C00
003C00
003C00
003C00
003C00
ENDCHAR
STARTCHAR 0055
ENCODING 85
SWIDTH 720 0
DWIDTH 30 0
BBX 23 31 4 -1
BITMAP
E0001E
E0001E
E0001E
E0001E
E0001E
E0001E
E0001E
E0001E
E0001E
E0001E
E0001E
E0001E
E0001E
E0001E
E0001E
E0001E
E0001E
E0001E
E0001E
E0001E
E0001E
E0001E
F0001E
F0001E
F0003C
F8007C
7C00F8
3FCFF8
1FFFE0
0FFFC0
01FE00
ENDCHAR
STARTCHAR 0056
ENCODING 86
SWIDTH 672 0
DWIDTH 28 0
BBX 26 30 1 0
BITMAP
F80003C0
78000780
78000780
3C000780
3C000F00
3C000F00
1E000F00
1E001E00
1E001E00
0F001E00
0F003C00
0F003C00
07803800
07807800
03C07800
03C07000
03C0F000
01E0F000
01E0E000
01E1E000
00F1E000
00F1C000
00F3C000
007BC000
007B8000
003F8000
003F8000
003F0000
001F0000
001F0000
ENDCHAR
STARTCHAR 0057
ENCODING 87
SWIDTH 936 0
DWIDTH 39 0
BBX 38 30 1 0
BITMAP
F00078007C
F800F80078
7800FC0078
7800FC0078
7801FC00F8
7C01FC00F0
3C01DE00F0
3C01DE00F0
3C03CE01F0
3C03CF01E0
1E038F01E0
1E038F01E0
1E078701C0
1E078783C0
0F070783C0
0F0F0383C0
0F0F03C380
0F0E03C780
078E03C780
079E01C780
079E01E700
079C01EF00
03FC00EF00
03FC00FF00
03F800FE00
01F800FE00
01F8007E00
01F8007E00
01F0007C00
00F0003C00
ENDCHAR
STARTCHAR 0058
ENCODING 88
SWIDTH 672 0
DWIDTH 28 0
BBX 26 30 1 0
BITMAP
7C000780
3C000F00
3E001F00
1F001E00
0F003C00
0F807C00
07C07800
03C0F000
03E1F000
01F1E000
00F3C000
00FF8000
007F8000
003F0000
001E0000
003F0000
007F8000
007F8000
00F3C000
01F3E000
01E1E000
03C0F000
07C0F800
0F807C00
0F003C00
1F003E00
3E001F00
3C000F00
7C000F80
F80007C0
ENDCHAR
STARTCHAR 0059
ENCODING 89
SWIDTH 672 0
DWIDTH 28 0
BBX 26 30 1 0
BITMAP
F80003C0
F80007C0
7C000F80
3C000F00
3E001F00
1F001E00
0F003C00
0F807C00
07C07800
03C0F800
03E0F000
01E1E000
00F3E000
00FBC000
007F8000
007F8000
003F0000
001F0000
001E0000
001E0000
001E0000
001E0000
001E0000
001E0000
001E0000
001E0000
001E0000
001E0000
001E0000
001E0000
ENDCHAR
STARTCHAR 005A
ENCODING 90
SWIDTH 600 0
DWIDTH 25 0
BBX 23 30 1 0
BITMAP
7FFFFE
7FFFFE
7FFFFE
00003E
00003C
00007C
0000F8
0001F0
0003E0
0003C0
0007C0
000F80
001F00
003E00
003E00
007C00
00F800
01F000
01E000
03E000
07C000
0F8000
1F0000
1E0000
3E0000
7C0000
F80000
FFFFFE
FFFFFE
FFFFFE
ENDCHAR
STARTCHAR 005B
ENCODING 91
SWIDTH 288 0
DWIDTH 12 0
BBX 7 39 3 -9
BITMAP
FE
FE
FE
E0
E0
E0
E0
E0
E0
E0
E0
E0
E0
E0
E0
E0
E0
E0
E0
E0
E0
E0
E0
E0
E0
E0
E0
E0
E0
E0
E0
E0
E0
E0
E0
E0
FE
FE
FE
ENDCHAR
STARTCHAR 005C
ENCODING 92
SWIDTH 288 0
DWIDTH 12 0
BBX 12 31 0 -1
BITMAP
C000
C000
E000
6000
6000
7000
3000
3000
3800
1800
1800
1C00
0C00
0C00
0E00
0600
0600
0700
0300
0300
0380
0380
0180
0180
01C0
00C0
00C0
00E0
0060
0060
0070
ENDCHAR
STARTCHAR 005D
ENCODING 93
SWIDTH 288 0
DWIDTH 12 0
BBX 8 39 1 -9
BITMAP
FF
FF
FF
0F
0F
0F
0F
0F
0F
0F
0F
0F
0F
0F
0F
0F
0F
0F
0F
0F
0F
0F
0F
0F
0F
0F
0F
0F
0F
0F
0F
0F
0F
0F
0F
0F
FF
FF
FF
ENDCHAR
STARTCHAR 005E
ENCODING 94
SWIDTH 480 0
DWIDTH 20 0
BBX 15 16 2 14
BITMAP
0380
03C0
07C0
07C0
06E0
0EE0
0E70
1C70
1C38
1838
3838
381C
701C
700E
600E
E00E
ENDCHAR
STARTCHAR 005F
ENCODING 95
SWIDTH 552 0
DWIDTH 23 0
BBX 25 2 -1 -7
BITMAP
FFFFFF80
FFFFFF80
ENDCHAR
STARTCHAR 0060
ENCODING 96
SWIDTH 336 0
DWIDTH 14 0
BBX 8 6 1 25
BITMAP
F8
7C
3C
1E
0F
07
ENDCHAR
STARTCHAR 0061
ENCODING 97
SWIDTH 552 0
DWIDTH 23 0
BBX 20 24 2 -1
BITMAP
03F800
1FFF00
3FFF80
3E0F80
7807C0
7803C0
7003C0
0003C0
0003C0
0007C0
01FFC0
1FFFC0
3FFBC0
7E03C0
F803C0
F003C0
E003C0
E003C0
F007C0
F00FC0
F83FC0
7FFFF0
3FF1F0
0FC0F0
ENDCHAR
STARTCHAR 0062
ENCODING 98
SWIDTH 552 0
DWIDTH 23 0
BBX 20 31 2 -1
BITMAP
F00000
F00000
F00000
F00000
F00000
F00000
F00000
F1FC00
F3FF00
F7FF80
FF1FC0
FC07C0
F803E0
F801E0
F001E0
F000F0
F000F0
F000F0
F000F0
F000F0
F000F0
F000F0
F000E0
F001E0
F801E0
FC03E0
FC07C0
EF1F80
EFFF00
E7FE00
01F800
ENDCHAR
STARTCHAR 0063
ENCODING 99
SWIDTH 504 0
DWIDTH 21 0
BBX 19 24 1 -1
BITMAP
01F800
07FE00
0FFF80
1F0F80
3C07C0
3C03C0
7801C0
7801E0
700000
F00000
F00000
F00000
F00000
F00000
F00000
7001E0
7801E0
7801E0
7C03C0
3C03C0
1F0F80
1FFF00
07FE00
01F800
ENDCHAR
STARTCHAR 0064
ENCODING 100
SWIDTH 552 0
DWIDTH 23 0
BBX 20 31 1 -1
BITMAP
0000F0
0000F0
0000F0
0000F0
0000F0
0000F0
0000F0
01F8F0
07FCF0
1FFFF0
3F0FF0
3E07F0
7C03F0
7801F0
7001F0
F000F0
F000F0
F000F0
F000F0
F000F0
F000F0
F000F0
F000F0
7801F0
7801F0
7C03F0
3E03F0
3F8F70
1FFE70
0FFC70
03F800
ENDCHAR
STARTCHAR 0065
ENCODING 101
SWIDTH 552 0
DWIDTH 23 0
BBX 19 24 2 -1
BITMAP
01F800
0FFE00
1FFF00
3F1F80
3C07C0
7803C0
7001E0
F001E0
F001E0
E000E0
FFFFE0
FFFFE0
FFFFE0
E00000
E00000
F00000
F001E0
F001E0
7803C0
7C07C0
3F0F80
1FFF00
0FFE00
03F800
ENDCHAR
STARTCHAR 0066
ENCODING 102
SWIDTH 288 0
DWIDTH 12 0
BBX 10 31 1 0
BITMAP
07C0
0FC0
1FC0
1E00
1C00
1C00
1C00
1C00
1C00
FFC0
FFC0
FFC0
1C00
1C00
1C00
1C00
1C00
1C00
1C00
1C00
1C00
1C00
1C00
1C00
1C00
1C00
1C00
1C00
1C00
1C00
1C00
ENDCHAR
STARTCHAR 0067
ENCODING 103
SWIDTH 552 0
DWIDTH 23 0
BBX 19 32 1 -9
BITMAP
01F000
07FCE0
0FFEE0
1F1EE0
3C07E0
3C03E0
7801E0
7801E0
7001E0
7001E0
7001E0
F001E0
F001E0
F001E0
7001E0
7001E0
7801E0
7801E0
3C03E0
3C07E0
1F1FE0
0FFDE0
07F9E0
01F1E0
0001E0
0001E0
7801C0
3C03C0
3E0780
1FFF00
0FFE00
03F800
ENDCHAR
STARTCHAR 0068
ENCODING 104
SWIDTH 552 0
DWIDTH 23 0
BBX 17 30 3 0
BITMAP
E00000
E00000
E00000
E00000
E00000
E00000
E00000
E1FC00
E3FE00
EFFF00
EE1F80
FC0780
F80780
F00380
F00380
F00380
E00380
E00380
E00380
E00380
E00380
E00380
E00380
E00380
E00380
E00380
E00380
E00380
E00380
E00380
ENDCHAR
STARTCHAR 0069
ENCODING 105
SWIDTH 216 0
DWIDTH 9 0
BBX 3 30 3 0
BITMAP
E0
E0
E0
E0
00
00
00
00
E0
E0
E0
E0
E0
E0
E0
E0
E0
E0
E0
E0
E0
E0
E0
E0
E0
E0
E0
E0
E0
E0
ENDCHAR
STARTCHAR 006A
ENCODING 106
SWIDTH 216 0
DWIDTH 9 0
BBX 7 39 -1 -9
BITMAP
0E
0E
0E
0E
00
00
00
00
0E
0E
0E
0E
0E
0E
0E
0E
0E
0E
0E
0E
0E
0E
0E
0E
0E
0E
0E
0E
0E
0E
0E
0E
0E
0E
0E
1E
FE
FC
F8
ENDCHAR
STARTCHAR 006B
ENCODING 107
SWIDTH 504 0
DWIDTH 21 0
BBX 19 30 2 0
BITMAP
F00000
F00000
F00000
F00000
F00000
F00000
F00000
F00000
F00780
F00F00
F01E00
F03C00
F07800
F0F000
F1E000
F3C000
F7E000
FFE000
FEF000
FCF000
F87800
F07C00
F03C00
F01E00
F01F00
F00F00
F00F80
F00780
F003C0
F003E0
ENDCHAR
STARTCHAR 006C
ENCODING 108
SWIDTH 216 0
DWIDTH 9 0
BBX 3 30 3 0
BITMAP
E0
E0
E0
E0
E0
E0
E0
E0
E0
E0
E0
E0
E0
E0
E0
E0
E0
E0
E0
E0
E0
E0
E0
E0
E0
E0
E0
E0
E0
E0
ENDCHAR
STARTCHAR 006D
ENCODING 109
SWIDTH 840 0
DWIDTH 35 0
BBX 29 23 3 0
BITMAP
00F81F80
E3FC3FE0
EFFEFFF0
EE1FE1F0
F80FC0F8
F00F8078
F0078078
F0070078
E0070078
E0070078
E0070078
E0070078
E0070078
E0070078
E0070078
E0070078
E0070078
E0070078
E0070078
E0070078
E0070078
E0070078
E0070078
ENDCHAR
STARTCHAR 006E
ENCODING 110
SWIDTH 552 0
DWIDTH 23 0
BBX 17 23 3 0
BITMAP
00FC00
E3FE00
E7FF00
EE1F80
FC0780
F80780
F00380
F00380
F00380
F00380
E00380
E00380
E00380
E00380
E00380
E00380
E00380
E00380
E00380
E00380
E00380
E00380
E00380
ENDCHAR
STARTCHAR 006F
ENCODING 111
SWIDTH 552 0
DWIDTH 23 0
BBX 19 24 2 -1
BITMAP
03F800
0FFE00
1FFF00
3F1F80
7C07C0
7803C0
F001E0
F001E0
F001E0
E001E0
E000E0
E000E0
E000E0
E000E0
E001E0
F001E0
F001E0
F001C0
7803C0
7C07C0
3F1F80
1FFF00
0FFE00
03F800
ENDCHAR
STARTCHAR 0070
ENCODING 112
SWIDTH 552 0
DWIDTH 23 0
BBX 20 32 2 -9
BITMAP
00FC00
E3FF00
E7FF80
EF1FC0
FC07C0
FC03E0
F801E0
F001E0
F000F0
F000F0
F000F0
F000F0
F000F0
F000F0
F000F0
F000F0
F801E0
F801E0
FC03E0
FC07C0
FF1F80
FFFF80
F3FE00
F1F800
F00000
F00000
F00000
F00000
F00000
F00000
F00000
F00000
ENDCHAR
STARTCHAR 0071
ENCODING 113
SWIDTH 552 0
DWIDTH 23 0
BBX 20 32 1 -9
BITMAP
01F800
07FC70
1FFF70
1F0F70
3E07F0
7C03F0
7801F0
7001F0
F000F0
F000F0
F000F0
F000F0
F000F0
F000F0
F000F0
F000F0
7800F0
7801F0
7C03F0
3E03F0
3F8FF0
1FFEF0
0FFCF0
03F0F0
0000F0
0000F0
0000F0
0000F0
0000F0
0000F0
0000F0
0000F0
ENDCHAR
STARTCHAR 0072
ENCODING 114
SWIDTH 336 0
DWIDTH 14 0
BBX 10 23 3 0
BITMAP
01C0
E3C0
E7C0
EFC0
FE00
F800
F800
F000
F000
F000
E000
E000
E000
E000
E000
E000
E000
E000
E000
E000
E000
E000
E000
ENDCHAR
STARTCHAR 0073
ENCODING 115
SWIDTH 504 0
DWIDTH 21 0
BBX 18 24 1 -1
BITMAP
03F800
0FFE00
1FFF00
3E1F80
780780
780780
780380
780000
7C0000
7E0000
3FE000
1FFE00
07FF00
007F80
000FC0
0003C0
F003C0
F003C0
7803C0
7803C0
7F0F80
3FFF00
1FFE00
07F800
ENDCHAR
STARTCHAR 0074
ENCODING 116
SWIDTH 288 0
DWIDTH 12 0
BBX 10 29 1 -1
BITMAP
1C00
1C00
1C00
1C00
1C00
1C00
FFC0
FFC0
FFC0
1C00
1C00
1C00
1C00
1C00
1C00
1C00
1C00
1C00
1C00
1C00
1C00
1C00
1C00
1C00
1C00
1C00
1FC0
1FC0
0FC0
ENDCHAR
STARTCHAR 0075
ENCODING 117
SWIDTH 552 0
DWIDTH 23 0
BBX 17 23 3 -1
BITMAP
E00380
E00380
E00380
E00380
E00380
E00380
E00380
E00380
E00380
E00380
E00380
E00380
E00380
E00380
E00780
E00780
E00780
F00F80
F00F80
FC3F80
7FFB80
3FF380
0FC000
ENDCHAR
STARTCHAR 0076
ENCODING 118
SWIDTH 504 0
DWIDTH 21 0
BBX 19 22 1 0
BITMAP
E001E0
F001E0
F003C0
7003C0
7803C0
780780
380780
3C0700
3C0F00
1C0F00
1E0E00
1E1E00
0E1C00
0F1C00
0F3C00
073800
07B800
07F800
03F000
03F000
01E000
01E000
ENDCHAR
STARTCHAR 0077
ENCODING 119
SWIDTH 720 0
DWIDTH 30 0
BBX 29 22 0 0
BITMAP
F0078078
700F8078
780FC078
780FC070
380FC0F0
3C1FC0F0
3C1DE0F0
3C1DE0E0
1C1CE1E0
1E3CE1E0
1E38F1C0
0E38F1C0
0E3873C0
0F7873C0
0F707B80
07707B80
07703F80
07F03F00
03E03F00
03E03F00
03E01F00
03E01E00
ENDCHAR
STARTCHAR 0078
ENCODING 120
SWIDTH 504 0
DWIDTH 21 0
BBX 18 22 1 0
BITMAP
F003C0
780380
3C0780
3C0F00
1E0E00
0F1E00
0F3C00
07B800
03F800
01F000
01E000
01F000
03F000
03F800
07BC00
0F3C00
1E1E00
1E0F00
3C0F00
780780
7803C0
F003C0
ENDCHAR
STARTCHAR 0079
ENCODING 121
SWIDTH 504 0
DWIDTH 21 0
BBX 19 31 1 -9
BITMAP
F001E0
F001C0
7003C0
7803C0
780380
380780
3C0780
3C0700
1C0F00
1E0E00
1E1E00
0E1E00
0F1C00
0F3C00
073C00
07B800
07F800
03F000
03F000
03F000
01E000
01E000
01E000
01C000
03C000
03C000
078000
5F8000
7F0000
7E0000
7C0000
ENDCHAR
STARTCHAR 007A
ENCODING 122
SWIDTH 504 0
DWIDTH 21 0
BBX 18 22 1 0
BITMAP
7FFF80
7FFF80
7FFF80
000780
000F00
001E00
003E00
003C00
007800
00F000
01E000
03E000
03C000
078000
0F0000
1E0000
3E0000
7C0000
780000
FFFFC0
FFFFC0
FFFFC0
ENDCHAR
STARTCHAR 007B
ENCODING 123
SWIDTH 336 0
DWIDTH 14 0
BBX 10 39 2 -9
BITMAP
03C0
0FC0
0FC0
1E00
1C00
1C00
1C00
1C00
1C00
1C00
1C00
1C00
1C00
1C00
1C00
1C00
3C00
3800
F800
E000
F000
7800
3C00
1C00
1C00
1C00
1C00
1C00
1C00
1C00
1C00
1C00
1C00
1C00
1C00
1E00
1F80
0FC0
07C0
ENDCHAR
STARTCHAR 007C
ENCODING 124
SWIDTH 264 0
DWIDTH 11 0
BBX 3 39 4 -9
BITMAP
E0
E0
E0
E0
E0
E0
E0
E0
E0
E0
E0
E0
E0
E0
E0
E0
E0
E0
E0
E0
E0
E0
E0
E0
E0
E0
E0
E0
E0
E0
E0
E0
E0
E0
E0
E0
E0
E0
E0
ENDCHAR
STARTCHAR 007D
ENCODING 125
SWIDTH 336 0
DWIDTH 14 0
BBX 10 39 1 -9
BITMAP
F000
FC00
FC00
1E00
1E00
0E00
0E00
0E00
0E00
0E00
0E00
0E00
0E00
0E00
0E00
0E00
0E00
0700
07C0
01C0
03C0
0780
0F00
0E00
0E00
0E00
0E00
0E00
0E00
0E00
0E00
0E00
0E00
0E00
0E00
1E00
7C00
FC00
F800
ENDCHAR
STARTCHAR 007E
ENCODING 126
SWIDTH 576 0
DWIDTH 24 0
BBX 18 7 3 11
BITMAP
1E0000
7F00C0
7FC0C0
61F1C0
E0FFC0
C03F80
000E00
ENDCHAR
STARTCHAR 00A0
ENCODING 160
SWIDTH 288 0
DWIDTH 12 0
BBX 0 0 0 0
BITMAP
ENDCHAR
STARTCHAR 00A1
ENCODING 161
SWIDTH 336 0
DWIDTH 14 0
BBX 4 30 5 -8
BITMAP
F0
F0
F0
F0
00
00
00
60
60
60
60
60
E0
E0
E0
E0
F0
F0
F0
F0
F0
F0
F0
F0
F0
F0
F0
F0
F0
F0
ENDCHAR
STARTCHAR 00A2
ENCODING 162
SWIDTH 552 0
DWIDTH 23 0
BBX 19 31 2 -5
BITMAP
006000
006000
006000
006000
03FE00
0FFF00
1FFF80
3E67C0
3C63C0
7861E0
7861E0
7061E0
F06000
F06000
F06000
F06000
F06000
F06000
F060E0
7060E0
7861E0
7C61E0
3E63C0
1F6FC0
0FFF80
07FF00
01FC00
006000
006000
006000
006000
ENDCHAR
STARTCHAR 00A3
ENCODING 163
SWIDTH 552 0
DWIDTH 23 0
BBX 21 31 1 -1
BITMAP
00FE00
03FF80
0FFFC0
1F8FE0
1E01E0
3C00F0
3C00F0
7800F0
780070
780070
780000
3C0000
3C0000
1E0000
1E0000
FFFC00
FFFC00
078000
078000
038000
038000
038000
070000
070000
0E0000
1C0000
3BF810
7FFFF8
7FFFF8
303FF0
2007E0
ENDCHAR
STARTCHAR 00A4
ENCODING 164
SWIDTH 552 0
DWIDTH 23 0
BBX 17 17 3 6
BITMAP
600300
F3E780
FFFF80
7FFF00
3E3E00
780F00
780F00
700700
700700
700700
700F00
780F00
3C1E00
7FFF00
FFFF80
77F780
200300
ENDCHAR
STARTCHAR 00A5
ENCODING 165
SWIDTH 552 0
DWIDTH 23 0
BBX 22 30 1 0
BITMAP
E0003C
F00078
700070
7800F0
3800E0
3C01E0
1E01C0
0E03C0
0F0380
070700
078F00
038E00
01DE00
01FC00
00FC00
3FFFF0
3FFFF0
007800
007800
007800
007800
3FFFF0
3FFFF0
007800
007800
007800
007800
007800
007800
007800
ENDCHAR
STARTCHAR 00A6
ENCODING 166
SWIDTH 264 0
DWIDTH 11 0
BBX 3 39 4 -9
BITMAP
E0
E0
E0
E0
E0
E0
E0
E0
E0
E0
E0
E0
E0
E0
E0
E0
E0
00
00
00
00
00
00
E0
E0
E0
E0
E0
E0
E0
E0
E0
E0
E0
E0
E0
E0
E0
E0
ENDCHAR
STARTCHAR 00A7
ENCODING 167
SWIDTH 552 0
DWIDTH 23 0
BBX 19 39 2 -9
BITMAP
01F800
07FE00
0FFF00
1F0F80
1E0780
1C0380
3C0380
3C0380
1E0000
1F8000
0FC000
1FF000
39F800
70FE00
F03F00
E01F80
E007C0
E003E0
F001E0
F801E0
7C00E0
7E00E0
3F80E0
0FC1C0
07E3C0
03FF80
00FF00
007E00
001F00
000F00
000780
780780
780780
780780
3C0F00
3F1F00
1FFE00
0FFC00
03F000
ENDCHAR
STARTCHAR 00A8
ENCODING 168
SWIDTH 336 0
DWIDTH 14 0
BBX 11 4 1 26
BITMAP
F9E0
F9E0
F9E0
F9E0
ENDCHAR
STARTCHAR 00A9
ENCODING 169
SWIDTH 744 0
DWIDTH 31 0
BBX 32 32 -1 -1
BITMAP
0007F000
003FFE00
00FFFF80
01F007C0
07C001E0
070000F0
0E008038
1C07F83C
3C1FFC1C
381E1C0E
38380E0E
70780E07
70700707
70700007
60700007
E0600007
E0600007
60700007
70700707
70700707
70700E07
70380E0E
383C1E0E
3C1FFC1E
1C0FF81C
0E03E038
0F000078
07C001F0
03F007C0
00FFFF80
003FFE00
000FF000
ENDCHAR
STARTCHAR 00AA
ENCODING 170
SWIDTH 360 0
DWIDTH 15 0
BBX 12 18 2 13
BITMAP
1F80
7FC0
F1C0
E0E0
00E0
00E0
3FE0
7EE0
E0E0
C0E0
C0E0
E1E0
FFF0
7E70
0000
0000
FFE0
FFE0
ENDCHAR
STARTCHAR 00AB
ENCODING 171
SWIDTH 552 0
DWIDTH 23 0
BBX 15 13 4 4
BITMAP
0402
0C06
1C0E
3C3E
F878
E070
C060
E070
F078
7C3C
1C1E
0C0E
0402
ENDCHAR
STARTCHAR 00AC
ENCODING 172
SWIDTH 576 0
DWIDTH 24 0
BBX 21 12 2 4
BITMAP
FFFFF8
FFFFF8
FFFFF8
000038
000038
000038
000038
000038
000038
000038
000038
000038
ENDCHAR
STARTCHAR 00AD
ENCODING 173
SWIDTH 336 0
DWIDTH 14 0
BBX 10 3 2 10
BITMAP
FFC0
FFC0
FFC0
ENDCHAR
STARTCHAR 00AE
ENCODING 174
SWIDTH 744 0
DWIDTH 31 0
BBX 32 32 -1 -1
BITMAP
0007F000
003FFE00
00FFFF80
03F007C0
07C001F0
0F000070
0E7FE038
1C7FFC1C
387FFE1E
38700F0E
7070070E
70700707
70700707
70700707
60700E07
E07FFC07
E07FFC07
607FFE07
70700E07
70700707
70700707
7070070E
3870070E
3C70071E
1C70071C
0E000038
0F000070
07C001F0
03F007C0
00FFFF80
003FFE00
000FF000
ENDCHAR
STARTCHAR 00AF
ENCODING 175
SWIDTH 336 0
DWIDTH 14 0
BBX 12 3 1 26
BITMAP
FFF0
FFF0
FFF0
ENDCHAR
STARTCHAR 00B0
ENCODING 176
SWIDTH 408 0
DWIDTH 17 0
BBX 13 12 2 16
BITMAP
1FC0
3FE0
70F0
E070
E038
C038
C038
E030
7070
7DE0
3FC0
0F80
ENDCHAR
STARTCHAR 00B1
ENCODING 177
SWIDTH 576 0
DWIDTH 24 0
BBX 20 27 2 -1
BITMAP
007000
007000
007000
007000
007000
007000
007000
007000
007000
FFFFF0
FFFFF0
FFFFF0
007000
007000
007000
007000
007000
007000
007000
007000
007000
000000
000000
000000
FFFFF0
FFFFF0
FFFFF0
ENDCHAR
STARTCHAR 00B2
ENCODING 178
SWIDTH 336 0
DWIDTH 14 0
BBX 13 18 0 12
BITMAP
0FC0
1FF0
3C70
7038
7038
7018
0038
0038
0070
01E0
07C0
1F00
3C00
3800
7000
7000
7FF8
FFF8
ENDCHAR
STARTCHAR 00B3
ENCODING 179
SWIDTH 336 0
DWIDTH 14 0
BBX 13 18 0 12
BITMAP
0FC0
3FE0
38F0
7070
6030
6030
0070
01F0
07C0
07F0
0038
0038
E038
E038
6038
7070
3FE0
1FC0
ENDCHAR
STARTCHAR 00B4
ENCODING 180
SWIDTH 336 0
DWIDTH 14 0
BBX 8 6 4 25
BITMAP
1F
1E
3C
38
70
E0
ENDCHAR
STARTCHAR 00B5
ENCODING 181
SWIDTH 552 0
DWIDTH 23 0
BBX 20 31 3 -9
BITMAP
E00380
E00380
E00380
E00380
E00380
E00380
E00380
E00380
E00380
E00380
E00380
E00380
E00380
E00380
E00780
E00780
E00780
F00F80
F01F80
FC3F80
FFFBF0
FFF3F0
EFC1F0
E00000
E00000
E00000
E00000
E00000
E00000
E00000
E00000
ENDCHAR
STARTCHAR 00B6
ENCODING 182
SWIDTH 528 0
DWIDTH 22 0
BBX 20 38 2 -8
BITMAP
03FFF0
0FFFF0
1FFFF0
3FE180
3FE180
7FE180
7FE180
FFE180
FFE180
FFE180
FFE180
FFE180
FFE180
7FE180
7FE180
7FE180
3FE180
1FE180
0FE180
00E180
006180
006180
006180
006180
006180
006180
006180
006180
006180
006180
006180
006180
006180
006180
006180
006180
006180
006180
ENDCHAR
STARTCHAR 00B7
ENCODING 183
SWIDTH 288 0
DWIDTH 12 0
BBX 4 4 5 10
BITMAP
F0
F0
F0
F0
ENDCHAR
STARTCHAR 00B8
ENCODING 184
SWIDTH 336 0
DWIDTH 14 0
BBX 10 9 2 -9
BITMAP
0400
0C00
0F00
1FC0
01C0
01C0
C3C0
FF80
3F00
ENDCHAR
STARTCHAR 00B9
ENCODING 185
SWIDTH 336 0
DWIDTH 14 0
BBX 7 18 2 12
BITMAP
06
06
0E
1E
FE
FE
0E
0E
0E
0E
0E
0E
0E
0E
0E
0E
0E
0E
ENDCHAR
STARTCHAR 00BA
ENCODING 186
SWIDTH 360 0
DWIDTH 15 0
BBX 12 18 2 13
BITMAP
1F00
3FC0
71C0
E0E0
E060
C060
C070
C070
C060
C060
E0E0
71E0
7FC0
1F00
0000
0000
FFE0
FFE0
ENDCHAR
STARTCHAR 00BB
ENCODING 187
SWIDTH 552 0
DWIDTH 23 0
BBX 15 14 4 4
BITMAP
8080
C0E0
F0F0
F878
3C3C
1E1E
0E06
1E0E
3E3E
787C
F0F0
E0E0
80C0
0080
ENDCHAR
STARTCHAR 00BC
ENCODING 188
SWIDTH 840 0
DWIDTH 35 0
BBX 33 30 1 -1
BITMAP
060000C000
0E0001C000
1E00018000
FE00030000
FE00070000
0E00060000
0E000C0000
0E001C0000
0E00180000
0E00380000
0E00300000
0E00600C00
0E00E01C00
0E00C01C00
0E01C03C00
0E03807C00
0E0300EC00
000700CC00
0006018C00
000C038C00
001C070C00
00180E0C00
00380C0C00
00300FFF80
00600FFF80
00E0000C00
00C0000C00
0180000C00
0380000C00
0300000000
ENDCHAR
STARTCHAR 00BD
ENCODING 189
SWIDTH 840 0
DWIDTH 35 0
BBX 33 30 1 -1
BITMAP
0600018000
0E00038000
0E00030000
FE00060000
FE000E0000
0E000C0000
0E001C0000
0E00180000
0E00300000
0E00700000
0E00600000
0E00C00000
0E01C1FC00
0E0183FE00
0E03878F00
0E03060300
0E060E0380
0E0E0E0380
000C000300
0018000700
0038001E00
0030007C00
007000F000
006003C000
00C0078000
01C0070000
01800E0000
03000FFF80
07000FFF80
0600000000
ENDCHAR
STARTCHAR 00BE
ENCODING 190
SWIDTH 840 0
DWIDTH 35 0
BBX 33 31 1 -1
BITMAP
0F80007000
3FE0006000
78F000C000
707001C000
6030018000
E030038000
0070030000
00F0060000
07C00E0000
07E00C0000
00701C0000
0038180000
0038300C00
E038701C00
E038603C00
E030C03C00
78F1C07C00
3FE180FC00
1F8381DC00
0003019C00
0006039C00
000E071C00
000C0E1C00
001C0C1C00
00180FFF80
00300FFF80
0070001C00
0060001C00
00E0001C00
00C0001C00
0180000000
ENDCHAR
STARTCHAR 00BF
ENCODING 191
SWIDTH 600 0
DWIDTH 25 0
BBX 18 31 4 -9
BITMAP
01E000
01E000
01E000
01E000
000000
000000
000000
000000
01E000
01E000
01E000
01E000
01E000
03E000
07C000
0F8000
1F0000
3E0000
7C0000
780000
F00000
F003C0
F003C0
F003C0
F003C0
F00380
780780
7F1F80
3FFF00
1FFE00
07F000
ENDCHAR
STARTCHAR 00C0
ENCODING 192
SWIDTH 672 0
DWIDTH 28 0
BBX 26 39 1 0
BITMAP
01F00000
00F00000
00780000
003C0000
001C0000
000E0000
00000000
00000000
00000000
003F0000
003F0000
003F0000
007F8000
007F8000
0077C000
00F3C000
00F3C000
01E3E000
01E1E000
01E1E000
03C0F000
03C0F000
03C0F000
07807800
07807800
07007800
0F003C00
0FFFFC00
1FFFFC00
1FFFFE00
1E001E00
3C001F00
3C000F00
3C000F00
78000F80
78000780
78000780
F00007C0
F00003C0
ENDCHAR
STARTCHAR 00C1
ENCODING 193
SWIDTH 672 0
DWIDTH 28 0
BBX 26 39 1 0
BITMAP
0003E000
0003C000
00078000
000F0000
000E0000
001C0000
00000000
00000000
00000000
003F0000
003F0000
003F0000
007F8000
007F8000
0077C000
00F3C000
00F3C000
01E3E000
01E1E000
01E1E000
03C0F000
03C0F000
03C0F000
07807800
07807800
07007800
0F003C00
0FFFFC00
1FFFFC00
1FFFFE00
1E001E00
3C001F00
3C000F00
3C000F00
78000F80
78000780
78000780
F00007C0
F00003C0
ENDCHAR
STARTCHAR 00C2
ENCODING 194
SWIDTH 672 0
DWIDTH 28 0
BBX 26 39 1 0
BITMAP
001E0000
003F0000
003F0000
00738000
00E1C000
00C1C000
01000000
00000000
00000000
003F0000
003F0000
003F0000
007F8000
007F8000
0077C000
00F3C000
00F3C000
01E3E000
01E1E000
01E1E000
03C0F000
03C0F000
03C0F000
07807800
07807800
07007800
0F003C00
0FFFFC00
1FFFFC00
1FFFFE00
1E001E00
3C001F00
3C000F00
3C000F00
78000F80
78000780
78000780
F00007C0
F00003C0
ENDCHAR
STARTCHAR 00C3
ENCODING 195
SWIDTH 672 0
DWIDTH 28 0
BBX 26 38 1 0
BITMAP
00606000
00FC6000
01FFE000
018FC000
03838000
00000000
00000000
00000000
003F0000
003F0000
003F0000
007F8000
007F8000
0077C000
00F3C000
00F3C000
01E3E000
01E1E000
01E1E000
03C0F000
03C0F000
03C0F000
07807800
07807800
07007800
0F003C00
0FFFFC00
1FFFFC00
1FFFFE00
1E001E00
3C001F00
3C000F00
3C000F00
78000F80
78000780
78000780
F00007C0
F00003C0
ENDCHAR
STARTCHAR 00C4
ENCODING 196
SWIDTH 672 0
DWIDTH 28 0
BBX 26 38 1 0
BITMAP
01F3E000
01F3E000
01F3E000
01F3E000
00000000
00000000
00000000
00000000
003F0000
003F0000
003F0000
007F8000
007F8000
0077C000
00F3C000
00F3C000
01E3E000
01E1E000
01E1E000
03C0F000
03C0F000
03C0F000
07807800
07807800
07007800
0F003C00
0FFFFC00
1FFFFC00
1FFFFE00
1E001E00
3C001F00
3C000F00
3C000F00
78000F80
78000780
78000780
F00007C0
F00003C0
ENDCHAR
STARTCHAR 00C5
ENCODING 197
SWIDTH 672 0
DWIDTH 28 0
BBX 26 39 1 0
BITMAP
001E0000
003F0000
00738000
00618000
00730000
003F0000
001E0000
00000000
00000000
003F0000
003F0000
003F0000
007F8000
007F8000
0077C000
00F3C000
00F3C000
01E3E000
01E1E000
01E1E000
03C0F000
03C0F000
03C0F000
07807800
07807800
07007800
0F003C00
0FFFFC00
1FFFFC00
1FFFFE00
1E001E00
3C001F00
3C000F00
3C000F00
78000F80
78000780
78000780
F00007C0
F00003C0
ENDCHAR
STARTCHAR 00C6
ENCODING 198
SWIDTH 1008 0
DWIDTH 42 0
BBX 39 30 1 0
BITMAP
000FFFFFFC
001FFFFFFC
001FFFFFFC
003C3C0000
003C3C0000
00383C0000
00783C0000
00783C0000
00F03C0000
00F03C0000
00E03C0000
01E03C0000
01E03C0000
03C03FFFF8
03C03FFFF8
07803FFFF8
07803C0000
07803C0000
0FFFFC0000
0FFFFC0000
1FFFFC0000
1E003C0000
1E003C0000
3C003C0000
3C003C0000
7C003C0000
78003C0000
F8003FFFFE
F0003FFFFE
F0003FFFFE
ENDCHAR
STARTCHAR 00C7
ENCODING 199
SWIDTH 720 0
DWIDTH 30 0
BBX 26 40 2 -9
BITMAP
003FC000
01FFF000
03FFFC00
07FBFE00
0F803F00
1F000F00
3E000F80
3C000780
78000780
780003C0
78000000
70000000
F0000000
F0000000
F0000000
F0000000
F0000000
F0000000
F0000000
F0000000
F00003C0
780003C0
780003C0
780007C0
3C000780
3E000F80
1F000F00
1F801F00
0FE0FE00
07FFFC00
01FFF800
007FC000
000C0000
000A0000
001F8000
0003C000
0001C000
00838000
01FF8000
003E0000
ENDCHAR
STARTCHAR 00C8
ENCODING 200
SWIDTH 672 0
DWIDTH 28 0
BBX 22 39 4 0
BITMAP
07C000
03C000
01E000
00E000
007000
003800
000000
000000
000000
FFFFF8
FFFFF8
FFFFF8
F00000
F00000
F00000
F00000
F00000
F00000
F00000
F00000
F00000
F00000
FFFFF0
FFFFF0
FFFFF0
F00000
F00000
F00000
F00000
F00000
F00000
F00000
F00000
F00000
F00000
F00000
FFFFFC
FFFFFC
FFFFFC
ENDCHAR
STARTCHAR 00C9
ENCODING 201
SWIDTH 672 0
DWIDTH 28 0
BBX 22 39 4 0
BITMAP
001F00
003E00
003C00
007800
007000
00E000
000000
000000
000000
FFFFF8
FFFFF8
FFFFF8
F00000
F00000
F00000
F00000
F00000
F00000
F00000
F00000
F00000
F00000
FFFFF0
FFFFF0
FFFFF0
F00000
F00000
F00000
F00000
F00000
F00000
F00000
F00000
F00000
F00000
F00000
FFFFFC
FFFFFC
FFFFFC
ENDCHAR
STARTCHAR 00CA
ENCODING 202
SWIDTH 672 0
DWIDTH 28 0
BBX 22 39 4 0
BITMAP
00F800
00F800
01FC00
03DC00
038E00
070700
000000
000000
000000
FFFFF8
FFFFF8
FFFFF8
F00000
F00000
F00000
F00000
F00000
F00000
F00000
F00000
F00000
F00000
FFFFF0
FFFFF0
FFFFF0
F00000
F00000
F00000
F00000
F00000
F00000
F00000
F00000
F00000
F00000
F00000
FFFFFC
FFFFFC
FFFFFC
ENDCHAR
STARTCHAR 00CB
ENCODING 203
SWIDTH 672 0
DWIDTH 28 0
BBX 22 38 4 0
BITMAP
078F00
078F00
078F00
078F00
000000
000000
000000
000000
FFFFF8
FFFFF8
FFFFF8
F00000
F00000
F00000
F00000
F00000
F00000
F00000
F00000
F00000
F00000
FFFFF0
FFFFF0
FFFFF0
F00000
F00000
F00000
F00000
F00000
F00000
F00000
F00000
F00000
F00000
F00000
FFFFFC
FFFFFC
FFFFFC
ENDCHAR
STARTCHAR 00CC
ENCODING 204
SWIDTH 288 0
DWIDTH 12 0
BBX 8 39 0 0
BITMAP
F8
7C
3C
1E
0F
07
00
00
00
0F
0F
0F
0F
0F
0F
0F
0F
0F
0F
0F
0F
0F
0F
0F
0F
0F
0F
0F
0F
0F
0F
0F
0F
0F
0F
0F
0F
0F
0F
ENDCHAR
STARTCHAR 00CD
ENCODING 205
SWIDTH 288 0
DWIDTH 12 0
BBX 8 39 3 0
BITMAP
0F
1E
1C
38
70
60
80
00
00
78
78
78
78
78
78
78
78
78
78
78
78
78
78
78
78
78
78
78
78
78
78
78
78
78
78
78
78
78
78
ENDCHAR
STARTCHAR 00CE
ENCODING 206
SWIDTH 288 0
DWIDTH 12 0
BBX 11 39 0 0
BITMAP
0F00
1F80
3F80
39C0
70E0
60E0
8000
0000
0000
0F00
0F00
0F00
0F00
0F00
0F00
0F00
0F00
0F00
0F00
0F00
0F00
0F00
0F00
0F00
0F00
0F00
0F00
0F00
0F00
0F00
0F00
0F00
0F00
0F00
0F00
0F00
0F00
0F00
0F00
ENDCHAR
STARTCHAR 00CF
ENCODING 207
SWIDTH 288 0
DWIDTH 12 0
BBX 11 37 0 0
BITMAP
F9E0
F9E0
F9E0
F9E0
0000
0000
0000
0F00
0F00
0F00
0F00
0F00
0F00
0F00
0F00
0F00
0F00
0F00
0F00
0F00
0F00
0F00
0F00
0F00
0F00
0F00
0F00
0F00
0F00
0F00
0F00
0F00
0F00
0F00
0F00
0F00
0F00
ENDCHAR
STARTCHAR 00D0
ENCODING 208
SWIDTH 720 0
DWIDTH 30 0
BBX 27 30 1 0
BITMAP
1FFFC000
1FFFF800
1FFFFC00
1E01FE00
1E003F00
1E000F80
1E000780
1E0007C0
1E0003C0
1E0003C0
1E0003C0
1E0001E0
1E0001E0
FFFC01E0
FFFC01E0
FFFC01E0
1E0001E0
1E0001E0
1E0001E0
1E0003C0
1E0003C0
1E0003C0
1E000780
1E000780
1E000F80
1E001F00
1E01FE00
1FFFFC00
1FFFF000
1FFFC000
ENDCHAR
STARTCHAR 00D1
ENCODING 209
SWIDTH 720 0
DWIDTH 30 0
BBX 24 38 3 0
BITMAP
00E0E0
01F8E0
03FFC0
039FC0
030300
000000
000000
000000
F8000F
F8000F
FC000F
FE000F
FE000F
FF000F
FF800F
F7800F
F3C00F
F3E00F
F1E00F
F0F00F
F0F00F
F0780F
F03C0F
F03C0F
F01E0F
F01F0F
F00F0F
F0078F
F007CF
F003CF
F001EF
F001FF
F000FF
F0007F
F0007F
F0003F
F0001F
F0001F
ENDCHAR
STARTCHAR 00D2
ENCODING 210
SWIDTH 768 0
DWIDTH 32 0
BBX 29 40 2 -1
BITMAP
00780000
003C0000
001E0000
000E0000
00070000
00038000
00000000
00000000
003FC000
00FFF800
03FFFE00
07F9FF00
0F801F80
1F0007C0
3E0003C0
3C0001E0
780001F0
780000F0
F00000F0
F00000F0
F0000078
F0000078
F0000078
E0000078
E0000078
F0000078
F0000078
F0000078
F0000070
F00000F0
780000F0
780001E0
7C0001E0
3E0003C0
1F0007C0
0FC01F80
07F9FF00
03FFFE00
01FFF800
003FC000
ENDCHAR
STARTCHAR 00D3
ENCODING 211
SWIDTH 768 0
DWIDTH 32 0
BBX 29 40 2 -1
BITMAP
0001F000
0003C000
00038000
00070000
000E0000
000C0000
00000000
00000000
003FC000
00FFF800
03FFFE00
07F9FF00
0F801F80
1F0007C0
3E0003C0
3C0001E0
780001F0
780000F0
F00000F0
F00000F0
F0000078
F0000078
F0000078
E0000078
E0000078
F0000078
F0000078
F0000078
F0000070
F00000F0
780000F0
780001E0
7C0001E0
3E0003C0
1F0007C0
0FC01F80
07F9FF00
03FFFE00
01FFF800
003FC000
ENDCHAR
STARTCHAR 00D4
ENCODING 212
SWIDTH 768 0
DWIDTH 32 0
BBX 29 40 2 -1
BITMAP
000F8000
001F8000
001DC000
0038E000
0070E000
00607000
00000000
00000000
003FC000
00FFF800
03FFFE00
07F9FF00
0F801F80
1F0007C0
3E0003C0
3C0001E0
780001F0
780000F0
F00000F0
F00000F0
F0000078
F0000078
F0000078
E0000078
E0000078
F0000078
F0000078
F0000078
F0000070
F00000F0
780000F0
780001E0
7C0001E0
3E0003C0
1F0007C0
0FC01F80
07F9FF00
03FFFE00
01FFF800
003FC000
ENDCHAR
STARTCHAR 00D5
ENCODING 213
SWIDTH 768 0
DWIDTH 32 0
BBX 29 39 2 -1
BITMAP
003C3800
007FF800
00FFF000
00E3E000
00000000
00000000
00000000
003FC000
00FFF800
03FFFE00
07F9FF00
0F801F80
1F0007C0
3E0003C0
3C0001E0
780001F0
780000F0
F00000F0
F00000F0
F0000078
F0000078
F0000078
E0000078
E0000078
F0000078
F0000078
F0000078
F0000070
F00000F0
780000F0
780001E0
7C0001E0
3E0003C0
1F0007C0
0FC01F80
07F9FF00
03FFFE00
01FFF800
003FC000
ENDCHAR
STARTCHAR 00D6
ENCODING 214
SWIDTH 768 0
DWIDTH 32 0
BBX 29 39 2 -1
BITMAP
0079F000
0079F000
0079F000
0079F000
00000000
00000000
00000000
003FC000
00FFF800
03FFFE00
07F9FF00
0F801F80
1F0007C0
3E0003C0
3C0001E0
780001F0
780000F0
F00000F0
F00000F0
F0000078
F0000078
F0000078
E0000078
E0000078
F0000078
F0000078
F0000078
F0000070
F00000F0
780000F0
780001E0
7C0001E0
3E0003C0
1F0007C0
0FC01F80
07F9FF00
03FFFE00
01FFF800
003FC000
ENDCHAR
STARTCHAR 00D7
ENCODING 215
SWIDTH 576 0
DWIDTH 24 0
BBX 16 16 4 1
BITMAP
0002
6007
F00F
781E
3C3C
1E78
0FF0
07E0
03C0
07E0
0FF0
1E78
3C3C
781E
F00F
6006
ENDCHAR
STARTCHAR 00D8
ENCODING 216
SWIDTH 768 0
DWIDTH 32 0
BBX 30 32 1 0
BITMAP
001FE01C
007FFC38
01FFFF38
07FCFFF0
0FC00FE0
0F8007E0
1F0003E0
3E0007F0
3C000EF0
3C001C78
78003878
78007078
7800E03C
7800E03C
7001C03C
F003803C
F007003C
700E003C
781C003C
7838003C
78700078
78E00078
3DC00078
3F8000F0
3F0001F0
1F0001E0
0F8003E0
1FC00FC0
3FFCFF80
71FFFF00
60FFFC00
001FE000
ENDCHAR
STARTCHAR 00D9
ENCODING 217
SWIDTH 720 0
DWIDTH 30 0
BBX 23 40 4 -1
BITMAP
07C000
03E000
01E000
00F000
007800
003800
000000
000000
000000
E0001E
E0001E
E0001E
E0001E
E0001E
E0001E
E0001E
E0001E
E0001E
E0001E
E0001E
E0001E
E0001E
E0001E
E0001E
E0001E
E0001E
E0001E
E0001E
E0001E
E0001E
E0001E
F0001E
F0001E
F0003C
78007C
7E00F8
3FEFF8
1FFFE0
0FFFC0
01FE00
ENDCHAR
STARTCHAR 00DA
ENCODING 218
SWIDTH 720 0
DWIDTH 30 0
BBX 23 40 4 -1
BITMAP
000F80
001F00
001E00
003C00
007800
007000
000000
000000
000000
E0001E
E0001E
E0001E
E0001E
E0001E
E0001E
E0001E
E0001E
E0001E
E0001E
E0001E
E0001E
E0001E
E0001E
E0001E
E0001E
E0001E
E0001E
E0001E
E0001E
E0001E
E0001E
F0001E
F0001E
F0003C
78007C
7E00F8
3FEFF8
1FFFE0
0FFFC0
01FE00
ENDCHAR
STARTCHAR 00DB
ENCODING 219
SWIDTH 720 0
DWIDTH 30 0
BBX 23 40 4 -1
BITMAP
007800
00FC00
00FE00
01CE00
01C700
038380
000000
000000
000000
E0001E
E0001E
E0001E
E0001E
E0001E
E0001E
E0001E
E0001E
E0001E
E0001E
E0001E
E0001E
E0001E
E0001E
E0001E
E0001E
E0001E
E0001E
E0001E
E0001E
E0001E
E0001E
F0001E
F0001E
F0003C
78007C
7E00F8
3FEFF8
1FFFE0
0FFFC0
01FE00
ENDCHAR
STARTCHAR 00DC
ENCODING 220
SWIDTH 720 0
DWIDTH 30 0
BBX 23 39 4 -1
BITMAP
03CF80
03CF80
03CF80
03CF80
000000
000000
000000
000000
E0001E
E0001E
E0001E
E0001E
E0001E
E0001E
E0001E
E0001E
E0001E
E0001E
E0001E
E0001E
E0001E
E0001E
E0001E
E0001E
E0001E
E0001E
E0001E
E0001E
E0001E
E0001E
F0001E
F0001E
F0003C
78007C
7E00F8
3FEFF8
1FFFE0
0FFFC0
01FE00
ENDCHAR
STARTCHAR 00DD
ENCODING 221
SWIDTH 672 0
DWIDTH 28 0
BBX 26 39 1 0
BITMAP
0003E000
0007C000
00078000
000F0000
001E0000
001C0000
00000000
00000000
00000000
F80003C0
F80007C0
7C000F80
3C000F00
3E001F00
1F001E00
0F003C00
0F807C00
07C07800
03C0F800
03E0F000
01E1E000
00F3E000
00FBC000
007F8000
007F8000
003F0000
001F0000
001E0000
001E0000
001E0000
001E0000
001E0000
001E0000
001E0000
001E0000
001E0000
001E0000
001E0000
001E0000
ENDCHAR
STARTCHAR 00DE
ENCODING 222
SWIDTH 672 0
DWIDTH 28 0
BBX 22 30 4 0
BITMAP
F00000
F00000
F00000
F00000
F00000
FFFF00
FFFFC0
FFFFE0
F00FF0
F000F8
F00078
F00078
F0007C
F0007C
F0007C
F0007C
F00078
F000F8
F001F0
FFFFF0
FFFFE0
FFFF80
F00000
F00000
F00000
F00000
F00000
F00000
F00000
F00000
ENDCHAR
STARTCHAR 00DF
ENCODING 223
SWIDTH 600 0
DWIDTH 25 0
BBX 20 31 3 -1
BITMAP
03F800
0FFE00
3FFF80
7E1F80
7807C0
F003C0
F001E0
E001E0
E001E0
E001C0
E003C0
E00780
E0FF00
E0FC00
E0FF00
E0FFC0
E003E0
E001E0
E000F0
E000F0
E000F0
E000F0
E000F0
E000F0
E000F0
E001E0
E003E0
E03FC0
E0FF80
E0FF00
00F800
ENDCHAR
STARTCHAR 00E0
ENCODING 224
SWIDTH 552 0
DWIDTH 23 0
BBX 20 32 2 -1
BITMAP
0F8000
078000
03C000
01E000
00E000
007000
000000
000000
03F800
1FFF00
3FFF80
3E0F80
7807C0
7803C0
7003C0
0003C0
0003C0
0007C0
01FFC0
1FFFC0
3FFBC0
7E03C0
F803C0
F003C0
E003C0
E003C0
F007C0
F00FC0
F83FC0
7FFFF0
3FF1F0
0FC0F0
ENDCHAR
STARTCHAR 00E1
ENCODING 225
SWIDTH 552 0
DWIDTH 23 0
BBX 20 32 2 -1
BITMAP
003E00
003C00
007800
00F000
00E000
01C000
000000
000000
03F800
1FFF00
3FFF80
3E0F80
7807C0
7803C0
7003C0
0003C0
0003C0
0007C0
01FFC0
1FFFC0
3FFBC0
7E03C0
F803C0
F003C0
E003C0
E003C0
F007C0
F00FC0
F83FC0
7FFFF0
3FF1F0
0FC0F0
ENDCHAR
STARTCHAR 00E2
ENCODING 226
SWIDTH 552 0
DWIDTH 23 0
BBX 20 32 2 -1
BITMAP
01F000
03F000
03B800
071C00
0E1C00
0E0E00
000000
000000
03F800
1FFF00
3FFF80
3E0F80
7807C0
7803C0
7003C0
0003C0
0003C0
0007C0
01FFC0
1FFFC0
3FFBC0
7E03C0
F803C0
F003C0
E003C0
E003C0
F007C0
F00FC0
F83FC0
7FFFF0
3FF1F0
0FC0F0
ENDCHAR
STARTCHAR 00E3
ENCODING 227
SWIDTH 552 0
DWIDTH 23 0
BBX 20 32 2 -1
BITMAP
07C700
0FFF00
1FFE00
1C7C00
000000
000000
000000
000000
03F800
1FFF00
3FFF80
3E0F80
7807C0
7803C0
7003C0
0003C0
0003C0
0007C0
01FFC0
1FFFC0
3FFBC0
7E03C0
F803C0
F003C0
E003C0
E003C0
F007C0
F00FC0
F83FC0
7FFFF0
3FF1F0
0FC0F0
ENDCHAR
STARTCHAR 00E4
ENCODING 228
SWIDTH 552 0
DWIDTH 23 0
BBX 20 31 2 -1
BITMAP
0F1E00
0F1E00
0F1E00
0F1E00
000000
000000
000000
03F800
1FFF00
3FFF80
3E0F80
7807C0
7803C0
7003C0
0003C0
0003C0
0007C0
01FFC0
1FFFC0
3FFBC0
7E03C0
F803C0
F003C0
E003C0
E003C0
F007C0
F00FC0
F83FC0
7FFFF0
3FF1F0
0FC0F0
ENDCHAR
STARTCHAR 00E5
ENCODING 229
SWIDTH 552 0
DWIDTH 23 0
BBX 20 33 2 -1
BITMAP
00E000
01F000
031800
031800
031800
03F000
00E000
000000
000000
03F800
1FFF00
3FFF80
3E0F80
7807C0
7803C0
7003C0
0003C0
0003C0
0007C0
01FFC0
1FFFC0
3FFBC0
7E03C0
F803C0
F003C0
E003C0
E003C0
F007C0
F00FC0
F83FC0
7FFFF0
3FF1F0
0FC0F0
ENDCHAR
STARTCHAR 00E6
ENCODING 230
SWIDTH 888 0
DWIDTH 37 0
BBX 34 24 1 -1
BITMAP
01FC03F000
0FFF1FFC00
1FFFBFFE00
3F0FFE3F00
3C03F80F80
3801F00780
7801E003C0
0001E003C0
0001C003C0
0003C003C0
00FFFFFFC0
0FFFFFFFC0
1FF9FFFFC0
3F01C00000
7801C00000
7001C00000
F001E003C0
F001E003C0
F003F00780
7807F80F80
7C1E7E1F00
3FFC3FFE00
1FF81FFC00
0FC007F000
ENDCHAR
STARTCHAR 00E7
ENCODING 231
SWIDTH 504 0
DWIDTH 21 0
BBX 19 32 1 -9
BITMAP
01F800
07FE00
0FFF80
1F0F80
3C07C0
3C03C0
7801C0
7801E0
700000
700000
F00000
F00000
F00000
F00000
F00000
7001E0
7801E0
7801E0
7803C0
3C03C0
1F0F80
1FFF80
0FFF00
03FC00
00C000
00A000
01F800
003C00
001C00
0C3C00
0FF800
03F000
ENDCHAR
STARTCHAR 00E8
ENCODING 232
SWIDTH 552 0
DWIDTH 23 0
BBX 19 32 2 -1
BITMAP
0F8000
078000
03C000
01E000
007000
003000
000000
000000
01F800
0FFE00
1FFF00
3F1F80
3C07C0
7803C0
7001E0
F001E0
F001E0
E000E0
FFFFE0
FFFFE0
FFFFE0
E00000
E00000
F00000
F001E0
F001E0
7803C0
7C07C0
3F0F80
1FFF00
0FFE00
03F800
ENDCHAR
STARTCHAR 00E9
ENCODING 233
SWIDTH 552 0
DWIDTH 23 0
BBX 19 32 2 -1
BITMAP
003E00
003C00
007800
00F000
00E000
01C000
000000
000000
01F800
0FFE00
1FFF00
3F1F80
3C07C0
7803C0
7001E0
F001E0
F001E0
E000E0
FFFFE0
FFFFE0
FFFFE0
E00000
E00000
F00000
F001E0
F001E0
7803C0
7C07C0
3F0F80
1FFF00
0FFE00
03F800
ENDCHAR
STARTCHAR 00EA
ENCODING 234
SWIDTH 552 0
DWIDTH 23 0
BBX 19 32 2 -1
BITMAP
00F000
01F800
03FC00
039C00
070E00
0E0700
000000
000000
01F800
0FFE00
1FFF00
3F1F80
3C07C0
7803C0
7001E0
F001E0
F001E0
E000E0
FFFFE0
FFFFE0
FFFFE0
E00000
E00000
F00000
F001E0
F001E0
7803C0
7C07C0
3F0F80
1FFF00
0FFE00
03F800
ENDCHAR
STARTCHAR 00EB
ENCODING 235
SWIDTH 552 0
DWIDTH 23 0
BBX 19 31 2 -1
BITMAP
0F9E00
0F9E00
0F9E00
0F9E00
000000
000000
000000
01F800
0FFE00
1FFF00
3F1F80
3C07C0
7803C0
7001E0
F001E0
F001E0
E000E0
FFFFE0
FFFFE0
FFFFE0
E00000
E00000
F00000
F001E0
F001E0
7803C0
7C07C0
3F0F80
1FFF00
0FFE00
03F800
ENDCHAR
STARTCHAR 00EC
ENCODING 236
SWIDTH 288 0
DWIDTH 12 0
BBX 8 31 0 0
BITMAP
F8
78
3C
1E
0E
07
00
00
00
0E
0E
0E
0E
0E
0E
0E
0E
0E
0E
0E
0E
0E
0E
0E
0E
0E
0E
0E
0E
0E
0E
ENDCHAR
STARTCHAR 00ED
ENCODING 237
SWIDTH 288 0
DWIDTH 12 0
BBX 8 31 3 0
BITMAP
1F
1E
3C
78
70
E0
00
00
00
70
70
70
70
70
70
70
70
70
70
70
70
70
70
70
70
70
70
70
70
70
70
ENDCHAR
STARTCHAR 00EE
ENCODING 238
SWIDTH 288 0
DWIDTH 12 0
BBX 11 31 0 0
BITMAP
1F00
1F80
3B80
79C0
70E0
E0E0
0000
0000
0000
0E00
0E00
0E00
0E00
0E00
0E00
0E00
0E00
0E00
0E00
0E00
0E00
0E00
0E00
0E00
0E00
0E00
0E00
0E00
0E00
0E00
0E00
ENDCHAR
STARTCHAR 00EF
ENCODING 239
SWIDTH 288 0
DWIDTH 12 0
BBX 11 30 0 0
BITMAP
F1E0
F1E0
F1E0
F1E0
0000
0000
0000
0000
0E00
0E00
0E00
0E00
0E00
0E00
0E00
0E00
0E00
0E00
0E00
0E00
0E00
0E00
0E00
0E00
0E00
0E00
0E00
0E00
0E00
0E00
ENDCHAR
STARTCHAR 00F0
ENCODING 240
SWIDTH 552 0
DWIDTH 23 0
BBX 19 33 2 -1
BITMAP
100000
3C1800
3F7C00
0FF000
07C000
1FF000
3CF800
007C00
003E00
03FE00
0FFF00
1FFF80
3E1F80
7C07C0
7803C0
F001E0
F001E0
F001E0
E001E0
E000E0
E000E0
E000E0
E000E0
E001E0
F001E0
F001E0
F001E0
7803C0
7C07C0
3F1F80
1FFF00
0FFE00
03F800
ENDCHAR
STARTCHAR 00F1
ENCODING 241
SWIDTH 552 0
DWIDTH 23 0
BBX 17 31 3 0
BITMAP
0F8E00
1FFE00
1FFC00
38FC00
000000
000000
000000
000000
00FC00
E3FE00
E7FF00
EE1F80
FC0780
F80780
F00380
F00380
F00380
F00380
E00380
E00380
E00380
E00380
E00380
E00380
E00380
E00380
E00380
E00380
E00380
E00380
E00380
ENDCHAR
STARTCHAR 00F2
ENCODING 242
SWIDTH 552 0
DWIDTH 23 0
BBX 19 32 2 -1
BITMAP
0F8000
078000
03C000
01E000
00E000
007000
000000
000000
03F800
0FFE00
1FFF00
3F1F80
7C07C0
7803C0
F001E0
F001E0
F001E0
E001E0
E000E0
E000E0
E000E0
E000E0
E001E0
F001E0
F001E0
F001C0
7803C0
7C07C0
3F1F80
1FFF00
0FFE00
03F800
ENDCHAR
STARTCHAR 00F3
ENCODING 243
SWIDTH 552 0
DWIDTH 23 0
BBX 19 32 2 -1
BITMAP
003E00
007C00
007000
00E000
01C000
018000
000000
000000
03F800
0FFE00
1FFF00
3F1F80
7C07C0
7803C0
F001E0
F001E0
F001E0
E001E0
E000E0
E000E0
E000E0
E000E0
E001E0
F001E0
F001E0
F001C0
7803C0
7C07C0
3F1F80
1FFF00
0FFE00
03F800
ENDCHAR
STARTCHAR 00F4
ENCODING 244
SWIDTH 552 0
DWIDTH 23 0
BBX 19 32 2 -1
BITMAP
01F000
03F000
03B800
071C00
0E1C00
0C0E00
000000
000000
03F800
0FFE00
1FFF00
3F1F80
7C07C0
7803C0
F001E0
F001E0
F001E0
E001E0
E000E0
E000E0
E000E0
E000E0
E001E0
F001E0
F001E0
F001C0
7803C0
7C07C0
3F1F80
1FFF00
0FFE00
03F800
ENDCHAR
STARTCHAR 00F5
ENCODING 245
SWIDTH 552 0
DWIDTH 23 0
BBX 19 32 2 -1
BITMAP
07C700
0FFF00
1FFE00
1C7C00
000000
000000
000000
000000
03F800
0FFE00
1FFF00
3F1F80
7C07C0
7803C0
F001E0
F001E0
F001E0
E001E0
E000E0
E000E0
E000E0
E000E0
E001E0
F001E0
F001E0
F001C0
7803C0
7C07C0
3F1F80
1FFF00
0FFE00
03F800
ENDCHAR
STARTCHAR 00F6
ENCODING 246
SWIDTH 552 0
DWIDTH 23 0
BBX 19 31 2 -1
BITMAP
0F1E00
0F1E00
0F1E00
0F1E00
000000
000000
000000
03F800
0FFE00
1FFF00
3F1F80
7C07C0
7803C0
F001E0
F001E0
F001E0
E001E0
E000E0
E000E0
E000E0
E000E0
E001E0
F001E0
F001E0
F001C0
7803C0
7C07C0
3F1F80
1FFF00
0FFE00
03F800
ENDCHAR
STARTCHAR 00F7
ENCODING 247
SWIDTH 576 0
DWIDTH 24 0
BBX 20 20 2 0
BITMAP
00F000
00F000
00F000
00F000
000000
000000
000000
000000
000000
FFFFF0
FFFFF0
FFFFF0
000000
000000
000000
000000
00F000
00F000
00F000
00F000
ENDCHAR
STARTCHAR 00F8
ENCODING 248
SWIDTH 600 0
DWIDTH 25 0
BBX 21 24 1 -1
BITMAP
01FC10
07FF38
0FFFF0
1F8FE0
3E03E0
3C01E0
7803F0
7807F0
780EF0
701CF0
701870
703070
706070
70C070
71C0F0
7B80F0
7F00F0
7E00E0
3C01E0
3E03E0
3F8FC0
7FFF80
E7FF00
C1FC00
ENDCHAR
STARTCHAR 00F9
ENCODING 249
SWIDTH 552 0
DWIDTH 23 0
BBX 17 32 3 -1
BITMAP
1E0000
0F0000
078000
038000
01C000
00E000
000000
000000
000000
E00380
E00380
E00380
E00380
E00380
E00380
E00380
E00380
E00380
E00380
E00380
E00380
E00380
E00380
E00780
E00780
E00780
F00F80
F00F80
FC3F80
7FFB80
3FF380
0FC000
ENDCHAR
STARTCHAR 00FA
ENCODING 250
SWIDTH 552 0
DWIDTH 23 0
BBX 17 32 3 -1
BITMAP
007C00
00F800
00F000
01E000
03C000
038000
000000
000000
000000
E00380
E00380
E00380
E00380
E00380
E00380
E00380
E00380
E00380
E00380
E00380
E00380
E00380
E00380
E00780
E00780
E00780
F00F80
F00F80
FC3F80
7FFB80
3FF380
0FC000
ENDCHAR
STARTCHAR 00FB
ENCODING 251
SWIDTH 552 0
DWIDTH 23 0
BBX 17 32 3 -1
BITMAP
03E000
03E000
077000
0E7800
0E3800
1C1C00
000000
000000
000000
E00380
E00380
E00380
E00380
E00380
E00380
E00380
E00380
E00380
E00380
E00380
E00380
E00380
E00380
E00780
E00780
E00780
F00F80
F00F80
FC3F80
7FFB80
3FF380
0FC000
ENDCHAR
STARTCHAR 00FC
ENCODING 252
SWIDTH 552 0
DWIDTH 23 0
BBX 17 31 3 -1
BITMAP
1E3C00
1E3C00
1E3C00
1E3C00
000000
000000
000000
000000
E00380
E00380
E00380
E00380
E00380
E00380
E00380
E00380
E00380
E00380
E00380
E00380
E00380
E00380
E00780
E00780
E00780
F00F80
F00F80
FC3F80
7FFB80
3FF380
0FC000
ENDCHAR
STARTCHAR 00FD
ENCODING 253
SWIDTH 504 0
DWIDTH 21 0
BBX 19 40 1 -9
BITMAP
003E00
007800
007000
00E000
01C000
018000
000000
000000
000000
F001E0
F001C0
7003C0
7803C0
780380
380780
3C0780
3C0700
1C0F00
1E0E00
1E1E00
0E1E00
0F1C00
0F3C00
073C00
07B800
07F800
03F000
03F000
03F000
01E000
01E000
01E000
01C000
03C000
03C000
078000
5F8000
7F0000
7E0000
7C0000
ENDCHAR
STARTCHAR 00FE
ENCODING 254
SWIDTH 552 0
DWIDTH 23 0
BBX 20 39 2 -9
BITMAP
F00000
F00000
F00000
F00000
F00000
F00000
F00000
F0FC00
F3FE00
FFFF80
FF1F80
FC07C0
F803E0
F801E0
F001E0
F000E0
F000F0
F000F0
F000F0
F000F0
F000F0
F000F0
F000E0
F001E0
F801E0
FC03E0
FC07C0
FF1F80
FFFF80
F7FE00
F1F800
F00000
F00000
F00000
F00000
F00000
F00000
F00000
F00000
ENDCHAR
STARTCHAR 00FF
ENCODING 255
SWIDTH 504 0
DWIDTH 21 0
BBX 19 39 1 -9
BITMAP
0F3E00
0F3E00
0F3E00
0F3E00
000000
000000
000000
000000
F001E0
F001C0
7003C0
7803C0
780380
380780
3C0780
3C0700
1C0F00
1E0E00
1E1E00
0E1E00
0F1C00
0F3C00
073C00
07B800
07F800
03F000
03F000
03F000
01E000
01E000
01E000
01C000
03C000
03C000
078000
5F8000
7F0000
7E0000
7C0000
ENDCHAR
STARTCHAR 0100
ENCODING 256
SWIDTH 672 0
DWIDTH 28 0
BBX 26 37 1 0
BITMAP
01FFE000
01FFE000
01FFE000
00000000
00000000
00000000
00000000
003F0000
003F0000
003F0000
007F8000
007F8000
0077C000
00F3C000
00F3C000
01E3E000
01E1E000
01E1E000
03C0F000
03C0F000
03C0F000
07807800
07807800
07007800
0F003C00
0FFFFC00
1FFFFC00
1FFFFE00
1E001E00
3C001F00
3C000F00
3C000F00
78000F80
78000780
78000780
F00007C0
F00003C0
ENDCHAR
STARTCHAR 0101
ENCODING 257
SWIDTH 552 0
DWIDTH 23 0
BBX 20 31 2 -1
BITMAP
0FFE00
0FFE00
0FFE00
000000
000000
000000
000000
03F800
1FFF00
3FFF80
3E0F80
7807C0
7803C0
7003C0
0003C0
0003C0
0007C0
01FFC0
1FFFC0
3FFBC0
7E03C0
F803C0
F003C0
E003C0
E003C0
F007C0
F00FC0
F83FC0
7FFFF0
3FF1F0
0FC0F0
ENDCHAR
STARTCHAR 0102
ENCODING 258
SWIDTH 672 0
DWIDTH 28 0
BBX 26 39 1 0
BITMAP
01806000
0180E000
01C0E000
01FFC000
00FFC000
003F0000
00000000
00000000
00000000
003F0000
003F0000
003F0000
007F8000
007F8000
0077C000
00F3C000
00F3C000
01E3E000
01E1E000
01E1E000
03C0F000
03C0F000
03C0F000
07807800
07807800
07007800
0F003C00
0FFFFC00
1FFFFC00
1FFFFE00
1E001E00
3C001F00
3C000F00
3C000F00
78000F80
78000780
78000780
F00007C0
F00003C0
ENDCHAR
STARTCHAR 0103
ENCODING 259
SWIDTH 552 0
DWIDTH 23 0
BBX 20 32 2 -1
BITMAP
1C0700
1C0700
0E0E00
0FFE00
07FC00
01F000
000000
000000
03F800
1FFF00
3FFF80
3E0F80
7807C0
7803C0
7003C0
0003C0
0003C0
0007C0
01FFC0
1FFFC0
3FFBC0
7E03C0
F803C0
F003C0
E003C0
E003C0
F007C0
F00FC0
F83FC0
7FFFF0
3FF1F0
0FC0F0
ENDCHAR
STARTCHAR 0104
ENCODING 260
SWIDTH 672 0
DWIDTH 28 0
BBX 28 39 1 -9
BITMAP
003F0000
003F0000
003F0000
007F8000
007F8000
0077C000
00F3C000
00F3C000
01E3E000
01E1E000
01E1E000
03C0F000
03C0F000
03C0F000
07807800
07807800
07007800
0F003C00
0FFFFC00
1FFFFC00
1FFFFE00
1E001E00
3C001F00
3C000F00
3C000F00
78000F80
78000780
78000780
F00007C0
F00003C0
00000380
00000700
00000E00
00001C00
00001C00
00001C00
00001E00
00000FF0
000003F0
ENDCHAR
STARTCHAR 0105
ENCODING 261
SWIDTH 552 0
DWIDTH 23 0
BBX 23 32 2 -9
BITMAP
03F800
0FFF00
3FFF80
3E0F80
7807C0
7803C0
7003C0
0003C0
0003C0
0007C0
01FFC0
1FFFC0
3FFBC0
7E03C0
F803C0
F003C0
E003C0
E003C0
F007C0
F00FC0
F83FC0
7FFFF0
3FF1F0
0FC0F0
0000E0
0001C0
000380
000380
000380
0001C0
0001FE
00007E
ENDCHAR
STARTCHAR 0106
ENCODING 262
SWIDTH 720 0
DWIDTH 30 0
BBX 26 40 2 -1
BITMAP
0003E000
0003C000
00078000
000F0000
000E0000
001C0000
00000000
00000000
003FC000
01FFF000
03FFFC00
07FBFE00
0F803F00
1F000F00
3E000F80
3C000780
78000780
780003C0
78000000
70000000
F0000000
F0000000
F0000000
F0000000
F0000000
F0000000
F0000000
F0000000
F00003C0
780003C0
780003C0
7C0007C0
3C000780
3E000F80
1F000F00
0F803F00
0FF9FE00
03FFFC00
01FFF000
003FC000
ENDCHAR
STARTCHAR 0107
ENCODING 263
SWIDTH 504 0
DWIDTH 21 0
BBX 19 32 1 -1
BITMAP
001F00
003E00
003800
007000
00E000
00C000
000000
000000
01F800
07FE00
0FFF80
1F0F80
3C07C0
3C03C0
7801C0
7801E0
700000
F00000
F00000
F00000
F00000
F00000
F00000
7001E0
7801E0
7801E0
7C03C0
3C03C0
1F0F80
1FFF00
07FE00
01F800
ENDCHAR
STARTCHAR 0108
ENCODING 264
SWIDTH 720 0
DWIDTH 30 0
BBX 26 40 2 -1
BITMAP
001F0000
003F8000
003B8000
0071C000
0060E000
00E06000
00000000
00000000
003FC000
01FFF000
03FFFC00
07FBFE00
0F803F00
1F000F00
3E000F80
3C000780
78000780
780003C0
78000000
70000000
F0000000
F0000000
F0000000
F0000000
F0000000
F0000000
F0000000
F0000000
F00003C0
780003C0
780003C0
7C0007C0
3C000780
3E000F80
1F000F00
0F803F00
0FF9FE00
03FFFC00
01FFF000
003FC000
ENDCHAR
STARTCHAR 0109
ENCODING 265
SWIDTH 504 0
DWIDTH 21 0
BBX 19 32 1 -1
BITMAP
00F000
01F800
03FC00
039C00
070E00
0E0700
000000
000000
01F800
07FE00
0FFF80
1F0F80
3C07C0
3C03C0
7801C0
7801E0
700000
F00000
F00000
F00000
F00000
F00000
F00000
7001E0
7801E0
7801E0
7C03C0
3C03C0
1F0F80
1FFF00
07FE00
01F800
ENDCHAR
STARTCHAR 010A
ENCODING 266
SWIDTH 720 0
DWIDTH 30 0
BBX 26 39 2 -1
BITMAP
000F0000
000F0000
000F0000
000F0000
00000000
00000000
00000000
003FC000
01FFF000
03FFFC00
07FBFE00
0F803F00
1F000F00
3E000F80
3C000780
78000780
780003C0
78000000
70000000
F0000000
F0000000
F0000000
F0000000
F0000000
F0000000
F0000000
F0000000
F00003C0
780003C0
780003C0
7C0007C0
3C000780
3E000F80
1F000F00
0F803F00
0FF9FE00
03FFFC00
01FFF000
003FC000
ENDCHAR
STARTCHAR 010B
ENCODING 267
SWIDTH 504 0
DWIDTH 21 0
BBX 19 32 1 -1
BITMAP
00F000
00F000
00F000
00F000
000000
000000
000000
000000
01F800
07FE00
0FFF80
1F0F80
3C07C0
3C03C0
7801C0
7801E0
700000
F00000
F00000
F00000
F00000
F00000
F00000
7001E0
7801E0
7801E0
7C03C0
3C03C0
1F0F80
1FFF00
07FE00
01F800
ENDCHAR
STARTCHAR 010C
ENCODING 268
SWIDTH 720 0
DWIDTH 30 0
BBX 26 40 2 -1
BITMAP
00E06000
0070E000
0039C000
003F8000
001F8000
000F0000
00000000
00000000
003FC000
01FFF000
03FFFC00
07FBFE00
0F803F00
1F000F00
3E000F80
3C000780
78000780
780003C0
78000000
70000000
F0000000
F0000000
F0000000
F0000000
F0000000
F0000000
F0000000
F0000000
F00003C0
780003C0
780003C0
7C0007C0
3C000780
3E000F80
1F000F00
0F803F00
0FF9FE00
03FFFC00
01FFF000
003FC000
ENDCHAR
STARTCHAR 010D
ENCODING 269
SWIDTH 504 0
DWIDTH 21 0
BBX 19 32 1 -1
BITMAP
0E0700
070E00
039C00
03FC00
01F800
00F000
000000
000000
01F800
07FE00
0FFF80
1F0F80
3C07C0
3C03C0
7801C0
7801E0
700000
F00000
F00000
F00000
F00000
F00000
F00000
7001E0
7801E0
7801E0
7C03C0
3C03C0
1F0F80
1FFF00
07FE00
01F800
ENDCHAR
STARTCHAR 010E
ENCODING 270
SWIDTH 720 0
DWIDTH 30 0
BBX 24 39 4 0
BITMAP
0E0700
070E00
039E00
039C00
01F800
01F800
000000
000000
000000
FFFE00
FFFFC0
FFFFE0
F00FF0
F001F8
F0007C
F0003C
F0003E
F0001E
F0001E
F0001E
F0000F
F0000F
F0000F
F0000F
F0000F
F0000F
F0000F
F0000F
F0001E
F0001E
F0001E
F0003C
F0003C
F0007C
F000F8
F00FF0
FFFFE0
FFFF80
FFFE00
ENDCHAR
STARTCHAR 010F
ENCODING 271
SWIDTH 648 0
DWIDTH 27 0
BBX 26 31 1 -1
BITMAP
0000F3C0
0000F3C0
0000F3C0
0000F3C0
0000F0C0
0000F0C0
0000F180
01F8F380
07FCF000
1FFFF000
3F0FF000
3E07F000
7C03F000
7801F000
7001F000
F000F000
F000F000
F000F000
F000F000
F000F000
F000F000
F000F000
F000F000
7801F000
7801F000
7C03F000
3E03F000
3F8F7000
1FFE7000
0FFC7000
03F80000
ENDCHAR
STARTCHAR 0110
ENCODING 272
SWIDTH 720 0
DWIDTH 30 0
BBX 27 30 1 0
BITMAP
1FFFC000
1FFFF800
1FFFFC00
1E01FE00
1E003F00
1E000F80
1E000780
1E0007C0
1E0003C0
1E0003C0
1E0003C0
1E0001E0
1E0001E0
FFFC01E0
FFFC01E0
FFFC01E0
1E0001E0
1E0001E0
1E0001E0
1E0003C0
1E0003C0
1E0003C0
1E000780
1E000780
1E000F80
1E001F00
1E01FE00
1FFFFC00
1FFFF000
1FFFC000
ENDCHAR
STARTCHAR 0111
ENCODING 273
SWIDTH 552 0
DWIDTH 23 0
BBX 22 31 1 -1
BITMAP
0000F0
0000F0
0000F0
003FFC
003FFC
0000F0
0000F0
01F8F0
07FCF0
1FFEF0
3F9FF0
3E07F0
7C03F0
7801F0
7801F0
F000F0
F000F0
F000F0
F000F0
F000F0
F000F0
F000F0
F000F0
7801F0
7801F0
7C03F0
3E07F0
1F9FF0
1FFFF0
07FCF0
01F000
ENDCHAR
STARTCHAR 0112
ENCODING 274
SWIDTH 672 0
DWIDTH 28 0
BBX 22 37 4 0
BITMAP
07FF00
07FF00
07FF00
000000
000000
000000
000000
FFFFF8
FFFFF8
FFFFF8
F00000
F00000
F00000
F00000
F00000
F00000
F00000
F00000
F00000
F00000
FFFFF0
FFFFF0
FFFFF0
F00000
F00000
F00000
F00000
F00000
F00000
F00000
F00000
F00000
F00000
F00000
FFFFFC
FFFFFC
FFFFFC
ENDCHAR
STARTCHAR 0113
ENCODING 275
SWIDTH 552 0
DWIDTH 23 0
BBX 19 31 2 -1
BITMAP
0FFF00
0FFF00
0FFF00
000000
000000
000000
000000
01F800
0FFE00
1FFF00
3F1F80
3C07C0
7803C0
7001E0
F001E0
F001E0
E000E0
FFFFE0
FFFFE0
FFFFE0
E00000
E00000
F00000
F001E0
F001E0
7803C0
7C07C0
3F0F80
1FFF00
0FFE00
03F800
ENDCHAR
STARTCHAR 0114
ENCODING 276
SWIDTH 672 0
DWIDTH 28 0
BBX 22 39 4 0
BITMAP
0E0380
0E0300
0F0700
07FF00
03FE00
01F800
000000
000000
000000
FFFFF8
FFFFF8
FFFFF8
F00000
F00000
F00000
F00000
F00000
F00000
F00000
F00000
F00000
F00000
FFFFF0
FFFFF0
FFFFF0
F00000
F00000
F00000
F00000
F00000
F00000
F00000
F00000
F00000
F00000
F00000
FFFFFC
FFFFFC
FFFFFC
ENDCHAR
STARTCHAR 0115
ENCODING 277
SWIDTH 552 0
DWIDTH 23 0
BBX 19 32 2 -1
BITMAP
0C0300
0E0700
0F0F00
07FE00
07FC00
01F800
000000
000000
01F800
0FFE00
1FFF00
3F1F80
3C07C0
7803C0
7001E0
F001E0
F001E0
E000E0
FFFFE0
FFFFE0
FFFFE0
E00000
E00000
F00000
F001E0
F001E0
7803C0
7C07C0
3F0F80
1FFF00
0FFE00
03F800
ENDCHAR
STARTCHAR 0116
ENCODING 278
SWIDTH 672 0
DWIDTH 28 0
BBX 22 38 4 0
BITMAP
00F800
00F800
00F800
00F800
000000
000000
000000
000000
FFFFF8
FFFFF8
FFFFF8
F00000
F00000
F00000
F00000
F00000
F00000
F00000
F00000
F00000
F00000
FFFFF0
FFFFF0
FFFFF0
F00000
F00000
F00000
F00000
F00000
F00000
F00000
F00000
F00000
F00000
F00000
FFFFFC
FFFFFC
FFFFFC
ENDCHAR
STARTCHAR 0117
ENCODING 279
SWIDTH 552 0
DWIDTH 23 0
BBX 19 32 2 -1
BITMAP
00F000
00F000
00F000
00F000
000000
000000
000000
000000
01F800
0FFE00
1FFF00
3F1F80
3C07C0
7803C0
7001E0
F001E0
F001E0
E000E0
FFFFE0
FFFFE0
FFFFE0
E00000
E00000
F00000
F001E0
F001E0
7803C0
7C07C0
3F0F80
1FFF00
0FFE00
03F800
ENDCHAR
STARTCHAR 0118
ENCODING 280
SWIDTH 672 0
DWIDTH 28 0
BBX 23 39 4 -9
BITMAP
FFFFF8
FFFFF8
FFFFF8
F00000
F00000
F00000
F00000
F00000
F00000
F00000
F00000
F00000
F00000
FFFFF0
FFFFF0
FFFFF0
F00000
F00000
F00000
F00000
F00000
F00000
F00000
F00000
F00000
F00000
F00000
FFFFFC
FFFFFC
FFFFFC
000038
0000E0
0001C0
0001C0
0001C0
0001C0
0001E0
0000FE
00003E
ENDCHAR
STARTCHAR 0119
ENCODING 281
SWIDTH 552 0
DWIDTH 23 0
BBX 19 32 2 -9
BITMAP
01F800
0FFE00
1FFF00
3F1F80
3C07C0
7803C0
7001E0
F001E0
F000E0
E000E0
FFFFE0
FFFFE0
FFFFE0
E00000
E00000
F00000
F001E0
F001E0
7803C0
7C03C0
3F0F80
1FFF00
0FFF00
03FE00
001C00
001800
003800
003800
003800
003C00
001FC0
0007C0
ENDCHAR
STARTCHAR 011A
ENCODING 282
SWIDTH 672 0
DWIDTH 28 0
BBX 22 39 4 0
BITMAP
060700
070700
038E00
03DC00
01FC00
00F800
000000
000000
000000
FFFFF8
FFFFF8
FFFFF8
F00000
F00000
F00000
F00000
F00000
F00000
F00000
F00000
F00000
F00000
FFFFF0
FFFFF0
FFFFF0
F00000
F00000
F00000
F00000
F00000
F00000
F00000
F00000
F00000
F00000
F00000
FFFFFC
FFFFFC
FFFFFC
ENDCHAR
STARTCHAR 011B
ENCODING 283
SWIDTH 552 0
DWIDTH 23 0
BBX 19 32 2 -1
BITMAP
0E0700
070E00
039C00
03FC00
01F800
00F000
000000
000000
01F800
0FFE00
1FFF00
3F1F80
3C07C0
7803C0
7001E0
F001E0
F001E0
E000E0
FFFFE0
FFFFE0
FFFFE0
E00000
E00000
F00000
F001E0
F001E0
7803C0
7C07C0
3F0F80
1FFF00
0FFE00
03F800
ENDCHAR
STARTCHAR 011C
ENCODING 284
SWIDTH 768 0
DWIDTH 32 0
BBX 28 40 2 -1
BITMAP
000F8000
001F8000
003DC000
0039C000
0070E000
00E07000
00000000
00000000
003FE000
00FFF800
03FFFE00
07FDFF00
0FC01F80
1F0007C0
3E0003C0
3C0003E0
7C0001E0
780001E0
78000000
F0000000
F0000000
F0000000
F0000000
F001FFF0
F001FFF0
F001FFF0
F00000F0
F00000F0
F00000F0
780000F0
780000F0
7C0001F0
3C0001F0
3E0003F0
1F0007F0
0FC01FF0
07FCFEF0
03FFFC70
01FFF070
003F8000
ENDCHAR
STARTCHAR 011D
ENCODING 285
SWIDTH 552 0
DWIDTH 23 0
BBX 19 40 1 -9
BITMAP
00F800
01F800
01DC00
039E00
070E00
070700
000000
000000
01F000
07FCE0
0FFEE0
1F1EE0
3C07E0
3C03E0
7801E0
7801E0
7001E0
7001E0
7001E0
F001E0
F001E0
F001E0
7001E0
7001E0
7801E0
7801E0
3C03E0
3C07E0
1F1FE0
0FFDE0
07F9E0
01F1E0
0001E0
0001E0
7801C0
3C03C0
3E0780
1FFF00
0FFE00
03F800
ENDCHAR
STARTCHAR 011E
ENCODING 286
SWIDTH 768 0
DWIDTH 32 0
BBX 28 40 2 -1
BITMAP
00E03800
00603800
00707000
007FF000
003FE000
000F8000
00000000
00000000
003FE000
00FFF800
03FFFE00
07FDFF00
0FC01F80
1F0007C0
3E0003C0
3C0003E0
7C0001E0
780001E0
78000000
F0000000
F0000000
F0000000
F0000000
F001FFF0
F001FFF0
F001FFF0
F00000F0
F00000F0
F00000F0
780000F0
780000F0
7C0001F0
3C0001F0
3E0003F0
1F0007F0
0FC01FF0
07FCFEF0
03FFFC70
01FFF070
003F8000
ENDCHAR
STARTCHAR 011F
ENCODING 287
SWIDTH 552 0
DWIDTH 23 0
BBX 19 40 1 -9
BITMAP
0E0300
0E0300
0F0700
07FE00
03FE00
00F800
000000
000000
01F000
07FCE0
0FFEE0
1F1EE0
3C07E0
3C03E0
7801E0
7801E0
7001E0
7001E0
7001E0
F001E0
F001E0
F001E0
7001E0
7001E0
7801E0
7801E0
3C03E0
3C07E0
1F1FE0
0FFDE0
07F9E0
01F1E0
0001E0
0001E0
7801C0
3C03C0
3E0780
1FFF00
0FFE00
03F800
ENDCHAR
STARTCHAR 0120
ENCODING 288
SWIDTH 768 0
DWIDTH 32 0
BBX 28 39 2 -1
BITMAP
000F0000
000F0000
000F0000
000F0000
00000000
00000000
00000000
003FE000
00FFF800
03FFFE00
07FDFF00
0FC01F80
1F0007C0
3E0003C0
3C0003E0
7C0001E0
780001E0
78000000
F0000000
F0000000
F0000000
F0000000
F001FFF0
F001FFF0
F001FFF0
F00000F0
F00000F0
F00000F0
780000F0
780000F0
7C0001F0
3C0001F0
3E0003F0
1F0007F0
0FC01FF0
07FCFEF0
03FFFC70
01FFF070
003F8000
ENDCHAR
STARTCHAR 0121
ENCODING 289
SWIDTH 552 0
DWIDTH 23 0
BBX 19 39 1 -9
BITMAP
00F000
00F000
00F000
00F000
000000
000000
000000
01F000
07FCE0
0FFEE0
1F1EE0
3C07E0
3C03E0
7801E0
7801E0
7001E0
7001E0
7001E0
F001E0
F001E0
F001E0
7001E0
7001E0
7801E0
7801E0
3C03E0
3C07E0
1F1FE0
0FFDE0
07F9E0
01F1E0
0001E0
0001E0
7801C0
3C03C0
3E0780
1FFF00
0FFE00
03F800
ENDCHAR
STARTCHAR 0122
ENCODING 290
SWIDTH 768 0
DWIDTH 32 0
BBX 28 43 2 -12
BITMAP
003FE000
00FFF800
03FFFE00
07FDFF00
0FC01F80
1F0007C0
3E0003C0
3C0003E0
7C0001E0
780001E0
78000000
F0000000
F0000000
F0000000
F0000000
F001FFF0
F001FFF0
F001FFF0
F00000F0
F00000F0
F00000F0
780000F0
780000F0
7C0001F0
3C0001F0
3E0003F0
1F0007F0
0FC01FF0
07FCFEF0
03FFFC70
01FFF070
003F8000
00000000
00000000
000F0000
000F0000
000F0000
000F0000
00030000
00030000
00030000
000E0000
000C0000
ENDCHAR
STARTCHAR 0123
ENCODING 291
SWIDTH 552 0
DWIDTH 23 0
BBX 19 43 1 -9
BITMAP
003000
006000
00C000
00C000
00C000
00F000
00F000
00F000
00F000
000000
000000
01F000
07FCE0
0FFEE0
1F1EE0
3C07E0
3C03E0
7801E0
7801E0
7001E0
7001E0
7001E0
F001E0
F001E0
F001E0
7001E0
7001E0
7801E0
7801E0
3C03E0
3C07E0
1F1FE0
0FFDE0
07F9E0
01F1E0
0001E0
0001E0
7801C0
3C03C0
3E0780
1FFF00
0FFE00
03F800
ENDCHAR
STARTCHAR 0124
ENCODING 292
SWIDTH 720 0
DWIDTH 30 0
BBX 24 39 3 0
BITMAP
003E00
003E00
007F00
00F780
00E380
01C1C0
000000
000000
000000
F0000F
F0000F
F0000F
F0000F
F0000F
F0000F
F0000F
F0000F
F0000F
F0000F
F0000F
F0000F
F0000F
FFFFFF
FFFFFF
FFFFFF
F0000F
F0000F
F0000F
F0000F
F0000F
F0000F
F0000F
F0000F
F0000F
F0000F
F0000F
F0000F
F0000F
F0000F
ENDCHAR
STARTCHAR 0125
ENCODING 293
SWIDTH 552 0
DWIDTH 23 0
BBX 21 39 -1 0
BITMAP
0F0000
1F8000
3F8000
39C000
71C000
E0E000
000000
000000
000000
0E0000
0E0000
0E0000
0E0000
0E0000
0E0000
0E0000
0E1FC0
0E3FE0
0EFFF0
0EE1F8
0FC078
0F8078
0F0038
0F0038
0F0038
0E0038
0E0038
0E0038
0E0038
0E0038
0E0038
0E0038
0E0038
0E0038
0E0038
0E0038
0E0038
0E0038
0E0038
ENDCHAR
STARTCHAR 0126
ENCODING 294
SWIDTH 720 0
DWIDTH 30 0
BBX 30 30 0 0
BITMAP
1E0001E0
1E0001E0
1E0001E0
1E0001E0
1E0001E0
1E0001E0
FFFFFFFC
FFFFFFFC
FFFFFFFC
1E0001E0
1E0001E0
1E0001E0
1E0001E0
1FFFFFE0
1FFFFFE0
1FFFFFE0
1E0001E0
1E0001E0
1E0001E0
1E0001E0
1E0001E0
1E0001E0
1E0001E0
1E0001E0
1E0001E0
1E0001E0
1E0001E0
1E0001E0
1E0001E0
1E0001E0
ENDCHAR
STARTCHAR 0127
ENCODING 295
SWIDTH 552 0
DWIDTH 23 0
BBX 20 30 0 0
BITMAP
1C0000
1C0000
1C0000
FFFE00
FFFE00
1C0000
1C0000
1C3F80
1C7FC0
1DFFE0
1DC3F0
1F80F0
1F00F0
1E0070
1E0070
1E0070
1C0070
1C0070
1C0070
1C0070
1C0070
1C0070
1C0070
1C0070
1C0070
1C0070
1C0070
1C0070
1C0070
1C0070
ENDCHAR
STARTCHAR 0128
ENCODING 296
SWIDTH 288 0
DWIDTH 12 0
BBX 13 38 -1 0
BITMAP
3818
7E38
7FF8
E3F0
C0C0
0000
0000
0000
0780
0780
0780
0780
0780
0780
0780
0780
0780
0780
0780
0780
0780
0780
0780
0780
0780
0780
0780
0780
0780
0780
0780
0780
0780
0780
0780
0780
0780
0780
ENDCHAR
STARTCHAR 0129
ENCODING 297
SWIDTH 288 0
DWIDTH 12 0
BBX 13 31 -1 0
BITMAP
3E38
7FF8
7FF0
E3F0
0000
0000
0000
0000
0000
0700
0700
0700
0700
0700
0700
0700
0700
0700
0700
0700
0700
0700
0700
0700
0700
0700
0700
0700
0700
0700
0700
ENDCHAR
STARTCHAR 012A
ENCODING 298
SWIDTH 288 0
DWIDTH 12 0
BBX 10 37 1 0
BITMAP
FFC0
FFC0
FFC0
0000
0000
0000
0000
1E00
1E00
1E00
1E00
1E00
1E00
1E00
1E00
1E00
1E00
1E00
1E00
1E00
1E00
1E00
1E00
1E00
1E00
1E00
1E00
1E00
1E00
1E00
1E00
1E00
1E00
1E00
1E00
1E00
1E00
ENDCHAR
STARTCHAR 012B
ENCODING 299
SWIDTH 288 0
DWIDTH 12 0
BBX 10 29 1 0
BITMAP
FFC0
FFC0
FFC0
0000
0000
0000
0000
1E00
1E00
1E00
1E00
1E00
1E00
1E00
1E00
1E00
1E00
1E00
1E00
1E00
1E00
1E00
1E00
1E00
1E00
1E00
1E00
1E00
1E00
ENDCHAR
STARTCHAR 012C
ENCODING 300
SWIDTH 288 0
DWIDTH 12 0
BBX 13 39 -1 0
BITMAP
E018
6038
7078
7FF0
3FE0
0FC0
0000
0000
0000
0780
0780
0780
0780
0780
0780
0780
0780
0780
0780
0780
0780
0780
0780
0780
0780
0780
0780
0780
0780
0780
0780
0780
0780
0780
0780
0780
0780
0780
0780
ENDCHAR
STARTCHAR 012D
ENCODING 301
SWIDTH 288 0
DWIDTH 12 0
BBX 12 31 0 0
BITMAP
C030
C070
F0F0
FFE0
7FC0
1F00
0000
0000
0000
0E00
0E00
0E00
0E00
0E00
0E00
0E00
0E00
0E00
0E00
0E00
0E00
0E00
0E00
0E00
0E00
0E00
0E00
0E00
0E00
0E00
0E00
ENDCHAR
STARTCHAR 012E
ENCODING 302
SWIDTH 288 0
DWIDTH 12 0
BBX 7 39 3 -9
BITMAP
78
78
78
78
78
78
78
78
78
78
78
78
78
78
78
78
78
78
78
78
78
78
78
78
78
78
78
78
78
78
38
70
E0
E0
E0
E0
F0
7E
3E
ENDCHAR
STARTCHAR 012F
ENCODING 303
SWIDTH 216 0
DWIDTH 9 0
BBX 7 39 1 -9
BITMAP
38
38
38
38
00
00
00
00
38
38
38
38
38
38
38
38
38
38
38
38
38
38
38
38
38
38
38
38
38
38
18
30
70
E0
E0
E0
F0
7E
3E
ENDCHAR
STARTCHAR 0130
ENCODING 304
SWIDTH 288 0
DWIDTH 12 0
BBX 4 38 4 0
BITMAP
F0
F0
F0
F0
00
00
00
00
F0
F0
F0
F0
F0
F0
F0
F0
F0
F0
F0
F0
F0
F0
F0
F0
F0
F0
F0
F0
F0
F0
F0
F0
F0
F0
F0
F0
F0
F0
ENDCHAR
STARTCHAR 0131
ENCODING 305
SWIDTH 288 0
DWIDTH 12 0
BBX 3 22 4 0
BITMAP
E0
E0
E0
E0
E0
E0
E0
E0
E0
E0
E0
E0
E0
E0
E0
E0
E0
E0
E0
E0
E0
E0
ENDCHAR
STARTCHAR 0132
ENCODING 306
SWIDTH 744 0
DWIDTH 31 0
BBX 23 31 4 -1
BITMAP
F0001E
F0001E
F0001E
F0001E
F0001E
F0001E
F0001E
F0001E
F0001E
F0001E
F0001E
F0001E
F0001E
F0001E
F0001E
F0001E
F0001E
F0001E
F0001E
F0001E
F3C01E
F3C01E
F3C01E
F3C01E
F3E01E
F1E01E
F1F03E
F1FCFC
F0FFF8
F07FF0
001FC0
ENDCHAR
STARTCHAR 0133
ENCODING 307
SWIDTH 456 0
DWIDTH 19 0
BBX 11 39 4 -9
BITMAP
E0E0
E0E0
E0E0
E0E0
0000
0000
0000
0000
E0E0
E0E0
E0E0
E0E0
E0E0
E0E0
E0E0
E0E0
E0E0
E0E0
E0E0
E0E0
E0E0
E0E0
E0E0
E0E0
E0E0
E0E0
E0E0
E0E0
E0E0
E0E0
00E0
00E0
00E0
00E0
00E0
01E0
0FE0
0FC0
0F00
ENDCHAR
STARTCHAR 0134
ENCODING 308
SWIDTH 504 0
DWIDTH 21 0
BBX 20 40 1 -1
BITMAP
000F00
001F80
001FC0
0039C0
0038E0
007070
000000
000000
000000
000780
000780
000780
000780
000780
000780
000780
000780
000780
000780
000780
000780
000780
000780
000780
000780
000780
000780
000780
000780
F00780
F00780
F00780
F00780
F00780
F00F00
F81F00
7E7E00
3FFE00
1FF800
07E000
ENDCHAR
STARTCHAR 0135
ENCODING 309
SWIDTH 216 0
DWIDTH 9 0
BBX 11 40 -1 -9
BITMAP
1F00
1F00
3B80
71C0
71C0
E0E0
0000
0000
0000
0E00
0E00
0E00
0E00
0E00
0E00
0E00
0E00
0E00
0E00
0E00
0E00
0E00
0E00
0E00
0E00
0E00
0E00
0E00
0E00
0E00
0E00
0E00
0E00
0E00
0E00
0E00
1E00
FE00
FC00
F800
ENDCHAR
STARTCHAR 0136
ENCODING 310
SWIDTH 672 0
DWIDTH 28 0
BBX 24 42 3 -12
BITMAP
F0001F
F0003E
F0007C
F000F8
F001F0
F003E0
F007C0
F00F80
F01F00
F03E00
F07C00
F0F800
F1F000
F3F800
F7FC00
FF3C00
FE3E00
FC1F00
F80F00
F00780
F007C0
F003C0
F001E0
F001F0
F000F8
F00078
F0007C
F0003E
F0001E
F0001F
000000
000000
000000
007C00
007C00
007C00
007C00
000C00
000C00
001800
003800
007000
ENDCHAR
STARTCHAR 0137
ENCODING 311
SWIDTH 504 0
DWIDTH 21 0
BBX 19 42 2 -12
BITMAP
F00000
F00000
F00000
F00000
F00000
F00000
F00000
F00000
F00780
F00F00
F01E00
F03C00
F07800
F0F000
F1E000
F3C000
F7E000
FFE000
FEF000
FCF000
F87800
F07C00
F03C00
F01E00
F01F00
F00F00
F00F80
F00780
F003C0
F003E0
000000
000000
000000
01E000
01E000
01E000
01E000
006000
006000
006000
01C000
018000
ENDCHAR
STARTCHAR 0138
ENCODING 312
SWIDTH 504 0
DWIDTH 21 0
BBX 16 21 2 0
BITMAP
C00F
C01E
C03C
C078
C0F0
C1E0
C3C0
C780
CF00
DF80
FB80
F1C0
E0E0
C0E0
C070
C038
C038
C01C
C00E
C00F
C007
ENDCHAR
STARTCHAR 0139
ENCODING 313
SWIDTH 552 0
DWIDTH 23 0
BBX 19 39 3 0
BITMAP
0F0000
1E0000
3C0000
380000
700000
E00000
000000
000000
000000
F00000
F00000
F00000
F00000
F00000
F00000
F00000
F00000
F00000
F00000
F00000
F00000
F00000
F00000
F00000
F00000
F00000
F00000
F00000
F00000
F00000
F00000
F00000
F00000
F00000
F00000
F00000
FFFFE0
FFFFE0
FFFFE0
ENDCHAR
STARTCHAR 013A
ENCODING 314
SWIDTH 216 0
DWIDTH 9 0
BBX 8 39 3 0
BITMAP
1F
1E
3C
38
70
E0
00
00
00
E0
E0
E0
E0
E0
E0
E0
E0
E0
E0
E0
E0
E0
E0
E0
E0
E0
E0
E0
E0
E0
E0
E0
E0
E0
E0
E0
E0
E0
E0
ENDCHAR
STARTCHAR 013B
ENCODING 315
SWIDTH 552 0
DWIDTH 23 0
BBX 19 42 3 -12
BITMAP
F00000
F00000
F00000
F00000
F00000
F00000
F00000
F00000
F00000
F00000
F00000
F00000
F00000
F00000
F00000
F00000
F00000
F00000
F00000
F00000
F00000
F00000
F00000
F00000
F00000
F00000
F00000
FFFFE0
FFFFE0
FFFFE0
000000
000000
000000
00F000
00F000
00F000
00F000
003000
003000
002000
00E000
00C000
ENDCHAR
STARTCHAR 013C
ENCODING 316
SWIDTH 216 0
DWIDTH 9 0
BBX 4 42 3 -12
BITMAP
E0
E0
E0
E0
E0
E0
E0
E0
E0
E0
E0
E0
E0
E0
E0
E0
E0
E0
E0
E0
E0
E0
E0
E0
E0
E0
E0
E0
E0
E0
00
00
00
F0
F0
F0
F0
30
30
20
E0
C0
ENDCHAR
STARTCHAR 013D
ENCODING 317
SWIDTH 552 0
DWIDTH 23 0
BBX 19 30 3 0
BITMAP
F0F800
F0F800
F0F800
F0F800
F01800
F01000
F03000
F07000
F0E000
F00000
F00000
F00000
F00000
F00000
F00000
F00000
F00000
F00000
F00000
F00000
F00000
F00000
F00000
F00000
F00000
F00000
F00000
FFFFE0
FFFFE0
FFFFE0
ENDCHAR
STARTCHAR 013E
ENCODING 318
SWIDTH 288 0
DWIDTH 12 0
BBX 10 30 3 0
BITMAP
E3C0
E3C0
E3C0
E3C0
E0C0
E0C0
E180
E180
E300
E000
E000
E000
E000
E000
E000
E000
E000
E000
E000
E000
E000
E000
E000
E000
E000
E000
E000
E000
E000
E000
ENDCHAR
STARTCHAR 013F
ENCODING 319
SWIDTH 552 0
DWIDTH 23 0
BBX 19 30 3 0
BITMAP
F00000
F00000
F00000
F00000
F00000
F00000
F00000
F00000
F00000
F00000
F00000
F00000
F00000
F01E00
F01E00
F01E00
F01E00
F00000
F00000
F00000
F00000
F00000
F00000
F00000
F00000
F00000
F00000
FFFFE0
FFFFE0
FFFFE0
ENDCHAR
STARTCHAR 0140
ENCODING 320
SWIDTH 336 0
DWIDTH 14 0
BBX 11 30 3 0
BITMAP
F000
F000
F000
F000
F000
F000
F000
F000
F000
F000
F000
F000
F000
F3E0
F3E0
F3E0
F3E0
F000
F000
F000
F000
F000
F000
F000
F000
F000
F000
F000
F000
F000
ENDCHAR
STARTCHAR 0141
ENCODING 321
SWIDTH 552 0
DWIDTH 23 0
BBX 23 30 0 0
BITMAP
1E0000
1E0000
1E0000
1E0000
1E0000
1E0000
1E0000
1E0000
1E0000
1E0400
1E1C00
1E3C00
1EF800
1FE000
1FC000
1F8000
3E0000
FE0000
FE0000
DE0000
1E0000
1E0000
1E0000
1E0000
1E0000
1E0000
1E0000
1FFFFE
1FFFFE
1FFFFE
ENDCHAR
STARTCHAR 0142
ENCODING 322
SWIDTH 216 0
DWIDTH 9 0
BBX 9 30 0 0
BITMAP
1C00
1C00
1C00
1C00
1C00
1C00
1C00
1C00
1C00
1C00
1C00
1C80
1F80
1F00
1E00
7C00
FC00
DC00
9C00
1C00
1C00
1C00
1C00
1C00
1C00
1C00
1C00
1C00
1C00
1C00
ENDCHAR
STARTCHAR 0143
ENCODING 323
SWIDTH 720 0
DWIDTH 30 0
BBX 24 39 3 0
BITMAP
0007C0
000F80
000F00
001E00
003C00
003800
000000
000000
000000
F8000F
F8000F
FC000F
FE000F
FE000F
FF000F
FF800F
F7800F
F3C00F
F3E00F
F1E00F
F0F00F
F0F00F
F0780F
F03C0F
F03C0F
F01E0F
F01F0F
F00F0F
F0078F
F007CF
F003CF
F001EF
F001FF
F000FF
F0007F
F0007F
F0003F
F0001F
F0001F
ENDCHAR
STARTCHAR 0144
ENCODING 324
SWIDTH 552 0
DWIDTH 23 0
BBX 17 31 3 0
BITMAP
003C00
007800
00F000
00E000
01C000
038000
000000
000000
00FC00
E3FE00
E7FF00
EE1F80
FC0780
F80780
F00380
F00380
F00380
F00380
E00380
E00380
E00380
E00380
E00380
E00380
E00380
E00380
E00380
E00380
E00380
E00380
E00380
ENDCHAR
STARTCHAR 0145
ENCODING 325
SWIDTH 720 0
DWIDTH 30 0
BBX 24 42 3 -12
BITMAP
F8000F
F8000F
FC000F
FE000F
FE000F
FF000F
FF800F
F7800F
F3C00F
F3E00F
F1E00F
F0F00F
F0F00F
F0780F
F03C0F
F03C0F
F01E0F
F01F0F
F00F0F
F0078F
F007CF
F003CF
F001EF
F001FF
F000FF
F0007F
F0007F
F0003F
F0001F
F0001F
000000
000000
000000
007C00
007C00
007C00
007C00
000C00
000800
001800
003800
007000
ENDCHAR
STARTCHAR 0146
ENCODING 326
SWIDTH 552 0
DWIDTH 23 0
BBX 17 35 3 -12
BITMAP
00FC00
E3FE00
E7FF00
EE1F80
FC0780
F80780
F00380
F00380
F00380
F00380
E00380
E00380
E00380
E00380
E00380
E00380
E00380
E00380
E00380
E00380
E00380
E00380
E00380
000000
000000
000000
01E000
01E000
01E000
01E000
006000
006000
00C000
01C000
018000
ENDCHAR
STARTCHAR 0147
ENCODING 327
SWIDTH 720 0
DWIDTH 30 0
BBX 24 39 3 0
BITMAP
0381C0
01C380
00E780
00E700
007E00
007E00
000000
000000
000000
F8000F
F8000F
FC000F
FE000F
FE000F
FF000F
FF800F
F7800F
F3C00F
F3E00F
F1E00F
F0F00F
F0F00F
F0780F
F03C0F
F03C0F
F01E0F
F01F0F
F00F0F
F0078F
F007CF
F003CF
F001EF
F001FF
F000FF
F0007F
F0007F
F0003F
F0001F
F0001F
ENDCHAR
STARTCHAR 0148
ENCODING 328
SWIDTH 552 0
DWIDTH 23 0
BBX 17 31 3 0
BITMAP
1C1C00
0E1C00
0E3800
077000
03F000
03E000
000000
000000
00FC00
E3FE00
E7FF00
EE1F80
FC0780
F80780
F00380
F00380
F00380
F00380
E00380
E00380
E00380
E00380
E00380
E00380
E00380
E00380
E00380
E00380
E00380
E00380
E00380
ENDCHAR
STARTCHAR 0149
ENCODING 329
SWIDTH 600 0
DWIDTH 25 0
BBX 22 32 0 0
BITMAP
F80000
F80000
F80000
F80000
180000
100000
300000
700000
E00000
0007E0
071FF0
073FF8
0770FC
07E03C
07C03C
07801C
07801C
07801C
07801C
07001C
07001C
07001C
07001C
07001C
07001C
07001C
07001C
07001C
07001C
07001C
07001C
07001C
ENDCHAR
STARTCHAR 014A
ENCODING 330
SWIDTH 720 0
DWIDTH 30 0
BBX 22 44 4 -13
BITMAP
003F00
E0FFE0
E3FFF0
E7E7F8
EF00FC
EE007C
FC003C
F8003C
F8003C
F0001C
F0001C
F0001C
F0001C
F0001C
F0001C
F0001C
F0001C
F0001C
F0001C
F0001C
F0001C
F0001C
F0001C
F0001C
F0001C
F0001C
F0001C
F0001C
F0001C
F0001C
F0001C
00001C
00001C
00001C
00001C
00001C
00001C
00003C
00003C
00007C
0007FC
0007F8
0007F0
000300
ENDCHAR
STARTCHAR 014B
ENCODING 331
SWIDTH 552 0
DWIDTH 23 0
BBX 17 32 3 -9
BITMAP
00F800
E3FE00
E7FF00
EE0F80
FC0780
F80780
F00380
F00380
F00380
F00380
E00380
E00380
E00380
E00380
E00380
E00380
E00380
E00380
E00380
E00380
E00380
E00380
E00380
000380
000380
000380
000380
000380
000780
003F80
003F00
003E00
ENDCHAR
STARTCHAR 014C
ENCODING 332
SWIDTH 768 0
DWIDTH 32 0
BBX 29 39 2 -1
BITMAP
007FF000
007FF000
007FF000
00000000
00000000
00000000
00000000
003FC000
00FFF800
03FFFE00
07F9FF00
0F801F80
1F0007C0
3E0003C0
3C0001E0
780001F0
780000F0
F00000F0
F00000F0
F0000078
F0000078
F0000078
E0000078
E0000078
F0000078
F0000078
F0000078
F0000070
F00000F0
780000F0
780001E0
7C0001E0
3E0003C0
1F0007C0
0FC01F80
07F9FF00
03FFFE00
01FFF800
003FC000
ENDCHAR
STARTCHAR 014D
ENCODING 333
SWIDTH 552 0
DWIDTH 23 0
BBX 19 31 2 -1
BITMAP
0FFE00
0FFE00
0FFE00
000000
000000
000000
000000
03F800
0FFE00
1FFF00
3F1F80
7C07C0
7803C0
F001E0
F001E0
F001E0
E001E0
E000E0
E000E0
E000E0
E000E0
E001E0
F001E0
F001E0
F001C0
7803C0
7C07C0
3F1F80
1FFF00
0FFE00
03F800
ENDCHAR
STARTCHAR 014E
ENCODING 334
SWIDTH 768 0
DWIDTH 32 0
BBX 29 40 2 -1
BITMAP
00C03000
00E03000
00F07000
007FE000
003FE000
000F8000
00000000
00000000
003FC000
00FFF800
03FFFE00
07F9FF00
0F801F80
1F0007C0
3E0003C0
3C0001E0
780001F0
780000F0
F00000F0
F00000F0
F0000078
F0000078
F0000078
E0000078
E0000078
F0000078
F0000078
F0000078
F0000070
F00000F0
780000F0
780001E0
7C0001E0
3E0003C0
1F0007C0
0FC01F80
07F9FF00
03FFFE00
01FFF800
003FC000
ENDCHAR
STARTCHAR 014F
ENCODING 335
SWIDTH 552 0
DWIDTH 23 0
BBX 19 32 2 -1
BITMAP
1C0700
1C0600
1E0E00
0FFE00
07FC00
01F000
000000
000000
03F800
0FFE00
1FFF00
3F1F80
7C07C0
7803C0
F001E0
F001E0
F001E0
E001E0
E000E0
E000E0
E000E0
E000E0
E001E0
F001E0
F001E0
F001C0
7803C0
7C07C0
3F1F80
1FFF00
0FFE00
03F800
ENDCHAR
STARTCHAR 0150
ENCODING 336
SWIDTH 768 0
DWIDTH 32 0
BBX 29 40 2 -1
BITMAP
00078F80
000F1E00
001E1C00
001C3800
00387000
00706000
00000000
00000000
003FC000
00FFF800
03FFFE00
07F9FF00
0F801F80
1F0007C0
3E0003C0
3C0001E0
780001F0
780000F0
F00000F0
F00000F0
F0000078
F0000078
F0000078
E0000078
E0000078
F0000078
F0000078
F0000078
F0000070
F00000F0
780000F0
780001E0
7C0001E0
3E0003C0
1F0007C0
0FC01F80
07F9FF00
03FFFE00
01FFF800
003FC000
ENDCHAR
STARTCHAR 0151
ENCODING 337
SWIDTH 552 0
DWIDTH 23 0
BBX 19 32 2 -1
BITMAP
00F1E0
01E3C0
03C380
038700
070E00
0E0C00
000000
000000
03F800
0FFE00
1FFF00
3F1F80
7C07C0
7803C0
F001E0
F001E0
F001E0
E001E0
E000E0
E000E0
E000E0
E000E0
E001E0
F001E0
F001E0
F001C0
7803C0
7C07C0
3F1F80
1FFF00
0FFE00
03F800
ENDCHAR
STARTCHAR 0152
ENCODING 338
SWIDTH 1008 0
DWIDTH 42 0
BBX 38 32 2 -1
BITMAP
007F000000
01FFCFFFFC
07FFEFFFFC
0FE7EFFFFC
1F00FF0000
3E003F0000
3C001F0000
78001F0000
78000F0000
70000F0000
F0000F0000
F0000F0000
F0000F0000
F0000F0000
F0000FFFF8
F0000FFFF8
F0000FFFF8
F0000F0000
F0000F0000
F0000F0000
F0000F0000
F0000F0000
70000F0000
78000F0000
78001F0000
3C001F0000
3E003F0000
1F007F0000
0FE7FFFFFC
07FFEFFFFC
03FF8FFFFC
007E000000
ENDCHAR
STARTCHAR 0153
ENCODING 339
SWIDTH 936 0
DWIDTH 39 0
BBX 35 24 2 -1
BITMAP
03F801F800
0FFE07FE00
1FFF1FFF00
3F1FBF1F80
7C07FC07C0
7803F803C0
F001F001E0
F001F001E0
F001F000E0
E000F000E0
E000FFFFE0
E000FFFFE0
E000FFFFE0
E000E00000
F000E00000
F001F00000
F001F001E0
F001F001E0
7803F803C0
7C07FC03C0
3F1FBF0F80
1FFF1FFF00
0FFE0FFE00
03F803F800
ENDCHAR
STARTCHAR 0154
ENCODING 340
SWIDTH 720 0
DWIDTH 30 0
BBX 24 39 4 0
BITMAP
000F00
001E00
001C00
003800
007000
006000
008000
000000
000000
FFFFC0
FFFFF0
FFFFF8
F003FC
F0007E
F0003E
F0001E
F0001E
F0001E
F0001E
F0001E
F0003C
F0003C
F003F8
FFFFE0
FFFFE0
FFFFF8
F000FC
F0003C
F0003C
F0001C
F0001C
F0001C
F0001E
F0001E
F0001E
F0001E
F0001E
F0001F
F0001F
ENDCHAR
STARTCHAR 0155
ENCODING 341
SWIDTH 336 0
DWIDTH 14 0
BBX 10 31 3 0
BITMAP
03C0
0780
0F00
0E00
1C00
1800
0000
0000
01C0
E3C0
E7C0
EFC0
FE00
F800
F800
F000
F000
F000
E000
E000
E000
E000
E000
E000
E000
E000
E000
E000
E000
E000
E000
ENDCHAR
STARTCHAR 0156
ENCODING 342
SWIDTH 720 0
DWIDTH 30 0
BBX 24 42 4 -12
BITMAP
FFFFC0
FFFFF0
FFFFF8
F003FC
F0007E
F0003E
F0001E
F0001E
F0001E
F0001E
F0001E
F0003C
F0003C
F003F8
FFFFE0
FFFFE0
FFFFF8
F000FC
F0003C
F0003C
F0001C
F0001C
F0001C
F0001E
F0001E
F0001E
F0001E
F0001E
F0001F
F0001F
000000
000000
000000
007800
007800
007800
007800
000800
000800
001800
003800
007000
ENDCHAR
STARTCHAR 0157
ENCODING 343
SWIDTH 336 0
DWIDTH 14 0
BBX 10 35 3 -12
BITMAP
01C0
E3C0
E7C0
EFC0
FE00
F800
F800
F000
F000
F000
E000
E000
E000
E000
E000
E000
E000
E000
E000
E000
E000
E000
E000
0000
0000
0000
F000
F000
F000
F000
3000
3000
2000
E000
C000
ENDCHAR
STARTCHAR 0158
ENCODING 344
SWIDTH 720 0
DWIDTH 30 0
BBX 24 39 4 0
BITMAP
070380
038700
038E00
01DE00
00FC00
00F800
000000
000000
000000
FFFFC0
FFFFF0
FFFFF8
F003FC
F0007E
F0003E
F0001E
F0001E
F0001E
F0001E
F0001E
F0003C
F0003C
F003F8
FFFFE0
FFFFE0
FFFFF8
F000FC
F0003C
F0003C
F0001C
F0001C
F0001C
F0001E
F0001E
F0001E
F0001E
F0001E
F0001F
F0001F
ENDCHAR
STARTCHAR 0159
ENCODING 345
SWIDTH 336 0
DWIDTH 14 0
BBX 12 31 2 0
BITMAP
E070
70E0
39C0
3FC0
1F80
0F00
0000
0000
00E0
71E0
73E0
77E0
7F00
7C00
7C00
7800
7800
7800
7000
7000
7000
7000
7000
7000
7000
7000
7000
7000
7000
7000
7000
ENDCHAR
STARTCHAR 015A
ENCODING 346
SWIDTH 672 0
DWIDTH 28 0
BBX 24 40 2 -1
BITMAP
000780
000F00
001E00
001C00
003800
007000
000000
000000
00FF00
07FFC0
0FFFF0
1FC7F8
3E007C
3C003C
78003E
78001E
78001E
780000
780000
7C0000
3F0000
3FF000
1FFF00
07FFE0
00FFF8
000FFC
0000FE
00003E
00001F
F0000F
F0000F
F0000F
F0000F
78001E
7C001E
3E003C
3FE7FC
0FFFF8
07FFE0
00FF00
ENDCHAR
STARTCHAR 015B
ENCODING 347
SWIDTH 504 0
DWIDTH 21 0
BBX 18 32 1 -1
BITMAP
003E00
007C00
007800
00E000
01C000
018000
000000
000000
03F800
0FFE00
1FFF00
3E1F80
780780
780780
780380
780000
7C0000
7E0000
3FE000
1FFE00
07FF00
007F80
000FC0
0003C0
F003C0
F003C0
7803C0
7803C0
7F0F80
3FFF00
1FFE00
07F800
ENDCHAR
STARTCHAR 015C
ENCODING 348
SWIDTH 672 0
DWIDTH 28 0
BBX 24 40 2 -1
BITMAP
007C00
007E00
00EF00
01C700
01C380
038180
000000
000000
00FF00
07FFC0
0FFFF0
1FC7F8
3E007C
3C003C
78003E
78001E
78001E
780000
780000
7C0000
3F0000
3FF000
1FFF00
07FFE0
00FFF8
000FFC
0000FE
00003E
00001F
F0000F
F0000F
F0000F
F0000F
78001E
7C001E
3E003C
3FE7FC
0FFFF8
07FFE0
00FF00
ENDCHAR
STARTCHAR 015D
ENCODING 349
SWIDTH 504 0
DWIDTH 21 0
BBX 18 32 1 -1
BITMAP
01F000
03F000
03B800
071C00
0E1C00
0E0E00
000000
000000
03F800
0FFE00
1FFF00
3E1F80
780780
780780
780380
780000
7C0000
7E0000
3FE000
1FFE00
07FF00
007F80
000FC0
0003C0
F003C0
F003C0
7803C0
7803C0
7F0F80
3FFF00
1FFE00
07F800
ENDCHAR
STARTCHAR 015E
ENCODING 350
SWIDTH 672 0
DWIDTH 28 0
BBX 24 40 2 -9
BITMAP
00FF00
07FFE0
0FFFF0
1FC7F8
3E007C
3C003C
78001E
78001E
78001E
78001E
780000
7C0000
3F0000
3FF000
1FFE00
07FFE0
00FFF8
000FFC
0001FE
00003E
00001F
F0000F
F0000F
F0000F
F0000F
78000F
7C001E
3E003E
3FC1FC
1FFFF8
07FFF0
01FF80
003000
002800
007E00
000F00
000700
030F00
03FE00
00FC00
ENDCHAR
STARTCHAR 015F
ENCODING 351
SWIDTH 504 0
DWIDTH 21 0
BBX 18 32 1 -9
BITMAP
03F800
0FFE00
1FFF00
3E1F80
780780
780780
780380
780000
780000
7E0000
3FE000
1FFC00
07FF00
00FF80
000FC0
0003C0
0003C0
F003C0
7803C0
7803C0
7E0F80
3FFF00
1FFE00
07F800
018000
01C000
03F800
007800
003800
183800
1FF000
07E000
ENDCHAR
STARTCHAR 0160
ENCODING 352
SWIDTH 672 0
DWIDTH 28 0
BBX 24 40 2 -1
BITMAP
038180
01C380
00E700
00FE00
007E00
003C00
000000
000000
00FF00
07FFC0
0FFFF0
1FC7F8
3E007C
3C003C
78003E
78001E
78001E
780000
780000
7C0000
3F0000
3FF000
1FFF00
07FFE0
00FFF8
000FFC
0000FE
00003E
00001F
F0000F
F0000F
F0000F
F0000F
78001E
7C001E
3E003C
3FE7FC
0FFFF8
07FFE0
00FF00
ENDCHAR
STARTCHAR 0161
ENCODING 353
SWIDTH 504 0
DWIDTH 21 0
BBX 18 32 1 -1
BITMAP
0C0E00
0E1C00
073C00
03B800
03F000
01F000
000000
000000
03F800
0FFE00
1FFF00
3E1F80
780780
780780
780380
780000
7C0000
7E0000
3FE000
1FFE00
07FF00
007F80
000FC0
0003C0
F003C0
F003C0
7803C0
7803C0
7F0F80
3FFF00
1FFE00
07F800
ENDCHAR
STARTCHAR 0162
ENCODING 354
SWIDTH 600 0
DWIDTH 25 0
BBX 24 39 1 -9
BITMAP
FFFFFF
FFFFFF
FFFFFF
003C00
003C00
003C00
003C00
003C00
003C00
003C00
003C00
003C00
003C00
003C00
003C00
003C00
003C00
003C00
003C00
003C00
003C00
003C00
003C00
003C00
003C00
003C00
003C00
003C00
003C00
003C00
000800
001800
001E00
003F80
000380
000380
018780
01FF00
007E00
ENDCHAR
STARTCHAR 0163
ENCODING 355
SWIDTH 288 0
DWIDTH 12 0
BBX 11 37 0 -9
BITMAP
0E00
0E00
0E00
0E00
0E00
0E00
7FE0
7FE0
7FE0
0E00
0E00
0E00
0E00
0E00
0E00
0E00
0E00
0E00
0E00
0E00
0E00
0E00
0E00
0E00
0E00
0E00
0FE0
0FE0
07E0
0600
0780
0FC0
01E0
00E0
61E0
FFC0
1F00
ENDCHAR
STARTCHAR 0164
ENCODING 356
SWIDTH 600 0
DWIDTH 25 0
BBX 24 39 1 0
BITMAP
0381C0
01C380
01C700
00EF00
007E00
007C00
000000
000000
000000
FFFFFF
FFFFFF
FFFFFF
003C00
003C00
003C00
003C00
003C00
003C00
003C00
003C00
003C00
003C00
003C00
003C00
003C00
003C00
003C00
003C00
003C00
003C00
003C00
003C00
003C00
003C00
003C00
003C00
003C00
003C00
003C00
ENDCHAR
STARTCHAR 0165
ENCODING 357
SWIDTH 312 0
DWIDTH 13 0
BBX 12 34 1 -1
BITMAP
00F0
00F0
00F0
00F0
0010
1C30
1C30
1CE0
1CC0
1C00
1C00
FFC0
FFC0
FFC0
1C00
1C00
1C00
1C00
1C00
1C00
1C00
1C00
1C00
1C00
1C00
1C00
1C00
1C00
1C00
1C00
1C00
1FC0
1FC0
0FC0
ENDCHAR
STARTCHAR 0166
ENCODING 358
SWIDTH 600 0
DWIDTH 25 0
BBX 24 30 1 0
BITMAP
FFFFFF
FFFFFF
FFFFFF
003C00
003C00
003C00
003C00
003C00
003C00
003C00
003C00
1FFFF0
1FFFF0
1FFFF0
003C00
003C00
003C00
003C00
003C00
003C00
003C00
003C00
003C00
003C00
003C00
003C00
003C00
003C00
003C00
003C00
ENDCHAR
STARTCHAR 0167
ENCODING 359
SWIDTH 288 0
DWIDTH 12 0
BBX 10 29 1 -1
BITMAP
1C00
1C00
1C00
1C00
1C00
1C00
FFC0
FFC0
FFC0
1C00
1C00
1C00
FF80
FF80
1C00
1C00
1C00
1C00
1C00
1C00
1C00
1C00
1C00
1C00
1C00
1C00
1FC0
1FC0
0FC0
ENDCHAR
STARTCHAR 0168
ENCODING 360
SWIDTH 720 0
DWIDTH 30 0
BBX 23 39 4 -1
BITMAP
018180
07E380
07FF80
063F00
0E0E00
000000
000000
000000
E0001E
E0001E
E0001E
E0001E
E0001E
E0001E
E0001E
E0001E
E0001E
E0001E
E0001E
E0001E
E0001E
E0001E
E0001E
E0001E
E0001E
E0001E
E0001E
E0001E
E0001E
E0001E
F0001E
F0001E
F0003C
F8007C
7C00F8
3FCFF8
1FFFE0
0FFFC0
01FE00
ENDCHAR
STARTCHAR 0169
ENCODING 361
SWIDTH 552 0
DWIDTH 23 0
BBX 17 32 3 -1
BITMAP
0F0E00
1FFE00
3FFC00
38F800
000000
000000
000000
000000
000000
E00380
E00380
E00380
E00380
E00380
E00380
E00380
E00380
E00380
E00380
E00380
E00380
E00380
E00380
E00780
E00780
E00780
F00F80
F00F80
FC3B80
7FFB80
3FF380
0FC000
ENDCHAR
STARTCHAR 016A
ENCODING 362
SWIDTH 720 0
DWIDTH 30 0
BBX 23 38 4 -1
BITMAP
07FF80
07FF80
07FF80
000000
000000
000000
000000
E0001E
E0001E
E0001E
E0001E
E0001E
E0001E
E0001E
E0001E
E0001E
E0001E
E0001E
E0001E
E0001E
E0001E
E0001E
E0001E
E0001E
E0001E
E0001E
E0001E
E0001E
E0001E
F0001E
F0001E
F0003C
F8007C
7C00F8
3FCFF8
1FFFE0
0FFFC0
01FE00
ENDCHAR
STARTCHAR 016B
ENCODING 363
SWIDTH 552 0
DWIDTH 23 0
BBX 17 30 3 -1
BITMAP
1FFC00
1FFC00
1FFC00
000000
000000
000000
000000
E00380
E00380
E00380
E00380
E00380
E00380
E00380
E00380
E00380
E00380
E00380
E00380
E00380
E00380
E00780
E00780
E00780
F00F80
F00F80
FC3F80
7FFB80
3FF380
0FC000
ENDCHAR
STARTCHAR 016C
ENCODING 364
SWIDTH 720 0
DWIDTH 30 0
BBX 23 40 4 -1
BITMAP
060180
070180
070380
03FF00
03FF00
00FC00
000000
000000
000000
E0001E
E0001E
E0001E
E0001E
E0001E
E0001E
E0001E
E0001E
E0001E
E0001E
E0001E
E0001E
E0001E
E0001E
E0001E
E0001E
E0001E
E0001E
E0001E
E0001E
E0001E
E0001E
F0001E
F0001E
F0003C
F8007C
7C00F8
3FCFF8
1FFFE0
0FFFC0
01FE00
ENDCHAR
STARTCHAR 016D
ENCODING 365
SWIDTH 552 0
DWIDTH 23 0
BBX 17 32 3 -1
BITMAP
380E00
380E00
1C1C00
1FFC00
0FF800
03E000
000000
000000
000000
E00380
E00380
E00380
E00380
E00380
E00380
E00380
E00380
E00380
E00380
E00380
E00380
E00380
E00380
E00780
E00780
E00780
F00F80
F00F80
FC3F80
7FFB80
3FF380
0FC000
ENDCHAR
STARTCHAR 016E
ENCODING 366
SWIDTH 720 0
DWIDTH 30 0
BBX 23 40 4 -1
BITMAP
007800
00FC00
00C600
008600
00C600
00FC00
007800
000000
000000
E0001E
E0001E
E0001E
E0001E
E0001E
E0001E
E0001E
E0001E
E0001E
E0001E
E0001E
E0001E
E0001E
E0001E
E0001E
E0001E
E0001E
E0001E
E0001E
E0001E
E0001E
E0001E
F0001E
F0001E
F0003C
F8007C
7C00F8
3FCFF8
1FFFE0
0FFFC0
01FE00
ENDCHAR
STARTCHAR 016F
ENCODING 367
SWIDTH 552 0
DWIDTH 23 0
BBX 17 33 3 -1
BITMAP
01C000
03E000
063000
063000
063000
063000
03E000
01C000
000000
000000
E00380
E00380
E00380
E00380
E00380
E00380
E00380
E00380
E00380
E00380
E00380
E00380
E00380
E00380
E00780
E00780
E00780
F00F80
F00F80
FC3F80
7FFB80
3FF380
0FC000
ENDCHAR
STARTCHAR 0170
ENCODING 368
SWIDTH 720 0
DWIDTH 30 0
BBX 23 40 4 -1
BITMAP
003C78
0078F0
00F0E0
00E1C0
01C380
038300
030600
000000
000000
E0001E
E0001E
E0001E
E0001E
E0001E
E0001E
E0001E
E0001E
E0001E
E0001E
E0001E
E0001E
E0001E
E0001E
E0001E
E0001E
E0001E
E0001E
E0001E
E0001E
E0001E
E0001E
F0001E
F0001E
F0003C
F8007C
7C00F8
3FCFF8
1FFFE0
0FFFC0
01FE00
ENDCHAR
STARTCHAR 0171
ENCODING 369
SWIDTH 552 0
DWIDTH 23 0
BBX 19 32 3 -1
BITMAP
01E3E0
03C7C0
038780
070F00
0E0E00
0C1C00
000000
000000
000000
E00380
E00380
E00380
E00380
E00380
E00380
E00380
E00380
E00380
E00380
E00380
E00380
E00380
E00380
E00780
E00780
E00780
F00F80
F00F80
FC3F80
7FFB80
3FF380
0FC000
ENDCHAR
STARTCHAR 0172
ENCODING 370
SWIDTH 720 0
DWIDTH 30 0
BBX 23 39 4 -9
BITMAP
E0001E
E0001E
E0001E
E0001E
E0001E
E0001E
E0001E
E0001E
E0001E
E0001E
E0001E
E0001E
E0001E
E0001E
E0001E
E0001E
E0001E
E0001E
E0001E
E0001E
E0001E
E0001E
F0001E
F0001E
F0003C
F8007C
7C00F8
3FCFF8
1FFFF0
0FFFE0
01FFC0
000380
000700
000700
000E00
000F00
000780
0003F8
0000F8
ENDCHAR
STARTCHAR 0173
ENCODING 371
SWIDTH 552 0
DWIDTH 23 0
BBX 19 31 3 -9
BITMAP
E00380
E00380
E00380
E00380
E00380
E00380
E00380
E00380
E00380
E00380
E00380
E00380
E00380
E00380
E00780
E00780
E00780
F00F80
F00F80
FC3F80
7FFB80
3FF380
0FC300
000600
000E00
001C00
001C00
001C00
001E00
000FE0
0003E0
ENDCHAR
STARTCHAR 0174
ENCODING 372
SWIDTH 936 0
DWIDTH 39 0
BBX 38 39 1 0
BITMAP
0000F80000
0000F80000
0001FC0000
0003DE0000
00038E0000
0007070000
0000000000
0000000000
0000000000
F00078007C
F800F80078
7800FC0078
7800FC0078
7801FC00F8
7C01FC00F0
3C01DE00F0
3C01DE00F0
3C03CE01F0
3C03CF01E0
1E038F01E0
1E038F01E0
1E078701C0
1E078783C0
0F070783C0
0F0F0383C0
0F0F03C380
0F0E03C780
078E03C780
079E01C780
079E01E700
079C01EF00
03FC00EF00
03FC00FF00
03F800FE00
01F800FE00
01F8007E00
01F8007E00
01F0007C00
00F0003C00
ENDCHAR
STARTCHAR 0175
ENCODING 373
SWIDTH 720 0
DWIDTH 30 0
BBX 29 31 0 0
BITMAP
000F8000
000FC000
001FC000
001CE000
00387000
00703000
00000000
00000000
00000000
F0078078
700F8078
780FC078
780FC070
380FC0F0
3C1FC0F0
3C1DE0F0
3C1DE0E0
1C1CE1E0
1E3CE1E0
1E38F1C0
0E38F1C0
0E3873C0
0F7873C0
0F707B80
07707B80
07703F80
07F03F00
03E03F00
03E03F00
03E01F00
03E01E00
ENDCHAR
STARTCHAR 0176
ENCODING 374
SWIDTH 672 0
DWIDTH 28 0
BBX 26 39 1 0
BITMAP
001E0000
001F0000
003F8000
00738000
0071C000
00E0E000
00000000
00000000
00000000
F80003C0
F80007C0
7C000F80
3C000F00
3E001F00
1F001E00
0F003C00
0F807C00
07C07800
03C0F800
03E0F000
01E1E000
00F3E000
00FBC000
007F8000
007F8000
003F0000
001F0000
001E0000
001E0000
001E0000
001E0000
001E0000
001E0000
001E0000
001E0000
001E0000
001E0000
001E0000
001E0000
ENDCHAR
STARTCHAR 0177
ENCODING 375
SWIDTH 504 0
DWIDTH 21 0
BBX 19 40 1 -9
BITMAP
01F000
03F000
03B800
073C00
071C00
0E0E00
000000
000000
000000
F001E0
F001C0
7003C0
7803C0
780380
380780
3C0780
3C0700
1C0F00
1E0E00
1E1E00
0E1E00
0F1C00
0F3C00
073C00
07B800
07F800
03F000
03F000
03F000
01E000
01E000
01E000
01C000
03C000
03C000
078000
5F8000
7F0000
7E0000
7C0000
ENDCHAR
STARTCHAR 0178
ENCODING 376
SWIDTH 672 0
DWIDTH 28 0
BBX 26 38 1 0
BITMAP
00F3E000
00F3E000
00F3E000
00F3E000
00000000
00000000
00000000
00000000
F80003C0
F80007C0
7C000F80
3C000F00
3E001F00
1F001E00
0F003C00
0F807C00
07C07800
03C0F800
03E0F000
01E1E000
00F3E000
00FBC000
007F8000
007F8000
003F0000
001F0000
001E0000
001E0000
001E0000
001E0000
001E0000
001E0000
001E0000
001E0000
001E0000
001E0000
001E0000
001E0000
ENDCHAR
STARTCHAR 0179
ENCODING 377
SWIDTH 600 0
DWIDTH 25 0
BBX 23 39 1 0
BITMAP
0007C0
000780
000F00
001E00
001C00
003800
000000
000000
000000
7FFFFE
7FFFFE
7FFFFE
00003E
00003C
00007C
0000F8
0001F0
0003E0
0003C0
0007C0
000F80
001F00
003E00
003E00
007C00
00F800
01F000
01E000
03E000
07C000
0F8000
1F0000
1E0000
3E0000
7C0000
F80000
FFFFFE
FFFFFE
FFFFFE
ENDCHAR
STARTCHAR 017A
ENCODING 378
SWIDTH 504 0
DWIDTH 21 0
BBX 18 31 1 0
BITMAP
003E00
003C00
007800
00F000
00E000
01C000
000000
000000
000000
7FFF80
7FFF80
7FFF80
000780
000F00
001E00
003E00
003C00
007800
00F000
01E000
03E000
03C000
078000
0F0000
1E0000
3E0000
7C0000
780000
FFFFC0
FFFFC0
FFFFC0
ENDCHAR
STARTCHAR 017B
ENCODING 379
SWIDTH 600 0
DWIDTH 25 0
BBX 23 38 1 0
BITMAP
003C00
003C00
003C00
003C00
000000
000000
000000
000000
7FFFFE
7FFFFE
7FFFFE
00003E
00003C
00007C
0000F8
0001F0
0003E0
0003C0
0007C0
000F80
001F00
003E00
003E00
007C00
00F800
01F000
01E000
03E000
07C000
0F8000
1F0000
1E0000
3E0000
7C0000
F80000
FFFFFE
FFFFFE
FFFFFE
ENDCHAR
STARTCHAR 017C
ENCODING 380
SWIDTH 504 0
DWIDTH 21 0
BBX 18 31 1 0
BITMAP
01F000
01F000
01F000
01F000
000000
000000
000000
000000
000000
7FFF80
7FFF80
7FFF80
000780
000F00
001E00
003E00
003C00
007800
00F000
01E000
03E000
03C000
078000
0F0000
1E0000
3E0000
7C0000
780000
FFFFC0
FFFFC0
FFFFC0
ENDCHAR
STARTCHAR 017D
ENCODING 381
SWIDTH 600 0
DWIDTH 25 0
BBX 23 39 1 0
BITMAP
0381C0
01C180
00E380
00F700
007F00
003E00
000000
000000
000000
7FFFFE
7FFFFE
7FFFFE
00003E
00003C
00007C
0000F8
0001F0
0003E0
0003C0
0007C0
000F80
001F00
003E00
003E00
007C00
00F800
01F000
01E000
03E000
07C000
0F8000
1F0000
1E0000
3E0000
7C0000
F80000
FFFFFE
FFFFFE
FFFFFE
ENDCHAR
STARTCHAR 017E
ENCODING 382
SWIDTH 504 0
DWIDTH 21 0
BBX 18 31 1 0
BITMAP
0E0E00
0E0C00
071C00
03B800
03F800
01F000
000000
000000
000000
7FFF80
7FFF80
7FFF80
000780
000F00
001E00
003E00
003C00
007800
00F000
01E000
03E000
03C000
078000
0F0000
1E0000
3E0000
7C0000
780000
FFFFC0
FFFFC0
FFFFC0
ENDCHAR
STARTCHAR 017F
ENCODING 383
SWIDTH 216 0
DWIDTH 9 0
BBX 10 31 0 0
BITMAP
07C0
0FC0
1FC0
1E00
1C00
3C00
3C00
3C00
3C00
FC00
FC00
FC00
3C00
3C00
3C00
3C00
3C00
3C00
3C00
3C00
3C00
3C00
3C00
3C00
3C00
3C00
3C00
3C00
3C00
3C00
3C00
ENDCHAR
STARTCHAR 0192
ENCODING 402
SWIDTH 552 0
DWIDTH 23 0
BBX 22 40 0 -9
BITMAP
00007C
0001FC
0003FC
0007EC
000780
000F00
000F00
000F00
000E00
000E00
001E00
001E00
03FFE0
03FFE0
03FFE0
003C00
003C00
003C00
003C00
003800
007800
007800
007800
007800
007000
007000
00F000
00F000
00F000
00E000
00E000
01E000
01E000
01E000
01C000
03C000
478000
7F0000
7E0000
F80000
ENDCHAR
STARTCHAR 01FA
ENCODING 506
SWIDTH 672 0
DWIDTH 28 0
BBX 26 44 1 0
BITMAP
003E0000
003C0000
00780000
00F00000
00E00000
01DE0000
003F0000
00630000
00618000
00730000
003F0000
001E0000
00000000
00000000
003F0000
003F0000
003F0000
007F8000
007F8000
0077C000
00F3C000
00F3C000
01E3E000
01E1E000
01E1E000
03C0F000
03C0F000
03C0F000
07807800
07807800
07007800
0F003C00
0FFFFC00
1FFFFC00
1FFFFE00
1E001E00
3C001F00
3C000F00
3C000F00
78000F80
78000780
78000780
F00007C0
F00003C0
ENDCHAR
STARTCHAR 01FB
ENCODING 507
SWIDTH 552 0
DWIDTH 23 0
BBX 20 39 2 -1
BITMAP
01F000
01E000
03C000
038000
070000
0E0000
00F000
01F800
031800
031800
031800
01F800
00E000
000000
000000
03F800
1FFF00
3FFF80
3E0F80
7807C0
7803C0
7003C0
0003C0
0003C0
0007C0
01FFC0
1FFFC0
3FFBC0
7E03C0
F803C0
F003C0
E003C0
E003C0
F007C0
F00FC0
F83FC0
7FFFF0
3FF1F0
0FC0F0
ENDCHAR
STARTCHAR 01FC
ENCODING 508
SWIDTH 1008 0
DWIDTH 42 0
BBX 39 39 1 0
BITMAP
000000F800
000000F000
000001E000
000003C000
0000038000
0000070000
0000000000
0000000000
0000000000
000FFFFFFC
001FFFFFFC
001FFFFFFC
003C3C0000
003C3C0000
00383C0000
00783C0000
00783C0000
00F03C0000
00F03C0000
00E03C0000
01E03C0000
01E03C0000
03C03FFFF8
03C03FFFF8
07803FFFF8
07803C0000
07803C0000
0FFFFC0000
0FFFFC0000
1FFFFC0000
1E003C0000
1E003C0000
3C003C0000
3C003C0000
7C003C0000
78003C0000
F8003FFFFE
F0003FFFFE
F0003FFFFE
ENDCHAR
STARTCHAR 01FD
ENCODING 509
SWIDTH 888 0
DWIDTH 37 0
BBX 34 32 1 -1
BITMAP
00003E0000
00007C0000
0000700000
0000E00000
0001C00000
0001800000
0000000000
0000000000
01FC03F000
0FFF1FFC00
1FFFBFFE00
3F0FFE3F00
3C03F80F80
3801F00780
7801E003C0
0001E003C0
0001C003C0
0003C003C0
00FFFFFFC0
0FFFFFFFC0
1FF9FFFFC0
3F01C00000
7801C00000
7001C00000
F001E003C0
F001E003C0
F003F00780
7807F80F80
7C1E7E1F00
3FFC3FFE00
1FF81FFC00
0FC007F000
ENDCHAR
STARTCHAR 01FE
ENCODING 510
SWIDTH 768 0
DWIDTH 32 0
BBX 30 40 1 -1
BITMAP
0001F000
0003C000
00038000
00070000
000E0000
000C0000
00000000
00000000
001FE01C
007FFC38
01FFFF38
07FCFFF0
0FC00FE0
0F8007E0
1F0003E0
3E0007F0
3C000EF0
3C001C78
78003878
78007078
7800E03C
7800E03C
7001C03C
F003803C
F007003C
700E003C
781C003C
7838003C
78700078
78E00078
3DC00078
3F8000F0
3F0001F0
1F0001E0
0F8003E0
1FC00FC0
3FFCFF80
71FFFF00
60FFFC00
001FE000
ENDCHAR
STARTCHAR 01FF
ENCODING 511
SWIDTH 600 0
DWIDTH 25 0
BBX 21 33 1 -1
BITMAP
001E00
003C00
007800
007000
00E000
01C000
000000
000000
000000
01FC10
07FF38
0FFFF0
1F8FE0
3E03E0
3C01E0
7803F0
7807F0
780EF0
701CF0
701870
703070
706070
70C070
71C0F0
7B80F0
7F00F0
7E00E0
3C01E0
3E03E0
3F8FC0
7FFF80
E7FF00
C1FC00
ENDCHAR
STARTCHAR 0218
ENCODING 536
SWIDTH 672 0
DWIDTH 28 0
BBX 24 43 2 -12
BITMAP
00FF00
07FFC0
0FFFF0
1FC7F8
3E007C
3C003C
78003E
78001E
78001E
780000
780000
7C0000
3F0000
3FF000
1FFF00
07FFE0
00FFF8
000FFC
0000FE
00003E
00001F
F0000F
F0000F
F0000F
F0000F
78001E
7C001E
3E003C
3FE7FC
0FFFF8
07FFE0
00FF00
000000
000000
003C00
003C00
003C00
003C00
000C00
000C00
000C00
001800
003000
ENDCHAR
STARTCHAR 0219
ENCODING 537
SWIDTH 504 0
DWIDTH 21 0
BBX 18 35 1 -12
BITMAP
03F800
0FFE00
1FFF00
3E1F80
780780
780780
780380
780000
7C0000
7E0000
3FE000
1FFE00
07FF00
007F80
000FC0
0003C0
F003C0
F003C0
7803C0
7803C0
7F0F80
3FFF00
1FFE00
07F800
000000
000000
01E000
01E000
01E000
01E000
002000
006000
006000
00E000
01C000
ENDCHAR
STARTCHAR 021A
ENCODING 538
SWIDTH 600 0
DWIDTH 25 0
BBX 24 42 1 -12
BITMAP
FFFFFF
FFFFFF
FFFFFF
003C00
003C00
003C00
003C00
003C00
003C00
003C00
003C00
003C00
003C00
003C00
003C00
003C00
003C00
003C00
003C00
003C00
003C00
003C00
003C00
003C00
003C00
003C00
003C00
003C00
003C00
003C00
000000
000000
000000
003C00
003C00
003C00
003C00
000C00
000C00
000C00
003800
003000
ENDCHAR
STARTCHAR 021B
ENCODING 539
SWIDTH 288 0
DWIDTH 12 0
BBX 10 40 1 -12
BITMAP
1C00
1C00
1C00
1C00
1C00
1C00
FFC0
FFC0
FFC0
1C00
1C00
1C00
1C00
1C00
1C00
1C00
1C00
1C00
1C00
1C00
1C00
1C00
1C00
1C00
1C00
1C00
1FC0
1FC0
0FC0
0000
0000
0F00
0F00
0F00
0F00
0300
0300
0200
0E00
0C00
ENDCHAR
STARTCHAR 02C6
ENCODING 710
SWIDTH 336 0
DWIDTH 14 0
BBX 11 6 1 25
BITMAP
0F00
1F80
3F80
39C0
70E0
E060
ENDCHAR
STARTCHAR 02C7
ENCODING 711
SWIDTH 336 0
DWIDTH 14 0
BBX 11 6 1 25
BITMAP
E060
70E0
79C0
3BC0
1F80
1F00
ENDCHAR
STARTCHAR 02C9
ENCODING 713
SWIDTH 336 0
DWIDTH 14 0
BBX 12 3 1 26
BITMAP
FFF0
FFF0
FFF0
ENDCHAR
STARTCHAR 02D8
ENCODING 728
SWIDTH 336 0
DWIDTH 14 0
BBX 12 6 1 25
BITMAP
C030
E070
F0F0
FFE0
7FC0
1F00
ENDCHAR
STARTCHAR 02D9
ENCODING 729
SWIDTH 336 0
DWIDTH 14 0
BBX 4 4 5 27
BITMAP
F0
F0
F0
F0
ENDCHAR
STARTCHAR 02DA
ENCODING 730
SWIDTH 336 0
DWIDTH 14 0
BBX 8 8 3 24
BITMAP
3C
7E
66
C3
C3
66
7E
38
ENDCHAR
STARTCHAR 02DB
ENCODING 731
SWIDTH 336 0
DWIDTH 14 0
BBX 9 9 2 -9
BITMAP
1C00
3800
7000
7000
E000
F000
7000
7F80
0F80
ENDCHAR
STARTCHAR 02DC
ENCODING 732
SWIDTH 336 0
DWIDTH 14 0
BBX 13 4 0 27
BITMAP
3E18
7FF8
7FF8
E1F0
ENDCHAR
STARTCHAR 02DD
ENCODING 733
SWIDTH 336 0
DWIDTH 14 0
BBX 15 6 -1 25
BITMAP
1F3E
1E3C
3C78
7870
70E0
E1C0
ENDCHAR
STARTCHAR 0384
ENCODING 900
SWIDTH 336 0
DWIDTH 14 0
BBX 4 8 5 24
BITMAP
F0
F0
F0
F0
60
60
60
60
ENDCHAR
STARTCHAR 0385
ENCODING 901
SWIDTH 336 0
DWIDTH 14 0
BBX 12 10 1 26
BITMAP
0F00
0F00
0F00
0F00
0E00
0600
F6F0
F6F0
F0F0
F0F0
ENDCHAR
STARTCHAR 0386
ENCODING 902
SWIDTH 672 0
DWIDTH 28 0
BBX 26 30 1 0
BITMAP
783F0000
783F0000
783F0000
787F8000
787F8000
3077C000
30F3C000
30F3C000
01E3E000
01E1E000
01E1E000
03C0F000
03C0F000
03C0F000
07807800
07807800
07007800
0F003C00
0FFFFC00
1FFFFC00
1FFFFE00
1E001E00
3C001F00
3C000F00
3C000F00
78000F80
78000780
78000780
F00007C0
F00003C0
ENDCHAR
STARTCHAR 0387
ENCODING 903
SWIDTH 288 0
DWIDTH 12 0
BBX 4 4 5 10
BITMAP
F0
F0
F0
F0
ENDCHAR
STARTCHAR 0388
ENCODING 904
SWIDTH 792 0
DWIDTH 33 0
BBX 28 30 1 0
BITMAP
F3FFFFE0
F3FFFFE0
F3FFFFE0
F3C00000
E3C00000
63C00000
63C00000
63C00000
03C00000
03C00000
03C00000
03C00000
03C00000
03FFFFC0
03FFFFC0
03FFFFC0
03C00000
03C00000
03C00000
03C00000
03C00000
03C00000
03C00000
03C00000
03C00000
03C00000
03C00000
03FFFFF0
03FFFFF0
03FFFFF0
ENDCHAR
STARTCHAR 0389
ENCODING 905
SWIDTH 840 0
DWIDTH 35 0
BBX 29 30 1 0
BITMAP
E7800078
E7800078
E7800078
E7800078
E7800078
E7800078
67800078
47800078
07800078
07800078
07800078
07800078
07800078
07FFFFF8
07FFFFF8
07FFFFF8
07800078
07800078
07800078
07800078
07800078
07800078
07800078
07800078
07800078
07800078
07800078
07800078
07800078
07800078
ENDCHAR
STARTCHAR 038A
ENCODING 906
SWIDTH 384 0
DWIDTH 16 0
BBX 10 30 1 0
BITMAP
F3C0
F3C0
F3C0
F3C0
E3C0
63C0
63C0
63C0
03C0
03C0
03C0
03C0
03C0
03C0
03C0
03C0
03C0
03C0
03C0
03C0
03C0
03C0
03C0
03C0
03C0
03C0
03C0
03C0
03C0
03C0
ENDCHAR
STARTCHAR 038C
ENCODING 908
SWIDTH 768 0
DWIDTH 32 0
BBX 32 32 -1 -1
BITMAP
0007F800
E03FFF00
E07FFFC0
E1FF3FE0
E3F003F0
E3E001F8
E7C00078
6F80007C
4F00003C
0F00001E
1E00001E
1E00001E
1E00000F
1E00000F
1C00000F
3C00000F
3C00000F
1C00000F
1E00000F
1E00000F
1E00001E
1E00001E
1F00001E
0F00003C
0F80007C
07C00078
03E000F8
03F003F0
01FF3FE0
007FFFC0
003FFF00
0007F800
ENDCHAR
STARTCHAR 038E
ENCODING 910
SWIDTH 864 0
DWIDTH 36 0
BBX 32 30 1 0
BITMAP
F7C0001F
F3E0001E
F1E0003C
F1F0007C
70F80078
607800F8
607C00F0
603C01E0
003E03E0
001F03C0
000F0780
000F8780
00078F00
0003DF00
0003FE00
0001FC00
0000FC00
0000F800
00007800
00007800
00007800
00007800
00007800
00007800
00007800
00007800
00007800
00007800
00007800
00007800
ENDCHAR
STARTCHAR 038F
ENCODING 911
SWIDTH 744 0
DWIDTH 31 0
BBX 31 31 -1 0
BITMAP
0007F800
F03FFE00
F0FFFF80
F1FF7FC0
F3F007E0
E7C001F0
E78000F8
6F800078
6F00007C
1F00003C
1E00003C
1E00003C
1E00003C
1E00001C
1E00001C
1E00001C
1E00001C
1E00003C
1E00003C
1E00003C
0F000038
0F000078
07800078
078000F0
03C001E0
01E003C0
00780780
003C1E00
3FFC1FFE
3FFC1FFE
3FFC1FFE
ENDCHAR
STARTCHAR 0390
ENCODING 912
SWIDTH 216 0
DWIDTH 9 0
BBX 11 36 -1 0
BITMAP
0E00
0E00
0E00
0E00
0E00
0E00
F7E0
F5E0
F1E0
F1E0
0000
0000
0000
0000
0E00
0E00
0E00
0E00
0E00
0E00
0E00
0E00
0E00
0E00
0E00
0E00
0E00
0E00
0E00
0E00
0E00
0E00
0E00
0E00
0E00
0E00
ENDCHAR
STARTCHAR 0391
ENCODING 913
SWIDTH 672 0
DWIDTH 28 0
BBX 26 30 1 0
BITMAP
003F0000
003F0000
003F0000
007F8000
007F8000
0077C000
00F3C000
00F3C000
01E3E000
01E1E000
01E1E000
03C0F000
03C0F000
03C0F000
07807800
07807800
07007800
0F003C00
0FFFFC00
1FFFFC00
1FFFFE00
1E001E00
3C001F00
3C000F00
3C000F00
78000F80
78000780
78000780
F00007C0
F00003C0
ENDCHAR
STARTCHAR 0392
ENCODING 914
SWIDTH 672 0
DWIDTH 28 0
BBX 23 30 3 0
BITMAP
FFFF00
FFFFC0
FFFFF0
F00FF0
F000F8
F00078
F0007C
F0003C
F0003C
F00038
F00078
F00078
F001F0
FFFFE0
FFFFC0
FFFFF0
F003F8
F0007C
F0003C
F0001E
F0001E
F0001E
F0001E
F0001E
F0003C
F0007C
F003F8
FFFFF8
FFFFE0
FFFF80
ENDCHAR
STARTCHAR 0393
ENCODING 915
SWIDTH 552 0
DWIDTH 23 0
BBX 20 30 3 0
BITMAP
FFFFF0
FFFFF0
FFFFF0
F00000
F00000
F00000
F00000
F00000
F00000
F00000
F00000
F00000
F00000
F00000
F00000
F00000
F00000
F00000
F00000
F00000
F00000
F00000
F00000
F00000
F00000
F00000
F00000
F00000
F00000
F00000
ENDCHAR
STARTCHAR 0394
ENCODING 916
SWIDTH 672 0
DWIDTH 28 0
BBX 28 30 0 0
BITMAP
000F0000
001F8000
001F8000
003F8000
003FC000
003FC000
0079E000
0079E000
00F1E000
00F0F000
01F0F000
01E07800
01E07800
03C07800
03C03C00
07803C00
07801E00
07801E00
0F001F00
0F000F00
1E000F00
1E000780
1E000780
3C0007C0
3C0003C0
780003C0
780001E0
7FFFFFE0
FFFFFFF0
FFFFFFF0
ENDCHAR
STARTCHAR 0395
ENCODING 917
SWIDTH 672 0
DWIDTH 28 0
BBX 22 30 4 0
BITMAP
FFFFF8
FFFFF8
FFFFF8
F00000
F00000
F00000
F00000
F00000
F00000
F00000
F00000
F00000
F00000
FFFFF0
FFFFF0
FFFFF0
F00000
F00000
F00000
F00000
F00000
F00000
F00000
F00000
F00000
F00000
F00000
FFFFFC
FFFFFC
FFFFFC
ENDCHAR
STARTCHAR 0396
ENCODING 918
SWIDTH 600 0
DWIDTH 25 0
BBX 23 30 1 0
BITMAP
7FFFFE
7FFFFE
7FFFFE
00003E
00003C
00007C
0000F8
0001F0
0003E0
0003C0
0007C0
000F80
001F00
003E00
003E00
007C00
00F800
01F000
01E000
03E000
07C000
0F8000
1F0000
1E0000
3E0000
7C0000
F80000
FFFFFE
FFFFFE
FFFFFE
ENDCHAR
STARTCHAR 0397
ENCODING 919
SWIDTH 720 0
DWIDTH 30 0
BBX 24 30 3 0
BITMAP
F0000F
F0000F
F0000F
F0000F
F0000F
F0000F
F0000F
F0000F
F0000F
F0000F
F0000F
F0000F
F0000F
FFFFFF
FFFFFF
FFFFFF
F0000F
F0000F
F0000F
F0000F
F0000F
F0000F
F0000F
F0000F
F0000F
F0000F
F0000F
F0000F
F0000F
F0000F
ENDCHAR
STARTCHAR 0398
ENCODING 920
SWIDTH 768 0
DWIDTH 32 0
BBX 29 32 2 -1
BITMAP
003FC000
00FFF800
03FFFE00
07F9FF00
1F801F80
1F0007C0
3E0003E0
7C0001E0
780001F0
780000F0
F00000F0
F00000F8
F0000078
F0000078
E0FFF078
E0FFF078
E0FFF078
F0000078
F0000078
F0000078
F00000F0
F00000F0
780000F0
780001E0
3C0003E0
3E0003C0
1F0007C0
0FC01F80
07F9FF00
03FFFE00
01FFF800
003FC000
ENDCHAR
STARTCHAR 0399
ENCODING 921
SWIDTH 288 0
DWIDTH 12 0
BBX 4 30 4 0
BITMAP
F0
F0
F0
F0
F0
F0
F0
F0
F0
F0
F0
F0
F0
F0
F0
F0
F0
F0
F0
F0
F0
F0
F0
F0
F0
F0
F0
F0
F0
F0
ENDCHAR
STARTCHAR 039A
ENCODING 922
SWIDTH 672 0
DWIDTH 28 0
BBX 24 30 3 0
BITMAP
F0001F
F0003E
F0007C
F000F8
F001F0
F003E0
F007C0
F00F80
F01F00
F03E00
F07C00
F0F800
F1F000
F3F800
F7FC00
FF3C00
FE3E00
FC1F00
F80F00
F00780
F007C0
F003C0
F001E0
F001F0
F000F8
F00078
F0007C
F0003E
F0001E
F0001F
ENDCHAR
STARTCHAR 039B
ENCODING 923
SWIDTH 672 0
DWIDTH 28 0
BBX 26 30 1 0
BITMAP
003F0000
003F0000
007F0000
007F8000
007F8000
00F78000
00F3C000
00F3C000
01E3E000
01E1E000
01E1E000
03C1F000
03C0F000
03C0F000
0780F800
07807800
0F807800
0F007C00
0F003C00
1F003C00
1E001E00
1E001E00
3E001F00
3C000F00
3C000F00
7C000F80
78000780
78000780
F80007C0
F00003C0
ENDCHAR
STARTCHAR 039C
ENCODING 924
SWIDTH 840 0
DWIDTH 35 0
BBX 29 30 3 0
BITMAP
FC0001F8
FC0001F8
FC0003F8
FE0003F8
FE0003F8
FE0007F8
FF000778
F7000778
F7000F78
F7800E78
F3800E78
F3801E78
F3C01C78
F1C01C78
F1E03C78
F1E03878
F0E03878
F0F07878
F0F07078
F0707078
F078F078
F078E078
F038E078
F03DE078
F01DC078
F01DC078
F01FC078
F00F8078
F00F8078
F00F8078
ENDCHAR
STARTCHAR 039D
ENCODING 925
SWIDTH 720 0
DWIDTH 30 0
BBX 24 30 3 0
BITMAP
F8000F
F8000F
FC000F
FE000F
FE000F
FF000F
FF800F
F7800F
F3C00F
F3E00F
F1E00F
F0F00F
F0F00F
F0780F
F03C0F
F03C0F
F01E0F
F01F0F
F00F0F
F0078F
F007CF
F003CF
F001EF
F001FF
F000FF
F0007F
F0007F
F0003F
F0001F
F0001F
ENDCHAR
STARTCHAR 039E
ENCODING 926
SWIDTH 648 0
DWIDTH 27 0
BBX 21 30 3 0
BITMAP
FFFFF8
FFFFF8
FFFFF8
000000
000000
000000
000000
000000
000000
000000
000000
000000
000000
7FFFF0
7FFFF0
7FFFF0
000000
000000
000000
000000
000000
000000
000000
000000
000000
000000
000000
FFFFF8
FFFFF8
FFFFF8
ENDCHAR
STARTCHAR 039F
ENCODING 927
SWIDTH 768 0
DWIDTH 32 0
BBX 29 32 2 -1
BITMAP
003FC000
00FFF800
03FFFE00
07F9FF00
0F801F80
1F0007C0
3E0003C0
3C0001E0
780001F0
780000F0
F00000F0
F00000F0
F0000078
F0000078
F0000078
E0000078
E0000078
F0000078
F0000078
F0000078
F0000070
F00000F0
780000F0
780001E0
7C0001E0
3E0003C0
1F0007C0
0FC01F80
07F9FF00
03FFFE00
01FFF800
003FC000
ENDCHAR
STARTCHAR 03A0
ENCODING 928
SWIDTH 720 0
DWIDTH 30 0
BBX 24 30 3 0
BITMAP
FFFFFF
FFFFFF
FFFFFF
F0000F
F0000F
F0000F
F0000F
F0000F
F0000F
F0000F
F0000F
F0000F
F0000F
F0000F
F0000F
F0000F
F0000F
F0000F
F0000F
F0000F
F0000F
F0000F
F0000F
F0000F
F0000F
F0000F
F0000F
F0000F
F0000F
F0000F
ENDCHAR
STARTCHAR 03A1
ENCODING 929
SWIDTH 672 0
DWIDTH 28 0
BBX 22 30 4 0
BITMAP
FFFF00
FFFFC0
FFFFE0
F00FF0
F000F8
F00078
F0007C
F0003C
F0003C
F0003C
F0007C
F00078
F000F8
F001F8
FFFFF0
FFFFE0
FFFF80
F00000
F00000
F00000
F00000
F00000
F00000
F00000
F00000
F00000
F00000
F00000
F00000
F00000
ENDCHAR
STARTCHAR 03A3
ENCODING 931
SWIDTH 624 0
DWIDTH 26 0
BBX 22 30 2 0
BITMAP
FFFFF8
FFFFF8
FFFFF8
F80000
7C0000
3E0000
1F0000
0F8000
07C000
03E000
01F000
00F800
007C00
003E00
001F00
001F00
003E00
007C00
00F800
01F000
03E000
07C000
0F8000
1F0000
3E0000
7C0000
F80000
FFFFFC
FFFFFC
FFFFFC
ENDCHAR
STARTCHAR 03A4
ENCODING 932
SWIDTH 600 0
DWIDTH 25 0
BBX 24 30 1 0
BITMAP
FFFFFF
FFFFFF
FFFFFF
003C00
003C00
003C00
003C00
003C00
003C00
003C00
003C00
003C00
003C00
003C00
003C00
003C00
003C00
003C00
003C00
003C00
003C00
003C00
003C00
003C00
003C00
003C00
003C00
003C00
003C00
003C00
ENDCHAR
STARTCHAR 03A5
ENCODING 933
SWIDTH 672 0
DWIDTH 28 0
BBX 26 30 1 0
BITMAP
F80003C0
F80007C0
7C000F80
3C000F00
3E001F00
1F001E00
0F003C00
0F807C00
07C07800
03C0F800
03E0F000
01E1E000
00F3E000
00FBC000
007F8000
007F8000
003F0000
001F0000
001E0000
001E0000
001E0000
001E0000
001E0000
001E0000
001E0000
001E0000
001E0000
001E0000
001E0000
001E0000
ENDCHAR
STARTCHAR 03A6
ENCODING 934
SWIDTH 792 0
DWIDTH 33 0
BBX 27 32 3 -1
BITMAP
000F0000
000F0000
000F0000
000F0000
00FFE000
03FFFC00
0FFFFE00
1FEFFF00
1F0F1F80
3E0F07C0
7C0F03C0
780F03C0
780F01E0
F00F01E0
F00F01E0
F00F01E0
F00F01E0
F00F01E0
F00F01E0
780F01E0
780F03C0
7C0F03C0
3E0F0780
3F0F1F80
1FEFFF00
0FFFFE00
03FFFC00
00FFE000
000F0000
000F0000
000F0000
000F0000
ENDCHAR
STARTCHAR 03A7
ENCODING 935
SWIDTH 672 0
DWIDTH 28 0
BBX 26 30 1 0
BITMAP
7C000780
3C000F00
3E001F00
1F001E00
0F003C00
0F807C00
07C07800
03C0F000
03E1F000
01F1E000
00F3C000
00FF8000
007F8000
003F0000
001E0000
003F0000
007F8000
007F8000
00F3C000
01F3E000
01E1E000
03C0F000
07C0F800
0F807C00
0F003C00
1F003E00
3E001F00
3C000F00
7C000F80
F80007C0
ENDCHAR
STARTCHAR 03A8
ENCODING 936
SWIDTH 840 0
DWIDTH 35 0
BBX 29 30 3 0
BITMAP
F00F0078
F00F0078
F00F0078
F00F0078
F00F0078
F00F0078
F00F0078
F00F0078
F00F0078
F00F0078
F00F0078
F00F0078
F00F0078
F00F0078
F00F0078
F00F0078
F00F00F0
780F00F0
7C0F01F0
3E0F03E0
3FCF1FC0
1FFFFF80
07FFFF00
01FFF800
000F0000
000F0000
000F0000
000F0000
000F0000
000F0000
ENDCHAR
STARTCHAR 03A9
ENCODING 937
SWIDTH 744 0
DWIDTH 31 0
BBX 29 31 1 0
BITMAP
001FE000
00FFF800
03FFFE00
07FDFF00
0FC01F80
1F0007C0
1E0003E0
3E0001E0
3C0001F0
7C0000F0
780000F0
780000F0
780000F0
78000070
78000070
78000070
780000F0
780000F0
780000F0
780000F0
3C0000E0
3C0001E0
1E0001C0
1E0003C0
0F000780
07800F00
03E01E00
00F07800
FFF07FF8
FFF07FF8
FFF07FF8
ENDCHAR
STARTCHAR 03AA
ENCODING 938
SWIDTH 288 0
DWIDTH 12 0
BBX 11 38 0 0
BITMAP
F9E0
F9E0
F9E0
F9E0
0000
0000
0000
0000
0F00
0F00
0F00
0F00
0F00
0F00
0F00
0F00
0F00
0F00
0F00
0F00
0F00
0F00
0F00
0F00
0F00
0F00
0F00
0F00
0F00
0F00
0F00
0F00
0F00
0F00
0F00
0F00
0F00
0F00
ENDCHAR
STARTCHAR 03AB
ENCODING 939
SWIDTH 672 0
DWIDTH 28 0
BBX 26 38 1 0
BITMAP
01F3C000
01F3C000
01F3C000
01F3C000
00000000
00000000
00000000
00000000
F80003C0
F80007C0
7C000F80
3C000F00
3E001F00
1F001E00
0F003C00
0F807C00
07C07800
03C0F800
03E0F000
01E1E000
00F3E000
00FBC000
007F8000
007F8000
003F0000
001F0000
001E0000
001E0000
001E0000
001E0000
001E0000
001E0000
001E0000
001E0000
001E0000
001E0000
001E0000
001E0000
ENDCHAR
STARTCHAR 03AC
ENCODING 940
SWIDTH 576 0
DWIDTH 24 0
BBX 25 34 0 -1
BITMAP
00F00000
00F00000
00F00000
00F00000
00700000
00600000
00600000
00600000
00000000
00000000
01F80000
07FE0F00
0FFF0F00
1F0F0F00
3E079E00
3C03DE00
7801DC00
7801FC00
7000FC00
F000F800
F0007800
F0007000
F0007800
F000F800
F000FC00
7001FC00
7801DC00
7803DE00
3C039E00
3E078E00
1F9F0F00
0FFE0F00
07FC0780
01F80000
ENDCHAR
STARTCHAR 03AD
ENCODING 941
SWIDTH 456 0
DWIDTH 19 0
BBX 18 34 1 -1
BITMAP
01C000
01C000
01C000
01C000
01C000
01C000
018000
018000
000000
000000
07F000
1FFC00
3FFE00
7C1F00
780F00
F00780
F00780
700000
780000
3E0000
1FE000
1FE000
3FE000
7C0000
F00000
F00000
E003C0
F00380
F00780
F80F00
7C1F00
3FFE00
1FFC00
07F000
ENDCHAR
STARTCHAR 03AE
ENCODING 942
SWIDTH 552 0
DWIDTH 23 0
BBX 17 42 3 -9
BITMAP
00E000
00E000
00E000
00E000
00E000
00E000
00E000
004000
004000
000000
00FC00
E3FE00
E7FF00
EE1F80
FC0780
F80780
F00380
F00380
F00380
E00380
E00380
E00380
E00380
E00380
E00380
E00380
E00380
E00380
E00380
E00380
E00380
E00380
E00380
000380
000380
000380
000380
000380
000380
000380
000380
000380
ENDCHAR
STARTCHAR 03AF
ENCODING 943
SWIDTH 216 0
DWIDTH 9 0
BBX 3 33 3 0
BITMAP
E0
E0
E0
E0
E0
E0
E0
40
40
00
00
E0
E0
E0
E0
E0
E0
E0
E0
E0
E0
E0
E0
E0
E0
E0
E0
E0
E0
E0
E0
E0
E0
ENDCHAR
STARTCHAR 03B0
ENCODING 944
SWIDTH 552 0
DWIDTH 23 0
BBX 17 37 3 -1
BITMAP
01C000
01C000
01C000
01C000
01C000
01C000
1FBC00
1EBC00
1E3C00
1E3C00
000000
000000
000000
000000
E00380
E00380
E00380
E00380
E00380
E00380
E00380
E00380
E00380
E00380
E00380
E00380
E00380
E00380
E00380
E00380
E00780
F00780
F80F80
7C1F00
7FFE00
1FFC00
07F000
ENDCHAR
STARTCHAR 03B1
ENCODING 945
SWIDTH 576 0
DWIDTH 24 0
BBX 24 24 1 -1
BITMAP
01F000
07FC0E
0FFE1E
1F1E1E
3C0F1C
3C07BC
7803B8
7803F8
7001F8
7001F0
F000F0
F000F0
F000F0
F001F0
F001F8
7001F8
7803B8
7803BC
3C07BC
3C0F1E
1F3E1E
1FFE1E
07F80F
03F000
ENDCHAR
STARTCHAR 03B2
ENCODING 946
SWIDTH 576 0
DWIDTH 24 0
BBX 19 40 3 -9
BITMAP
03F000
1FFC00
3FFE00
7C1F00
780F80
700780
F00780
F00780
F00780
F00780
F00780
F00F00
F03E00
F0FC00
F0FE00
F0FF00
F00780
F003C0
F003C0
F001E0
F001E0
F001E0
F001E0
F001E0
F001E0
F001C0
F003C0
F807C0
FE1F80
FFFF00
FFFE00
F3F800
F00000
F00000
F00000
F00000
F00000
F00000
F00000
F00000
ENDCHAR
STARTCHAR 03B3
ENCODING 947
SWIDTH 504 0
DWIDTH 21 0
BBX 19 31 1 -9
BITMAP
F001E0
F001E0
F001C0
7803C0
7803C0
3C0780
3C0780
3C0700
1E0F00
1E0F00
0E0E00
0F1E00
0F1E00
079C00
07BC00
03B800
03F800
03F800
01F000
01F000
00F000
00E000
00E000
00E000
00E000
00E000
00E000
00E000
00E000
00E000
00E000
ENDCHAR
STARTCHAR 03B4
ENCODING 948
SWIDTH 552 0
DWIDTH 23 0
BBX 20 31 2 -1
BITMAP
3FFF80
3FFF80
3FFF80
1F0000
0F8000
07C000
01E000
00F800
01FC00
0FFE00
1FFF80
3E0F80
7C03C0
7803E0
F001E0
F001E0
F000E0
F000E0
E000F0
E000F0
E000E0
F000E0
F000E0
F001E0
F001E0
7803C0
7C07C0
3F1F80
1FFF00
0FFE00
03F800
ENDCHAR
STARTCHAR 03B5
ENCODING 949
SWIDTH 456 0
DWIDTH 19 0
BBX 18 24 1 -1
BITMAP
07F000
1FFC00
3FFE00
7C1F00
780F00
F00780
F00780
700000
780000
3E0000
1FE000
1FE000
3FE000
7C0000
F00000
F00000
E003C0
F00380
F00780
F80F00
7C1F00
3FFE00
1FFC00
07F000
ENDCHAR
STARTCHAR 03B6
ENCODING 950
SWIDTH 432 0
DWIDTH 18 0
BBX 17 39 2 -9
BITMAP
3FFF00
3FFF00
3FFF00
003E00
007C00
00F000
01E000
03C000
078000
0F0000
1E0000
1E0000
3C0000
380000
780000
700000
F00000
F00000
F00000
E00000
E00000
E00000
E00000
F00000
F00000
F80000
7C0000
7FF000
3FFE00
0FFF00
001F80
000780
000780
000780
000780
000700
000F00
000F00
000E00
ENDCHAR
STARTCHAR 03B7
ENCODING 951
SWIDTH 552 0
DWIDTH 23 0
BBX 17 32 3 -9
BITMAP
00FC00
E3FE00
E7FF00
EE1F80
FC0780
F80780
F00380
F00380
F00380
E00380
E00380
E00380
E00380
E00380
E00380
E00380
E00380
E00380
E00380
E00380
E00380
E00380
E00380
000380
000380
000380
000380
000380
000380
000380
000380
000380
ENDCHAR
STARTCHAR 03B8
ENCODING 952
SWIDTH 552 0
DWIDTH 23 0
BBX 19 32 2 -1
BITMAP
01F800
07FE00
1FFF00
3F1F80
3C0780
7803C0
7801C0
7001C0
7001E0
F001E0
F000E0
F000E0
F000E0
F000E0
FFFFE0
FFFFE0
FFFFE0
F000E0
F000E0
F000E0
F000E0
F001E0
F001E0
7001E0
7001C0
7801C0
7803C0
3C0780
3F0F80
1FFF00
0FFE00
03F800
ENDCHAR
STARTCHAR 03B9
ENCODING 953
SWIDTH 216 0
DWIDTH 9 0
BBX 3 22 3 0
BITMAP
E0
E0
E0
E0
E0
E0
E0
E0
E0
E0
E0
E0
E0
E0
E0
E0
E0
E0
E0
E0
E0
E0
ENDCHAR
STARTCHAR 03BA
ENCODING 954
SWIDTH 504 0
DWIDTH 21 0
BBX 19 22 2 0
BITMAP
F00780
F00F00
F01E00
F03C00
F07800
F0F000
F1E000
F3C000
F7E000
FFE000
FFF000
FCF000
F87800
F07C00
F03C00
F01E00
F01E00
F00F00
F00F80
F00780
F003C0
F003E0
ENDCHAR
STARTCHAR 03BB
ENCODING 955
SWIDTH 504 0
DWIDTH 21 0
BBX 19 30 1 0
BITMAP
0F0000
070000
078000
078000
03C000
03C000
03C000
01E000
01E000
01E000
01F000
01F000
03F000
03F800
07F800
07BC00
073C00
0F1C00
0F1E00
0E1E00
1E0E00
1E0F00
1C0F00
3C0780
3C0780
380380
7803C0
7803C0
F001C0
F001E0
ENDCHAR
STARTCHAR 03BC
ENCODING 956
SWIDTH 576 0
DWIDTH 24 0
BBX 18 31 3 -9
BITMAP
F003C0
F003C0
F003C0
F003C0
F003C0
F003C0
F003C0
F003C0
F003C0
F003C0
F003C0
F003C0
F003C0
F003C0
F003C0
F003C0
F003C0
F007C0
F80FC0
FC3DC0
FFF9C0
FFF1C0
F7C000
F00000
F00000
F00000
F00000
F00000
F00000
F00000
F00000
ENDCHAR
STARTCHAR 03BD
ENCODING 957
SWIDTH 504 0
DWIDTH 21 0
BBX 19 22 1 0
BITMAP
F001E0
F001E0
F001C0
7803C0
7803C0
780780
3C0780
3C0700
3C0F00
1E0F00
1E0E00
1E1E00
0F1E00
0F1C00
073C00
07B800
07B800
03F800
03F000
03F000
01F000
01E000
ENDCHAR
STARTCHAR 03BE
ENCODING 958
SWIDTH 456 0
DWIDTH 19 0
BBX 18 39 1 -9
BITMAP
7FFF00
7FFF00
7FFF00
078000
0E0000
1E0000
3C0000
3C0000
3C0000
3C0000
3C0000
1E0000
1FC000
07FE00
03FE00
0FFE00
1F0000
3C0000
780000
700000
F00000
F00000
F00000
F00000
780000
780000
7E0000
3FFC00
1FFF80
07FFC0
000FC0
0003C0
0001C0
0001C0
0003C0
0003C0
000380
000780
000780
ENDCHAR
STARTCHAR 03BF
ENCODING 959
SWIDTH 552 0
DWIDTH 23 0
BBX 19 24 2 -1
BITMAP
03F800
0FFE00
1FFF00
3F1F80
7C07C0
7803C0
7001E0
F001E0
F001E0
F000E0
E000E0
E000E0
E000E0
E000E0
F000E0
F001E0
F001E0
7001E0
7803C0
7C07C0
3F1F80
1FFF00
0FFE00
03F800
ENDCHAR
STARTCHAR 03C0
ENCODING 960
SWIDTH 696 0
DWIDTH 29 0
BBX 23 22 3 0
BITMAP
FFFFFE
FFFFFE
FFFFFE
1C00F0
1C00F0
1C00F0
1C00F0
1C00F0
1C00F0
1C00F0
1C00F0
1C00F0
1C00F0
1C00F0
1C00F0
1C00F0
1C00F0
1C00F0
1C00F0
1C00F0
1C00F0
1C00F0
ENDCHAR
STARTCHAR 03C1
ENCODING 961
SWIDTH 576 0
DWIDTH 24 0
BBX 20 32 2 -9
BITMAP
01FC00
07FF00
0FFF80
1F0FC0
3E03C0
3C01E0
7801E0
7800E0
7000F0
7000F0
7000F0
F000F0
F000F0
F000F0
F000F0
F000F0
F800E0
F801E0
FC01E0
FE03C0
FF8FC0
F7FF80
F3FF00
F0FC00
F00000
F00000
F00000
F00000
F00000
F00000
F00000
F00000
ENDCHAR
STARTCHAR 03C2
ENCODING 962
SWIDTH 480 0
DWIDTH 20 0
BBX 19 32 1 -9
BITMAP
01FC00
07FF00
0FFF80
1F0FC0
3C03C0
7801E0
7801E0
7001E0
F00000
F00000
F00000
F00000
F00000
F00000
780000
780000
7C0000
3E0000
1FC000
0FF000
03FE00
00FF80
001FC0
0003C0
0001C0
0001C0
0001C0
0003C0
0003C0
000380
000780
000700
ENDCHAR
STARTCHAR 03C3
ENCODING 963
SWIDTH 624 0
DWIDTH 26 0
BBX 21 24 3 -1
BITMAP
03F000
0FFFF8
1FFFF8
3F1FF8
7C0780
7803C0
F001C0
F001E0
F001E0
E001E0
E000E0
E000E0
E000E0
E000E0
E001E0
F001E0
F001E0
F001C0
7803C0
7C07C0
3F1F80
1FFF00
0FFE00
03F800
ENDCHAR
STARTCHAR 03C4
ENCODING 964
SWIDTH 384 0
DWIDTH 16 0
BBX 18 22 -1 0
BITMAP
FFFFC0
FFFFC0
FFFFC0
01E000
01E000
01E000
01E000
01E000
01E000
01E000
01E000
01E000
01E000
01E000
01E000
01E000
01E000
01E000
01E000
01E000
01E000
01E000
ENDCHAR
STARTCHAR 03C5
ENCODING 965
SWIDTH 552 0
DWIDTH 23 0
BBX 17 23 3 -1
BITMAP
E00380
E00380
E00380
E00380
E00380
E00380
E00380
E00380
E00380
E00380
E00380
E00380
E00380
E00380
E00380
E00380
E00780
F00780
F80F80
7C1F00
7FFE00
1FFC00
07F000
ENDCHAR
STARTCHAR 03C6
ENCODING 966
SWIDTH 648 0
DWIDTH 27 0
BBX 24 32 1 -9
BITMAP
001F00
031FE0
0F1FF0
1F1CF8
3E1C3C
3C1C1E
781C1E
781C0F
701C0F
F01C0F
F01C0F
F01C0F
F01C0F
F01C0F
701C0F
781C0F
781C0F
7C1C1E
3C1C3E
1F1C7C
0FFFF8
07FFF0
03FFC0
001C00
001C00
001C00
001C00
001C00
001C00
001C00
001C00
001C00
ENDCHAR
STARTCHAR 03C7
ENCODING 967
SWIDTH 528 0
DWIDTH 22 0
BBX 19 31 1 -9
BITMAP
7801E0
7803C0
3C03C0
3C0780
1E0780
1E0700
0F0F00
0F0E00
079E00
079C00
03FC00
03F800
01F800
01F000
00F000
00F000
01F800
01F800
03FC00
03BC00
079E00
071E00
0F0F00
0E0F00
1E0780
1E0780
3C03C0
3C03C0
7801C0
7801E0
F001E0
ENDCHAR
STARTCHAR 03C8
ENCODING 968
SWIDTH 720 0
DWIDTH 30 0
BBX 23 31 4 -9
BITMAP
E0781E
E0781E
E0781E
E0781E
E0781E
E0781E
E0781E
E0781E
E0781E
E0781E
E0781E
E0781E
E0781E
E0781E
E0781E
F0781E
F0781C
F8783C
7C7878
3FFBF8
1FFFF0
0FFFC0
00FE00
007800
007800
007800
007800
007800
007800
007800
007800
ENDCHAR
STARTCHAR 03C9
ENCODING 969
SWIDTH 792 0
DWIDTH 33 0
BBX 25 23 4 -1
BITMAP
0F007800
1E003C00
3C003C00
3C001E00
78001E00
783C0F00
703C0F00
F03C0700
F03C0780
F03C0780
E03C0780
E03C0780
E03C0780
E03C0780
E03C0780
F03C0780
F03C0700
F03C0F00
783E0F00
7C7F1E00
3FE7FE00
1FE3FC00
0F81F000
ENDCHAR
STARTCHAR 03CA
ENCODING 970
SWIDTH 216 0
DWIDTH 9 0
BBX 11 30 -1 0
BITMAP
F1E0
F1E0
F1E0
F1E0
0000
0000
0000
0000
0E00
0E00
0E00
0E00
0E00
0E00
0E00
0E00
0E00
0E00
0E00
0E00
0E00
0E00
0E00
0E00
0E00
0E00
0E00
0E00
0E00
0E00
ENDCHAR
STARTCHAR 03CB
ENCODING 971
SWIDTH 552 0
DWIDTH 23 0
BBX 17 31 3 -1
BITMAP
1E3C00
1E3C00
1E3C00
1E3C00
000000
000000
000000
000000
E00380
E00380
E00380
E00380
E00380
E00380
E00380
E00380
E00380
E00380
E00380
E00380
E00380
E00380
E00380
E00380
E00780
F00780
F80F80
7C1F00
7FFE00
1FFC00
07F000
ENDCHAR
STARTCHAR 03CC
ENCODING 972
SWIDTH 552 0
DWIDTH 23 0
BBX 19 34 2 -1
BITMAP
00E000
00E000
00E000
00E000
00E000
00E000
006000
004000
000000
000000
03F800
0FFE00
1FFF00
3F1F80
7C07C0
7803C0
7001E0
F001E0
F001E0
F000E0
E000E0
E000E0
E000E0
E000E0
F000E0
F001E0
F001E0
7001E0
7803C0
7C07C0
3F1F80
1FFF00
0FFE00
03F800
ENDCHAR
STARTCHAR 03CD
ENCODING 973
SWIDTH 552 0
DWIDTH 23 0
BBX 17 34 3 -1
BITMAP
01C000
01C000
01C000
01C000
01C000
01C000
01C000
008000
008000
000000
000000
E00380
E00380
E00380
E00380
E00380
E00380
E00380
E00380
E00380
E00380
E00380
E00380
E00380
E00380
E00380
E00380
E00780
F00780
F80F80
7C1F00
7FFE00
1FFC00
07F000
ENDCHAR
STARTCHAR 03CE
ENCODING 974
SWIDTH 792 0
DWIDTH 33 0
BBX 25 34 4 -1
BITMAP
001C0000
001C0000
001C0000
001C0000
001C0000
001C0000
00180000
00180000
00080000
00000000
00000000
0F007800
1E003C00
3C003C00
3C001E00
78001E00
783C0F00
703C0F00
F03C0700
F03C0780
F03C0780
E03C0780
E03C0780
E03C0780
E03C0780
E03C0780
F03C0780
F03C0700
F03C0F00
783E0F00
7C7F1E00
3FE7FE00
1FE3FC00
0F81F000
ENDCHAR
STARTCHAR 03D1
ENCODING 977
SWIDTH 552 0
DWIDTH 23 0
BBX 22 32 0 -1
BITMAP
00FC00
03FF00
07FF80
0F87C0
0E03C0
1E01E0
1E00E0
1E00F0
1E00F0
1E0070
0E0070
0F0070
078070
03E070
01FFFC
00FFFC
001FFC
000070
000070
F80070
F80070
F80070
380070
3800F0
3C00F0
3C00E0
1C01E0
1E03C0
0F87C0
0FFF80
03FF00
01FC00
ENDCHAR
STARTCHAR 03D5
ENCODING 981
SWIDTH 552 0
DWIDTH 23 0
BBX 22 37 1 -9
BITMAP
007000
007000
007000
007000
007000
007000
07FF00
0FFFC0
3FFFE0
3C71F0
7870F0
707078
F07078
F07038
E0703C
E0703C
E0703C
E0703C
E0703C
E0703C
F0703C
F07038
F07078
787078
7C70F0
3F73E0
1FFFC0
0FFF80
03FE00
007000
007000
007000
007000
007000
007000
007000
007000
ENDCHAR
STARTCHAR 03D6
ENCODING 982
SWIDTH 792 0
DWIDTH 33 0
BBX 26 23 3 -1
BITMAP
FFFF0000
FFFFE000
FFFFF800
1F00FC00
3E003E00
3C001F00
78000F80
78000780
70000780
701E03C0
F01E03C0
F01E03C0
F01E03C0
F01E03C0
F01E03C0
701E03C0
701E0380
781F0780
783F0780
3E7F8F00
1FFBFE00
0FF3FC00
07C0F800
ENDCHAR
STARTCHAR 0400
ENCODING 1024
SWIDTH 672 0
DWIDTH 28 0
BBX 22 39 4 0
BITMAP
07C000
03E000
01E000
00F000
007800
003800
000000
000000
000000
FFFFF8
FFFFF8
FFFFF8
F00000
F00000
F00000
F00000
F00000
F00000
F00000
F00000
F00000
F00000
FFFFF0
FFFFF0
FFFFF0
F00000
F00000
F00000
F00000
F00000
F00000
F00000
F00000
F00000
F00000
F00000
FFFFFC
FFFFFC
FFFFFC
ENDCHAR
STARTCHAR 0401
ENCODING 1025
SWIDTH 672 0
DWIDTH 28 0
BBX 21 38 4 0
BITMAP
079F00
079F00
079F00
079F00
000000
000000
000000
000000
FFFFF8
FFFFF8
FFFFF8
E00000
E00000
E00000
E00000
E00000
E00000
E00000
E00000
E00000
E00000
FFFFF0
FFFFF0
FFFFF0
E00000
E00000
E00000
E00000
E00000
E00000
E00000
E00000
E00000
E00000
E00000
FFFFF8
FFFFF8
FFFFF8
ENDCHAR
STARTCHAR 0402
ENCODING 1026
SWIDTH 864 0
DWIDTH 36 0
BBX 31 30 1 0
BITMAP
FFFFF800
FFFFF800
FFFFF800
003C0000
003C0000
003C0000
003C0000
003C0000
003C0000
003C0000
003C7FE0
003DFFF8
003FFFFC
003F807E
003E001E
003C001E
003C001E
003C001E
003C001E
003C001E
003C001E
003C001E
003C001E
003C001E
003C001E
003C001E
003C007E
003C1FFC
003C1FF8
003C1FE0
ENDCHAR
STARTCHAR 0403
ENCODING 1027
SWIDTH 552 0
DWIDTH 23 0
BBX 19 39 4 0
BITMAP
00F800
00F000
01E000
03C000
038000
070000
000000
000000
000000
FFFFE0
FFFFE0
FFFFE0
F00000
F00000
F00000
F00000
F00000
F00000
F00000
F00000
F00000
F00000
F00000
F00000
F00000
F00000
F00000
F00000
F00000
F00000
F00000
F00000
F00000
F00000
F00000
F00000
F00000
F00000
F00000
ENDCHAR
STARTCHAR 0404
ENCODING 1028
SWIDTH 720 0
DWIDTH 30 0
BBX 28 32 1 -1
BITMAP
003FC000
00FFF800
03FFFE00
07FDFF00
0F801F80
1F0007C0
3E0003E0
3C0001E0
780001F0
780000E0
F0000000
F0000000
F0000000
F0000000
FFFF8000
FFFF8000
FFFF8000
F0000000
F0000000
F0000000
F00000C0
F80000F0
780000F0
780001E0
3C0001E0
3E0003E0
1F0007C0
0FC01F80
07F9FF00
03FFFE00
00FFF800
003FC000
ENDCHAR
STARTCHAR 0405
ENCODING 1029
SWIDTH 672 0
DWIDTH 28 0
BBX 24 32 2 -1
BITMAP
00FF00
07FFC0
0FFFF0
1FC7F8
3E007C
3C003C
78003C
78001E
78001E
780000
780000
7C0000
3F0000
3FF000
1FFF00
07FFE0
00FFF8
000FFC
0000FE
00003E
00001F
F0000F
F0000F
F0000F
F0000F
78001E
7C001E
3E003C
3FE7FC
0FFFF8
07FFE0
00FF00
ENDCHAR
STARTCHAR 0406
ENCODING 1030
SWIDTH 288 0
DWIDTH 12 0
BBX 4 30 4 0
BITMAP
F0
F0
F0
F0
F0
F0
F0
F0
F0
F0
F0
F0
F0
F0
F0
F0
F0
F0
F0
F0
F0
F0
F0
F0
F0
F0
F0
F0
F0
F0
ENDCHAR
STARTCHAR 0407
ENCODING 1031
SWIDTH 288 0
DWIDTH 12 0
BBX 11 38 0 0
BITMAP
F9E0
F9E0
F9E0
F9E0
0000
0000
0000
0000
0F00
0F00
0F00
0F00
0F00
0F00
0F00
0F00
0F00
0F00
0F00
0F00
0F00
0F00
0F00
0F00
0F00
0F00
0F00
0F00
0F00
0F00
0F00
0F00
0F00
0F00
0F00
0F00
0F00
0F00
ENDCHAR
STARTCHAR 0408
ENCODING 1032
SWIDTH 504 0
DWIDTH 21 0
BBX 17 31 1 -1
BITMAP
000780
000780
000780
000780
000780
000780
000780
000780
000780
000780
000780
000780
000780
000780
000780
000780
000780
000780
000780
000780
F00780
F00780
F00780
F00780
F00F80
F00F00
F81F00
7E7E00
3FFC00
1FF800
07E000
ENDCHAR
STARTCHAR 0409
ENCODING 1033
SWIDTH 1056 0
DWIDTH 44 0
BBX 42 30 1 0
BITMAP
07FFFF000000
07FFFF000000
07FFFF000000
07800F000000
07800F000000
07800F000000
07800F000000
07800F000000
07800F000000
07800F000000
07800F000000
07800F000000
07800F000000
07800FFFFC00
07800FFFFE00
07800FFFFF00
07800F001F80
07800F000780
07800F0007C0
07800F0003C0
07800F0003C0
07800F0003C0
07800F0003C0
0F000F0003C0
0F000F0007C0
1F000F000F80
7E000F007F80
FC000FFFFF00
F8000FFFFE00
F0000FFFF000
ENDCHAR
STARTCHAR 040A
ENCODING 1034
SWIDTH 1008 0
DWIDTH 42 0
BBX 39 30 2 0
BITMAP
F000F00000
F000F00000
F000F00000
F000F00000
F000F00000
F000F00000
F000F00000
F000F00000
F000F00000
F000F00000
F000F00000
F000F00000
F000F00000
FFFFFFFFE0
FFFFFFFFF0
FFFFFFFFF8
F000F000FC
F000F0003C
F000F0003E
F000F0001E
F000F0001E
F000F0001E
F000F0001E
F000F0001E
F000F0003E
F000F0007C
F000F003FC
F000FFFFF8
F000FFFFF0
F000FFFF80
ENDCHAR
STARTCHAR 040B
ENCODING 1035
SWIDTH 864 0
DWIDTH 36 0
BBX 30 30 1 0
BITMAP
FFFFFC00
FFFFFC00
FFFFFC00
00380000
00380000
00380000
00380000
00380000
00380000
00380000
00387F80
0039FFE0
003BFFF0
003FF7F8
003F007C
003C003C
003C003C
003C003C
0038003C
0038003C
0038003C
0038003C
0038003C
0038003C
0038003C
0038003C
0038003C
0038003C
0038003C
0038003C
ENDCHAR
STARTCHAR 040C
ENCODING 1036
SWIDTH 576 0
DWIDTH 24 0
BBX 20 39 3 0
BITMAP
003E00
007800
007000
00E000
01C000
018000
000000
000000
000000
F007C0
F00780
F00F00
F00F00
F01E00
F03E00
F03C00
F07800
F07800
F0F000
F1F000
F1E000
F3C000
FFC000
FF8000
FFC000
F3E000
F1E000
F0F000
F0F800
F07800
F03C00
F03E00
F01F00
F00F00
F00F80
F007C0
F003C0
F001E0
F001F0
ENDCHAR
STARTCHAR 040D
ENCODING 1037
SWIDTH 720 0
DWIDTH 30 0
BBX 24 39 3 0
BITMAP
01F000
00F000
007800
003C00
001C00
000E00
000000
000000
000000
F0000F
F0000F
F0000F
F0000F
F0001F
F0003F
F0007F
F000FF
F001FF
F003EF
F007CF
F007CF
F00F8F
F01F0F
F03E0F
F07C0F
F0F80F
F1F00F
F3E00F
F7C00F
F7C00F
FF800F
FF000F
FE000F
FC000F
F8000F
F0000F
F0000F
F0000F
F0000F
ENDCHAR
STARTCHAR 040E
ENCODING 1038
SWIDTH 624 0
DWIDTH 26 0
BBX 25 39 1 0
BITMAP
0300C000
0380C000
03C1C000
01FFC000
00FF8000
007E0000
00000000
00000000
00000000
F8000F80
F8000F00
7C000F00
7C001F00
3C001E00
3E003E00
1E003C00
1F007C00
0F007800
0F807800
0780F800
0780F000
03C1F000
03C1E000
01E1E000
01E3C000
00F3C000
00F78000
00FF8000
007F8000
007F0000
003F0000
003E0000
001E0000
003C0000
003C0000
00F80000
07F80000
07F00000
07E00000
ENDCHAR
STARTCHAR 040F
ENCODING 1039
SWIDTH 720 0
DWIDTH 30 0
BBX 24 37 3 -7
BITMAP
F0000F
F0000F
F0000F
F0000F
F0000F
F0000F
F0000F
F0000F
F0000F
F0000F
F0000F
F0000F
F0000F
F0000F
F0000F
F0000F
F0000F
F0000F
F0000F
F0000F
F0000F
F0000F
F0000F
F0000F
F0000F
F0000F
F0000F
FFFFFF
FFFFFF
FFFFFF
003C00
003C00
003C00
003C00
003C00
003C00
003C00
ENDCHAR
STARTCHAR 0410
ENCODING 1040
SWIDTH 672 0
DWIDTH 28 0
BBX 26 30 1 0
BITMAP
003F0000
003F0000
003F0000
007F8000
007F8000
00778000
00F3C000
00F3C000
01E3E000
01E1E000
01E1E000
03C1F000
03C0F000
03C0F000
0780F800
07807800
07007800
0F003C00
0FFFFC00
1FFFFC00
1FFFFE00
1E001E00
3C001F00
3C000F00
3C000F00
78000F80
78000780
78000780
F00007C0
F00003C0
ENDCHAR
STARTCHAR 0411
ENCODING 1041
SWIDTH 648 0
DWIDTH 27 0
BBX 23 30 3 0
BITMAP
FFFFF0
FFFFF0
FFFFF0
F00000
F00000
F00000
F00000
F00000
F00000
F00000
F00000
F00000
F00000
FFFFC0
FFFFF0
FFFFF8
F000FC
F0007C
F0003E
F0001E
F0001E
F0001E
F0001E
F0001E
F0003C
F0007C
F003F8
FFFFF8
FFFFE0
FFFF80
ENDCHAR
STARTCHAR 0412
ENCODING 1042
SWIDTH 672 0
DWIDTH 28 0
BBX 23 30 3 0
BITMAP
FFFF00
FFFFE0
FFFFF0
F007F8
F000F8
F00078
F0003C
F0003C
F0003C
F0003C
F00078
F00078
F001F0
FFFFE0
FFFFC0
FFFFF0
F003F8
F0007C
F0003E
F0001E
F0001E
F0001E
F0001E
F0001E
F0003E
F0007C
F003FC
FFFFF8
FFFFF0
FFFF80
ENDCHAR
STARTCHAR 0413
ENCODING 1043
SWIDTH 552 0
DWIDTH 23 0
BBX 19 30 3 0
BITMAP
FFFFE0
FFFFE0
FFFFE0
F00000
F00000
F00000
F00000
F00000
F00000
F00000
F00000
F00000
F00000
F00000
F00000
F00000
F00000
F00000
F00000
F00000
F00000
F00000
F00000
F00000
F00000
F00000
F00000
F00000
F00000
F00000
ENDCHAR
STARTCHAR 0414
ENCODING 1044
SWIDTH 672 0
DWIDTH 28 0
BBX 28 37 0 -7
BITMAP
00FFFF80
00FFFF80
00FFFF80
00F00780
00F00780
00F00780
00F00780
00F00780
00F00780
00F00780
00F00780
00F00780
00F00780
00F00780
00F00780
00F00780
00F00780
00F00780
00E00780
01E00780
01E00780
01E00780
03C00780
03C00780
07800780
0F000780
7E000780
FFFFFFF0
FFFFFFF0
FFFFFFF0
F00000F0
F00000F0
F00000F0
F00000F0
F00000F0
F00000F0
F00000F0
ENDCHAR
STARTCHAR 0415
ENCODING 1045
SWIDTH 672 0
DWIDTH 28 0
BBX 21 30 4 0
BITMAP
FFFFF8
FFFFF8
FFFFF8
E00000
E00000
E00000
E00000
E00000
E00000
E00000
E00000
E00000
E00000
FFFFF0
FFFFF0
FFFFF0
E00000
E00000
E00000
E00000
E00000
E00000
E00000
E00000
E00000
E00000
E00000
FFFFF8
FFFFF8
FFFFF8
ENDCHAR
STARTCHAR 0416
ENCODING 1046
SWIDTH 912 0
DWIDTH 38 0
BBX 39 30 0 0
BITMAP
3C007800F8
3E007800F0
1E007801F0
1F007801E0
0F007803C0
07807807C0
07C0780780
03C0780F80
03E0780F00
01E0781E00
00F0783E00
00F8783C00
0078787C00
007FFFF800
003FFFF800
007FFFF800
0078783C00
00F0783E00
01F0781E00
01E0780F00
03C0780F80
07C0780780
07807803C0
0F007803E0
1F007801E0
1E007800F0
3C007800F8
7C00780078
F80078003C
F00078003E
ENDCHAR
STARTCHAR 0417
ENCODING 1047
SWIDTH 600 0
DWIDTH 25 0
BBX 21 32 2 -1
BITMAP
01FC00
07FF00
0FFF80
1FDFC0
3E03E0
3C01E0
3C01F0
7800F0
7800F0
7800F0
0001E0
0001E0
0003E0
001FC0
007F80
007F80
007FC0
0007E0
0001F0
0000F0
0000F8
000078
F00078
F00078
780070
7800F0
7C00F0
3E01E0
3FDFE0
1FFFC0
07FF80
01FC00
ENDCHAR
STARTCHAR 0418
ENCODING 1048
SWIDTH 720 0
DWIDTH 30 0
BBX 24 30 3 0
BITMAP
F0000F
F0000F
F0000F
F0000F
F0001F
F0003F
F0007F
F000FF
F001FF
F003EF
F007CF
F007CF
F00F8F
F01F0F
F03E0F
F07C0F
F0F80F
F1F00F
F3E00F
F7C00F
F7C00F
FF800F
FF000F
FE000F
FC000F
F8000F
F0000F
F0000F
F0000F
F0000F
ENDCHAR
STARTCHAR 0419
ENCODING 1049
SWIDTH 720 0
DWIDTH 30 0
BBX 24 39 3 0
BITMAP
0300C0
0301C0
0383C0
03FF80
01FF00
007E00
000000
000000
000000
F0000F
F0000F
F0000F
F0000F
F0001F
F0003F
F0007F
F000FF
F001FF
F003EF
F007CF
F0078F
F00F8F
F01F0F
F03E0F
F07C0F
F0F80F
F1F00F
F3E00F
F7C00F
F7C00F
FF800F
FF000F
FE000F
FC000F
F8000F
F0000F
F0000F
F0000F
F0000F
ENDCHAR
STARTCHAR 041A
ENCODING 1050
SWIDTH 576 0
DWIDTH 24 0
BBX 20 30 3 0
BITMAP
F007C0
F00780
F00F00
F00F00
F01E00
F03E00
F03C00
F07C00
F07800
F0F000
F1F000
F1E000
F3E000
FFC000
FFC000
FFC000
F1E000
F1F000
F0F000
F07800
F07C00
F03C00
F01E00
F01F00
F00F00
F00780
F007C0
F003C0
F001E0
F001F0
ENDCHAR
STARTCHAR 041B
ENCODING 1051
SWIDTH 648 0
DWIDTH 27 0
BBX 25 30 0 0
BITMAP
07FFFF80
07FFFF80
07FFFF80
07800780
07800780
07800780
07800780
07800780
07800780
07800780
07800780
07800780
07800780
07800780
07800780
07800780
07800780
07800780
07800780
07800780
07800780
07800780
07800780
0F000780
0F000780
1F000780
7E000780
FC000780
F8000780
E0000780
ENDCHAR
STARTCHAR 041C
ENCODING 1052
SWIDTH 840 0
DWIDTH 35 0
BBX 29 30 3 0
BITMAP
FC0001F8
FC0001F8
FC0003F8
FE0003F8
FE0003F8
FE0007F8
FF000778
F7000778
F7000F78
F7800E78
F3800E78
F3801E78
F3C01C78
F1C01C78
F1C03C78
F1E03878
F0E03878
F0E07878
F0F07078
F0707078
F078F078
F078E078
F038E078
F03DE078
F03DC078
F01DC078
F01FC078
F00F8078
F00F8078
F00F8078
ENDCHAR
STARTCHAR 041D
ENCODING 1053
SWIDTH 720 0
DWIDTH 30 0
BBX 24 30 3 0
BITMAP
F0000F
F0000F
F0000F
F0000F
F0000F
F0000F
F0000F
F0000F
F0000F
F0000F
F0000F
F0000F
F0000F
FFFFFF
FFFFFF
FFFFFF
F0000F
F0000F
F0000F
F0000F
F0000F
F0000F
F0000F
F0000F
F0000F
F0000F
F0000F
F0000F
F0000F
F0000F
ENDCHAR
STARTCHAR 041E
ENCODING 1054
SWIDTH 768 0
DWIDTH 32 0
BBX 29 32 2 -1
BITMAP
003FC000
00FFF800
03FFFE00
07F9FF00
0F801F80
1F0007C0
3E0003C0
3C0001E0
780001E0
780000F0
F00000F0
F00000F0
F0000078
F0000078
E0000078
E0000078
E0000078
F0000078
F0000078
F0000078
F00000F0
F00000F0
780000F0
780001E0
7C0001E0
3E0003C0
1F0007C0
1F801F80
0FF9FF00
03FFFE00
01FFF800
003FC000
ENDCHAR
STARTCHAR 041F
ENCODING 1055
SWIDTH 720 0
DWIDTH 30 0
BBX 24 30 3 0
BITMAP
FFFFFF
FFFFFF
FFFFFF
F0000F
F0000F
F0000F
F0000F
F0000F
F0000F
F0000F
F0000F
F0000F
F0000F
F0000F
F0000F
F0000F
F0000F
F0000F
F0000F
F0000F
F0000F
F0000F
F0000F
F0000F
F0000F
F0000F
F0000F
F0000F
F0000F
F0000F
ENDCHAR
STARTCHAR 0420
ENCODING 1056
SWIDTH 672 0
DWIDTH 28 0
BBX 22 30 4 0
BITMAP
FFFF00
FFFFC0
FFFFF0
F00FF0
F000F8
F00078
F0007C
F0003C
F0003C
F0003C
F0007C
F00078
F000F8
F001F8
FFFFF0
FFFFE0
FFFF80
F00000
F00000
F00000
F00000
F00000
F00000
F00000
F00000
F00000
F00000
F00000
F00000
F00000
ENDCHAR
STARTCHAR 0421
ENCODING 1057
SWIDTH 720 0
DWIDTH 30 0
BBX 26 32 2 -1
BITMAP
003FC000
01FFF800
03FFFC00
07F9FE00
0F801F00
1F000F80
3E000780
3C0007C0
780003C0
780003C0
70000000
F0000000
F0000000
F0000000
F0000000
F0000000
F0000000
F0000000
F0000000
F0000000
F00003C0
F80003C0
780003C0
780003C0
3C0007C0
3E000780
1F000F80
1F803F00
0FF9FE00
07FFFC00
01FFF000
003F8000
ENDCHAR
STARTCHAR 0422
ENCODING 1058
SWIDTH 600 0
DWIDTH 25 0
BBX 24 30 1 0
BITMAP
FFFFFF
FFFFFF
FFFFFF
003C00
003C00
003C00
003C00
003C00
003C00
003C00
003C00
003C00
003C00
003C00
003C00
003C00
003C00
003C00
003C00
003C00
003C00
003C00
003C00
003C00
003C00
003C00
003C00
003C00
003C00
003C00
ENDCHAR
STARTCHAR 0423
ENCODING 1059
SWIDTH 624 0
DWIDTH 26 0
BBX 25 30 1 0
BITMAP
F8000F80
F8000F00
7C000F00
7C001F00
3C001E00
3E003E00
1E003C00
1F007C00
0F007800
0F807800
0780F800
0780F000
03C1F000
03C1E000
01E1E000
01E3C000
00F3C000
00F78000
00FF8000
007F8000
007F0000
003F0000
003E0000
001E0000
003C0000
003C0000
00F80000
07F80000
07F00000
07E00000
ENDCHAR
STARTCHAR 0424
ENCODING 1060
SWIDTH 768 0
DWIDTH 32 0
BBX 30 32 1 -1
BITMAP
00078000
00078000
00078000
00078000
007FF800
01FFFF00
07FFFF80
0FF7BFC0
1F0787E0
3E0781F0
7C0780F0
780780F8
78078078
F0078078
F0078078
F007803C
F007803C
F0078038
F0078078
78078078
78078078
7C0780F0
3E0781F0
1F8787E0
0FF7BFC0
07FFFF80
03FFFE00
007FF800
00078000
00078000
00078000
00078000
ENDCHAR
STARTCHAR 0425
ENCODING 1061
SWIDTH 672 0
DWIDTH 28 0
BBX 26 30 1 0
BITMAP
7C000F80
3C000F00
3E001F00
1F001E00
0F003C00
0F807C00
07C07800
03C0F000
03E1E000
01F1E000
00F3C000
00FF8000
007F8000
003F0000
003E0000
003F0000
007F8000
007F8000
00F3C000
01F3E000
03E1E000
03C0F000
07C0F800
0F807800
0F007C00
1F003E00
3E001F00
3C001F00
7C000F80
F80007C0
ENDCHAR
STARTCHAR 0426
ENCODING 1062
SWIDTH 744 0
DWIDTH 31 0
BBX 26 37 3 -7
BITMAP
F0000F00
F0000F00
F0000F00
F0000F00
F0000F00
F0000F00
F0000F00
F0000F00
F0000F00
F0000F00
F0000F00
F0000F00
F0000F00
F0000F00
F0000F00
F0000F00
F0000F00
F0000F00
F0000F00
F0000F00
F0000F00
F0000F00
F0000F00
F0000F00
F0000F00
F0000F00
F0000F00
FFFFFFC0
FFFFFFC0
FFFFFFC0
000003C0
000003C0
000003C0
000003C0
000003C0
000003C0
000003C0
ENDCHAR
STARTCHAR 0427
ENCODING 1063
SWIDTH 672 0
DWIDTH 28 0
BBX 23 30 2 0
BITMAP
F0001E
F0001E
F0001E
F0001E
F0001E
F0001E
F0001E
F0001E
F0001E
F0001E
F0001E
F0001E
F0001E
F0001E
F8001E
7C001E
7FC7FE
3FFFFE
0FFFFE
03FF1E
00001E
00001E
00001E
00001E
00001E
00001E
00001E
00001E
00001E
00001E
ENDCHAR
STARTCHAR 0428
ENCODING 1064
SWIDTH 912 0
DWIDTH 38 0
BBX 34 30 2 0
BITMAP
F001E003C0
F001E003C0
F001E003C0
F001E003C0
F001E003C0
F001E003C0
F001E003C0
F001E003C0
F001E003C0
F001E003C0
F001E003C0
F001E003C0
F001E003C0
F001E003C0
F001E003C0
F001E003C0
F001E003C0
F001E003C0
F001E003C0
F001E003C0
F001E003C0
F001E003C0
F001E003C0
F001E003C0
F001E003C0
F001E003C0
F001E003C0
FFFFFFFFC0
FFFFFFFFC0
FFFFFFFFC0
ENDCHAR
STARTCHAR 0429
ENCODING 1065
SWIDTH 936 0
DWIDTH 39 0
BBX 37 37 2 -7
BITMAP
F001E001E0
F001E001E0
F001E001E0
F001E001E0
F001E001E0
F001E001E0
F001E001E0
F001E001E0
F001E001E0
F001E001E0
F001E001E0
F001E001E0
F001E001E0
F001E001E0
F001E001E0
F001E001E0
F001E001E0
F001E001E0
F001E001E0
F001E001E0
F001E001E0
F001E001E0
F001E001E0
F001E001E0
F001E001E0
F001E001E0
F001E001E0
FFFFFFFFF8
FFFFFFFFF8
FFFFFFFFF8
0000000078
0000000078
0000000078
0000000078
0000000078
0000000078
0000000078
ENDCHAR
STARTCHAR 042A
ENCODING 1066
SWIDTH 792 0
DWIDTH 33 0
BBX 33 30 -1 0
BITMAP
FFFE000000
FFFE000000
FFFE000000
001E000000
001E000000
001E000000
001E000000
001E000000
001E000000
001E000000
001E000000
001E000000
001E000000
001FFFF000
001FFFFC00
001FFFFE00
001E003F00
001E001F00
001E000F00
001E000780
001E000780
001E000780
001E000780
001E000F80
001E000F00
001E001F00
001E01FE00
001FFFFE00
001FFFF800
001FFFE000
ENDCHAR
STARTCHAR 042B
ENCODING 1067
SWIDTH 888 0
DWIDTH 37 0
BBX 29 30 4 0
BITMAP
E0000078
E0000078
E0000078
E0000078
E0000078
E0000078
E0000078
E0000078
E0000078
E0000078
E0000078
E0000078
E0000078
FFFFC078
FFFFE078
FFFFF078
E001F878
E0007C78
E0003C78
E0003C78
E0003C78
E0003C78
E0003C78
E0003C78
E0007C78
E000F878
E007F878
FFFFF078
FFFFE078
FFFF0078
ENDCHAR
STARTCHAR 042C
ENCODING 1068
SWIDTH 648 0
DWIDTH 27 0
BBX 23 30 3 0
BITMAP
F00000
F00000
F00000
F00000
F00000
F00000
F00000
F00000
F00000
F00000
F00000
F00000
F00000
FFFFC0
FFFFF0
FFFFF8
F000FC
F0007C
F0003E
F0001E
F0001E
F0001E
F0001E
F0001E
F0003C
F0007C
F003FC
FFFFF8
FFFFE0
FFFF80
ENDCHAR
STARTCHAR 042D
ENCODING 1069
SWIDTH 720 0
DWIDTH 30 0
BBX 28 32 1 -1
BITMAP
003FC000
01FFF800
07FFFC00
0FFBFE00
1F803F00
3E000F80
3C0007C0
780003E0
F80001E0
700001E0
000000F0
000000F0
000000F0
000000F0
001FFFF0
001FFFF0
001FFFF0
000000F0
000000F0
000000F0
300000F0
F00000F0
F00001E0
F80001E0
780003C0
7C0007C0
3E000F80
1F801F00
0FF9FE00
07FFFC00
01FFF000
003FC000
ENDCHAR
STARTCHAR 042E
ENCODING 1070
SWIDTH 1008 0
DWIDTH 42 0
BBX 37 32 3 -1
BITMAP
00000FF000
F0003FFC00
F000FFFF00
F001FE7F80
F003F00FC0
F007C003E0
F00F8001E0
F00F0001F0
F01F0000F0
F01E0000F0
F01E000078
F01C000078
F03C000078
F03C000078
FFFC000078
FFFC000078
FFFC000078
F03C000078
F03C000078
F03C000078
F01E000078
F01E000078
F01E0000F0
F00F0000F0
F00F0001F0
F00F8001E0
F007C003E0
F003F00FC0
F001FE7F80
F000FFFF00
F0003FFC00
00000FF000
ENDCHAR
STARTCHAR 042F
ENCODING 1071
SWIDTH 720 0
DWIDTH 30 0
BBX 23 30 3 0
BITMAP
03FFFE
0FFFFE
3FFFFE
3F801E
7C001E
78001E
F8001E
F0001E
F0001E
F0001E
78001E
78001E
3C001E
3F801E
0FFFFE
0FFFFE
1FFFFE
3E001E
7C001E
78001E
78001E
78001E
78001E
78001E
78001E
78001E
78001E
70001E
F0001E
F0001E
ENDCHAR
STARTCHAR 0430
ENCODING 1072
SWIDTH 552 0
DWIDTH 23 0
BBX 20 24 2 -1
BITMAP
03F800
0FFF00
3FFF80
3E0F80
7807C0
7803C0
7003C0
0003C0
0003C0
000FC0
03FFC0
1FFFC0
3FFBC0
7E03C0
F803C0
F003C0
E003C0
E003C0
F007C0
F00FC0
F83FC0
7FFBF0
3FF1F0
0FC0F0
ENDCHAR
STARTCHAR 0431
ENCODING 1073
SWIDTH 576 0
DWIDTH 24 0
BBX 20 34 2 -1
BITMAP
000700
000700
000F00
000F00
007E00
03FE00
0FFC00
1FE000
1E0000
3C0000
38F800
77FE00
7FFF80
7F0FC0
7C03C0
F803E0
F801E0
F000E0
F000F0
F000F0
F000F0
F000F0
F000F0
F000F0
F000F0
F000F0
7000E0
7801E0
7801E0
3C03C0
3F0FC0
1FFF80
07FE00
01F800
ENDCHAR
STARTCHAR 0432
ENCODING 1074
SWIDTH 528 0
DWIDTH 22 0
BBX 19 22 2 0
BITMAP
FFFC00
FFFF00
FFFF80
F007C0
F003C0
F003C0
F003C0
F003C0
F00780
FFFF80
FFFF00
FFFF80
F003C0
F001E0
F001E0
F001E0
F001E0
F001E0
F003E0
FFFFC0
FFFF80
FFFE00
ENDCHAR
STARTCHAR 0433
ENCODING 1075
SWIDTH 360 0
DWIDTH 15 0
BBX 14 22 2 0
BITMAP
FFFC
FFFC
FFFC
F000
F000
F000
F000
F000
F000
F000
F000
F000
F000
F000
F000
F000
F000
F000
F000
F000
F000
F000
ENDCHAR
STARTCHAR 0434
ENCODING 1076
SWIDTH 576 0
DWIDTH 24 0
BBX 22 26 1 -4
BITMAP
03FFF0
03FFF0
03FFF0
0380F0
0380F0
0380F0
0380F0
0380F0
0380F0
0380F0
0780F0
0780F0
0700F0
0F00F0
0F00F0
1E00F0
1E00F0
3C00F0
7800F0
FFFFFC
FFFFFC
FFFFFC
E0003C
E0003C
E0003C
E0003C
ENDCHAR
STARTCHAR 0435
ENCODING 1077
SWIDTH 552 0
DWIDTH 23 0
BBX 19 24 2 -1
BITMAP
01F800
07FE00
1FFF00
3F1F80
3C07C0
7803C0
7001E0
F001E0
F000E0
F000E0
FFFFE0
FFFFE0
FFFFE0
E00000
E00000
F00000
F000E0
7001E0
7801C0
7C03C0
3F0F80
1FFF00
0FFE00
03F800
ENDCHAR
STARTCHAR 0436
ENCODING 1078
SWIDTH 672 0
DWIDTH 28 0
BBX 28 22 0 0
BITMAP
780F03C0
3C0F03C0
3E0F0780
1E0F0780
0F0F0F00
0F0F0F00
078F1E00
078F1E00
03FFFC00
03FFFC00
03FFFC00
078F1E00
078F1E00
0F0F0F00
0F0F0F00
1E0F0780
3E0F0780
3C0F03C0
780F03E0
780F01E0
F00F00F0
F00F00F0
ENDCHAR
STARTCHAR 0437
ENCODING 1079
SWIDTH 456 0
DWIDTH 19 0
BBX 15 24 2 -1
BITMAP
07E0
1FF0
3FF8
7C7C
783E
701E
F01E
F01E
001C
007C
03F8
03F0
03F8
007C
001E
001E
E00E
E00E
F01E
F01E
7C7C
7FFC
3FF0
0FE0
ENDCHAR
STARTCHAR 0438
ENCODING 1080
SWIDTH 552 0
DWIDTH 23 0
BBX 17 22 3 0
BITMAP
F00780
F00780
F00780
F00F80
F01F80
F01F80
F03F80
F07F80
F07780
F0F780
F1E780
F3C780
F38780
F78780
FF0780
FE0780
FC0780
FC0780
F80780
F00780
F00780
F00780
ENDCHAR
STARTCHAR 0439
ENCODING 1081
SWIDTH 552 0
DWIDTH 23 0
BBX 17 31 3 0
BITMAP
380E00
380E00
1C1C00
1FFC00
0FF800
03E000
000000
000000
000000
F00780
F00780
F00780
F00F80
F01F80
F01F80
F03F80
F07F80
F07780
F0F780
F1E780
F3C780
F38780
F78780
FF0780
FE0780
FC0780
FC0780
F80780
F00780
F00780
F00780
ENDCHAR
STARTCHAR 043A
ENCODING 1082
SWIDTH 432 0
DWIDTH 18 0
BBX 17 22 2 0
BITMAP
E01F00
E01E00
E03C00
E03C00
E07800
E07800
E0F000
E0F000
FFE000
FFE000
FFE000
E0F000
E0F000
E07800
E07800
E03C00
E03E00
E01E00
E00F00
E00F00
E00780
E00780
ENDCHAR
STARTCHAR 043B
ENCODING 1083
SWIDTH 576 0
DWIDTH 24 0
BBX 20 22 1 0
BITMAP
0FFFF0
0FFFF0
0FFFF0
0E00F0
0E00F0
0E00F0
0E00F0
0E00F0
0E00F0
0E00F0
0E00F0
0E00F0
0E00F0
0E00F0
0E00F0
1E00F0
1E00F0
3C00F0
7C00F0
F800F0
F000F0
E000F0
ENDCHAR
STARTCHAR 043C
ENCODING 1084
SWIDTH 696 0
DWIDTH 29 0
BBX 25 22 2 0
BITMAP
F8001F80
FC001F80
FC001F80
FC003F80
EE003F80
EE007780
E7007780
E7007780
E700E780
E380E780
E381E780
E3C1C780
E1C1C780
E1C38780
E0E38780
E0E78780
E0F70780
E0770780
E07E0780
E03E0780
E03E0780
E03C0780
ENDCHAR
STARTCHAR 043D
ENCODING 1085
SWIDTH 552 0
DWIDTH 23 0
BBX 17 22 3 0
BITMAP
F00380
F00380
F00380
F00380
F00380
F00380
F00380
F00380
F00380
FFFF80
FFFF80
FFFF80
F00380
F00380
F00380
F00380
F00380
F00380
F00380
F00380
F00380
F00380
ENDCHAR
STARTCHAR 043E
ENCODING 1086
SWIDTH 552 0
DWIDTH 23 0
BBX 19 24 2 -1
BITMAP
03F800
0FFE00
1FFF00
3F1F80
7C07C0
7803C0
7001E0
F001E0
F001E0
F000E0
E000E0
E000E0
E000E0
E000E0
F000E0
F001E0
F001E0
7001E0
7803C0
7C07C0
3F1F80
1FFF00
0FFE00
03F800
ENDCHAR
STARTCHAR 043F
ENCODING 1087
SWIDTH 552 0
DWIDTH 23 0
BBX 17 22 3 0
BITMAP
FFFF80
FFFF80
FFFF80
E00780
E00780
E00780
E00780
E00780
E00780
E00780
E00780
E00780
E00780
E00780
E00780
E00780
E00780
E00780
E00780
E00780
E00780
E00780
ENDCHAR
STARTCHAR 0440
ENCODING 1088
SWIDTH 552 0
DWIDTH 23 0
BBX 20 32 2 -9
BITMAP
00FC00
F3FF00
F7FF80
FF0FC0
FE07C0
FC03E0
F801E0
F800E0
F000F0
F000F0
F000F0
F000F0
F000F0
F000F0
F000F0
F000F0
F800E0
F801E0
FC01E0
FE03C0
FF0FC0
FFFF80
F3FF00
F1FC00
F00000
F00000
F00000
F00000
F00000
F00000
F00000
F00000
ENDCHAR
STARTCHAR 0441
ENCODING 1089
SWIDTH 504 0
DWIDTH 21 0
BBX 19 24 1 -1
BITMAP
01F800
07FE00
0FFF80
1F0F80
3C03C0
3C03C0
7801C0
7801E0
700000
F00000
F00000
F00000
F00000
F00000
F00000
7001E0
7801E0
7801C0
7C03C0
3C07C0
1F0F80
1FFF00
07FE00
01F800
ENDCHAR
STARTCHAR 0442
ENCODING 1090
SWIDTH 456 0
DWIDTH 19 0
BBX 17 22 1 0
BITMAP
FFFF80
FFFF80
FFFF80
01C000
01C000
01C000
01C000
01C000
01C000
01C000
01C000
01C000
01C000
01C000
01C000
01C000
01C000
01C000
01C000
01C000
01C000
01C000
ENDCHAR
STARTCHAR 0443
ENCODING 1091
SWIDTH 504 0
DWIDTH 21 0
BBX 19 31 1 -9
BITMAP
F001E0
F001C0
7003C0
7803C0
780380
380780
3C0780
3C0700
1C0F00
1E0F00
1E0E00
0E1E00
0F1C00
0F1C00
073C00
07B800
07F800
03F800
03F000
03F000
01E000
01E000
01E000
01C000
03C000
03C000
038000
4F8000
7F0000
7E0000
7C0000
ENDCHAR
STARTCHAR 0444
ENCODING 1092
SWIDTH 816 0
DWIDTH 34 0
BBX 28 37 3 -9
BITMAP
000F0000
000F0000
000F0000
000F0000
000F0000
000F0000
01FFF800
07FFFE00
0FFFFF80
1F8F0FC0
3E0F03C0
7C0F01E0
780F00F0
700F00F0
F00F00F0
F00F0070
F00F0070
F00F0070
F00F0070
F00F0070
F00F00F0
780F00F0
780F01E0
3C0F03E0
3F0F07C0
1FCF3F80
0FFFFF00
03FFFC00
007FE000
000F0000
000F0000
000F0000
000F0000
000F0000
000F0000
000F0000
000F0000
ENDCHAR
STARTCHAR 0445
ENCODING 1093
SWIDTH 504 0
DWIDTH 21 0
BBX 18 22 1 0
BITMAP
F803C0
7803C0
3C0780
1E0F00
1E0F00
0F1E00
07BC00
07BC00
03F800
01F000
01F000
01F000
03F800
03F800
07BC00
0F1E00
0E1E00
1E0F00
3C0700
380780
7803C0
F003C0
ENDCHAR
STARTCHAR 0446
ENCODING 1094
SWIDTH 576 0
DWIDTH 24 0
BBX 18 29 4 -7
BITMAP
E00F00
E00F00
E00F00
E00F00
E00F00
E00F00
E00F00
E00F00
E00F00
E00F00
E00F00
E00F00
E00F00
E00F00
E00F00
E00F00
E00F00
E00F00
E00F00
FFFFC0
FFFFC0
FFFFC0
0003C0
0003C0
0003C0
0003C0
0003C0
0003C0
0003C0
ENDCHAR
STARTCHAR 0447
ENCODING 1095
SWIDTH 528 0
DWIDTH 22 0
BBX 17 22 2 0
BITMAP
F00780
F00780
F00780
F00780
F00780
F00780
F00780
F00780
F00780
F00780
F80780
7C1F80
7FFF80
3FFF80
0FE780
000780
000780
000780
000780
000780
000780
000780
ENDCHAR
STARTCHAR 0448
ENCODING 1096
SWIDTH 792 0
DWIDTH 33 0
BBX 28 22 3 0
BITMAP
E00E00F0
E00E00F0
E00E00F0
E00E00F0
E00E00F0
E00E00F0
E00E00F0
E00E00F0
E00E00F0
E00E00F0
E00E00F0
E00E00F0
E00E00F0
E00E00F0
E00E00F0
E00E00F0
E00E00F0
E00E00F0
E00E00F0
FFFFFFF0
FFFFFFF0
FFFFFFF0
ENDCHAR
STARTCHAR 0449
ENCODING 1097
SWIDTH 816 0
DWIDTH 34 0
BBX 30 29 3 -7
BITMAP
E00F00F0
E00F00F0
E00F00F0
E00F00F0
E00F00F0
E00F00F0
E00F00F0
E00F00F0
E00F00F0
E00F00F0
E00F00F0
E00F00F0
E00F00F0
E00F00F0
E00F00F0
E00F00F0
E00F00F0
E00F00F0
E00F00F0
FFFFFFFC
FFFFFFFC
FFFFFFFC
0000003C
0000003C
0000003C
0000003C
0000003C
0000003C
0000003C
ENDCHAR
STARTCHAR 044A
ENCODING 1098
SWIDTH 624 0
DWIDTH 26 0
BBX 26 22 -1 0
BITMAP
FFF00000
FFF00000
FFF00000
00700000
00700000
00700000
00700000
00700000
00700000
007FFE00
007FFF00
007FFF80
007007C0
007003C0
007001C0
007001C0
007001C0
007003C0
007007C0
007FFF80
007FFF00
007FFC00
ENDCHAR
STARTCHAR 044B
ENCODING 1099
SWIDTH 720 0
DWIDTH 30 0
BBX 24 22 3 0
BITMAP
F0000F
F0000F
F0000F
F0000F
F0000F
F0000F
F0000F
F0000F
F0000F
FFFC0F
FFFF0F
FFFF8F
F0078F
F003CF
F003CF
F003CF
F003CF
F003CF
F0078F
FFFF8F
FFFF0F
FFFC0F
ENDCHAR
STARTCHAR 044C
ENCODING 1100
SWIDTH 528 0
DWIDTH 22 0
BBX 17 22 3 0
BITMAP
E00000
E00000
E00000
E00000
E00000
E00000
E00000
E00000
E00000
FFFC00
FFFE00
FFFF00
E00F80
E00780
E00380
E00380
E00380
E00780
E00F80
FFFF00
FFFE00
FFF800
ENDCHAR
STARTCHAR 044D
ENCODING 1101
SWIDTH 504 0
DWIDTH 21 0
BBX 19 24 1 -1
BITMAP
03F800
0FFE00
1FFF00
3F1F80
7C07C0
7803C0
F001E0
7001E0
0001E0
0000E0
00FFE0
00FFE0
00FFE0
0000E0
0000E0
F001E0
F001E0
F001C0
7803C0
7C07C0
3F1F80
1FFF00
0FFE00
03F800
ENDCHAR
STARTCHAR 044E
ENCODING 1102
SWIDTH 744 0
DWIDTH 31 0
BBX 28 24 2 -1
BITMAP
0001FC00
F007FF00
F00FFF80
F01F8FC0
F03E03E0
F03C01E0
F07801F0
F07800F0
F07800F0
F07000F0
FFF00070
FFF00070
FFF00070
F0700070
F0700070
F07800F0
F07800F0
F07800F0
F03C01E0
F03E03E0
F01F8FC0
F00FFF80
F007FF00
0001FC00
ENDCHAR
STARTCHAR 044F
ENCODING 1103
SWIDTH 552 0
DWIDTH 23 0
BBX 17 22 2 0
BITMAP
0FFF80
3FFF80
7FFF80
780380
F00380
F00380
F00380
F00380
F00380
780380
7FFF80
1FFF80
0FFF80
3C0380
380380
780380
780380
780380
780380
780380
780380
700380
ENDCHAR
STARTCHAR 0450
ENCODING 1104
SWIDTH 552 0
DWIDTH 23 0
BBX 19 32 2 -1
BITMAP
0F8000
078000
03C000
01E000
007000
003000
000000
000000
01F800
0FFE00
1FFF00
3F1F80
3C07C0
7803C0
7001E0
F001E0
F001E0
E000E0
FFFFE0
FFFFE0
FFFFE0
E00000
E00000
F00000
F001E0
F001E0
7803C0
7C07C0
3F0F80
1FFF00
0FFE00
03F800
ENDCHAR
STARTCHAR 0451
ENCODING 1105
SWIDTH 552 0
DWIDTH 23 0
BBX 20 31 2 -1
BITMAP
0F1E00
0F1E00
0F1E00
0F1E00
000000
000000
000000
01F800
07FE00
1FFF00
3F1F80
3C07C0
7803E0
7001E0
F001E0
F000E0
F000E0
FFFFE0
FFFFF0
FFFFF0
E00000
F00000
F00000
F000E0
7001E0
7801C0
7C03C0
3F0F80
1FFF00
0FFE00
03F800
ENDCHAR
STARTCHAR 0452
ENCODING 1106
SWIDTH 552 0
DWIDTH 23 0
BBX 22 35 -1 -5
BITMAP
0F0000
0F0000
FFF800
FFF800
FFF800
0F0000
0F0000
0F0FC0
0F3FE0
0F7FF0
0FF8F8
0FE078
0FC038
0F803C
0F003C
0F003C
0F003C
0F003C
0F003C
0F003C
0F003C
0F003C
0F003C
0F003C
0F003C
0F003C
0F003C
0F003C
0F003C
0F0038
000078
0000F8
007FF0
007FE0
007F80
ENDCHAR
STARTCHAR 0453
ENCODING 1107
SWIDTH 360 0
DWIDTH 15 0
BBX 13 31 3 0
BITMAP
03E0
03C0
0780
0700
0E00
1C00
0000
0000
0000
FFF8
FFF8
FFF8
E000
E000
E000
E000
E000
E000
E000
E000
E000
E000
E000
E000
E000
E000
E000
E000
E000
E000
E000
ENDCHAR
STARTCHAR 0454
ENCODING 1108
SWIDTH 504 0
DWIDTH 21 0
BBX 19 24 1 -1
BITMAP
01F800
07FE00
1FFF80
3F1F80
3C07C0
7803E0
7801E0
F001C0
F00000
F00000
FFE000
FFE000
FFE000
F00000
F00000
F000E0
F001E0
7801E0
7803C0
3C07C0
3F1F80
1FFF00
0FFE00
03F800
ENDCHAR
STARTCHAR 0455
ENCODING 1109
SWIDTH 504 0
DWIDTH 21 0
BBX 18 24 1 -1
BITMAP
03F800
0FFE00
1FFF00
3E1F80
780780
780780
780380
780000
7C0000
7E0000
3FE000
1FFE00
07FF00
007F80
000FC0
0003C0
F003C0
F003C0
7803C0
7803C0
7F0F80
3FFF00
1FFE00
07F800
ENDCHAR
STARTCHAR 0456
ENCODING 1110
SWIDTH 216 0
DWIDTH 9 0
BBX 3 30 3 0
BITMAP
E0
E0
E0
E0
00
00
00
00
E0
E0
E0
E0
E0
E0
E0
E0
E0
E0
E0
E0
E0
E0
E0
E0
E0
E0
E0
E0
E0
E0
ENDCHAR
STARTCHAR 0457
ENCODING 1111
SWIDTH 288 0
DWIDTH 12 0
BBX 11 30 0 0
BITMAP
F9E0
F9E0
F9E0
F9E0
0000
0000
0000
0000
0F00
0F00
0F00
0F00
0F00
0F00
0F00
0F00
0F00
0F00
0F00
0F00
0F00
0F00
0F00
0F00
0F00
0F00
0F00
0F00
0F00
0F00
ENDCHAR
STARTCHAR 0458
ENCODING 1112
SWIDTH 216 0
DWIDTH 9 0
BBX 7 39 -1 -9
BITMAP
0E
0E
0E
0E
00
00
00
00
0E
0E
0E
0E
0E
0E
0E
0E
0E
0E
0E
0E
0E
0E
0E
0E
0E
0E
0E
0E
0E
0E
0E
0E
0E
0E
0E
1E
FE
FC
F0
ENDCHAR
STARTCHAR 0459
ENCODING 1113
SWIDTH 912 0
DWIDTH 38 0
BBX 34 22 1 0
BITMAP
0FFFF00000
0FFFF00000
0FFFF00000
0E00700000
0E00700000
0E00700000
0E00700000
0E00700000
0E00700000
0E007FFC00
0E007FFF00
0E007FFF80
0E007007C0
0E007003C0
0E007001C0
1E007001C0
1E007001C0
3C007003C0
7C007007C0
F8007FFF80
F0007FFF00
E0007FFC00
ENDCHAR
STARTCHAR 045A
ENCODING 1114
SWIDTH 816 0
DWIDTH 34 0
BBX 31 22 2 0
BITMAP
F0038000
F0038000
F0038000
F0038000
F0038000
F0038000
F0038000
F0038000
F0038000
FFFFFFE0
FFFFFFF8
FFFFFFFC
F003803E
F003801E
F003801E
F003800E
F003801E
F003801E
F003803E
F003FFFC
F003FFF8
F003FFE0
ENDCHAR
STARTCHAR 045B
ENCODING 1115
SWIDTH 552 0
DWIDTH 23 0
BBX 22 30 -1 0
BITMAP
0F0000
0F0000
FFF800
FFF800
FFF800
0F0000
0F0000
0F0FC0
0F3FE0
0F7FF0
0FF8F8
0FE078
0FC038
0F803C
0F003C
0F003C
0F003C
0F003C
0F003C
0F003C
0F003C
0F003C
0F003C
0F003C
0F003C
0F003C
0F003C
0F003C
0F003C
0F003C
ENDCHAR
STARTCHAR 045C
ENCODING 1116
SWIDTH 432 0
DWIDTH 18 0
BBX 17 31 2 0
BITMAP
00F000
01E000
01C000
038000
070000
060000
000000
000000
000000
E01F00
E01E00
E03C00
E03C00
E07800
E07800
E0F000
E0F000
FFE000
FFE000
FFE000
E0F000
E0F000
E07800
E07800
E03C00
E03E00
E01E00
E00F00
E00F00
E00780
E00780
ENDCHAR
STARTCHAR 045D
ENCODING 1117
SWIDTH 552 0
DWIDTH 23 0
BBX 17 31 3 0
BITMAP
1E0000
0F0000
070000
038000
01C000
00C000
000000
000000
000000
F00780
F00780
F00780
F00F80
F01F80
F01F80
F03F80
F07F80
F07780
F0F780
F1E780
F3C780
F38780
F78780
FF0780
FE0780
FC0780
FC0780
F80780
F00780
F00780
F00780
ENDCHAR
STARTCHAR 045E
ENCODING 1118
SWIDTH 504 0
DWIDTH 21 0
BBX 19 40 1 -9
BITMAP
1C0700
1C0600
1E0E00
0FFE00
07FC00
01F000
000000
000000
000000
F001E0
F001C0
7003C0
7803C0
780380
380780
3C0780
3C0700
1C0F00
1E0F00
1E0E00
0E1E00
0F1C00
0F1C00
073C00
07B800
07F800
03F800
03F000
03F000
01E000
01E000
01E000
01C000
03C000
03C000
038000
4F8000
7F0000
7E0000
7C0000
ENDCHAR
STARTCHAR 045F
ENCODING 1119
SWIDTH 552 0
DWIDTH 23 0
BBX 17 29 3 -7
BITMAP
F00780
F00780
F00780
F00780
F00780
F00780
F00780
F00780
F00780
F00780
F00780
F00780
F00780
F00780
F00780
F00780
F00780
F00780
F00780
FFFF80
FFFF80
FFFF80
01C000
01C000
01C000
01C000
01C000
01C000
01C000
ENDCHAR
STARTCHAR 0462
ENCODING 1122
SWIDTH 768 0
DWIDTH 32 0
BBX 31 30 0 0
BITMAP
00F00000
00F00000
00F00000
00F00000
FFFFF000
FFFFF000
FFFFF000
00F00000
00F00000
00F00000
00F00000
00F00000
00F00000
00FFFFC0
00FFFFF0
00FFFFF8
00F001F8
00F0007C
00F0003C
00F0003C
00F0001E
00F0001E
00F0003C
00F0003C
00F0003C
00F0007C
00F007F8
00FFFFF0
00FFFFE0
00FFFF80
ENDCHAR
STARTCHAR 0463
ENCODING 1123
SWIDTH 624 0
DWIDTH 26 0
BBX 21 28 2 0
BITMAP
1E0000
1E0000
1E0000
1E0000
1E0000
1E0000
FFC000
FFC000
FFC000
1E0000
1E0000
1E0000
1E0000
1E0000
1E0000
1FFF80
1FFFE0
1FFFE0
1E00F0
1E0070
1E0078
1E0078
1E0078
1E0070
1E01F0
1FFFE0
1FFFC0
1FFF80
ENDCHAR
STARTCHAR 0472
ENCODING 1138
SWIDTH 768 0
DWIDTH 32 0
BBX 29 32 2 -1
BITMAP
003FC000
00FFF800
03FFFE00
0FF9FF00
1F801F80
1F0007C0
3E0003E0
7C0001E0
780001F0
780000F0
F00000F0
F00000F0
F0000078
F1F80078
EFFE0078
FFFF03F8
FE1FFFF8
F007FFF8
F001FC78
F0000078
F00000F0
F00000F0
780000F0
780001E0
7C0003E0
3E0003C0
1F0007C0
0FC01F80
0FF9FF00
03FFFE00
01FFF800
003FC000
ENDCHAR
STARTCHAR 0473
ENCODING 1139
SWIDTH 552 0
DWIDTH 23 0
BBX 19 24 2 -1
BITMAP
03F800
0FFE00
1FFF00
3F1F80
7C07C0
7803C0
7001E0
F001E0
F001E0
F780E0
FFC1E0
FFE3E0
F8FFE0
E07EE0
F038E0
F001E0
F001E0
7001E0
7803C0
7C07C0
3F1F80
1FFF00
0FFE00
03F800
ENDCHAR
STARTCHAR 0474
ENCODING 1140
SWIDTH 792 0
DWIDTH 33 0
BBX 27 31 4 0
BITMAP
000003E0
F00007E0
F0000FE0
F8001FE0
78001E00
78001E00
3C003C00
3C003C00
3C003C00
1E007800
1E007800
1E007800
0F007800
0F00F000
0F80F000
0780F000
0781E000
03C1E000
03C1E000
03C1C000
01E3C000
01E3C000
01E38000
00F78000
00F78000
00F70000
007F0000
007F0000
007E0000
003E0000
003E0000
ENDCHAR
STARTCHAR 0475
ENCODING 1141
SWIDTH 624 0
DWIDTH 26 0
BBX 20 23 3 0
BITMAP
0000F0
F001F0
7803F0
7803C0
780780
3C0780
3C0780
1C0700
1E0F00
1E0F00
0E0E00
0F0E00
0F1E00
079C00
079C00
079C00
03FC00
03F800
03F800
01F800
01F000
01F000
00F000
ENDCHAR
STARTCHAR 0490
ENCODING 1168
SWIDTH 480 0
DWIDTH 20 0
BBX 24 36 2 0
BITMAP
00000F
00001E
00003C
000038
000070
0000E0
FFFFE0
FFFFE0
FFFFE0
F00000
F00000
F00000
F00000
F00000
F00000
F00000
F00000
F00000
F00000
F00000
F00000
F00000
F00000
F00000
F00000
F00000
F00000
F00000
F00000
F00000
F00000
F00000
F00000
F00000
F00000
F00000
ENDCHAR
STARTCHAR 0491
ENCODING 1169
SWIDTH 408 0
DWIDTH 17 0
BBX 19 28 4 0
BITMAP
0003E0
000780
000700
000E00
001C00
001800
FFF800
FFF800
FFF800
E00000
E00000
E00000
E00000
E00000
E00000
E00000
E00000
E00000
E00000
E00000
E00000
E00000
E00000
E00000
E00000
E00000
E00000
E00000
ENDCHAR
STARTCHAR 0492
ENCODING 1170
SWIDTH 528 0
DWIDTH 22 0
BBX 21 30 1 0
BITMAP
3FFFF8
3FFFF8
3FFFF8
3C0000
3C0000
3C0000
3C0000
3C0000
3C0000
3C0000
3C0000
3C0000
3C0000
FFFF80
FFFF80
FFFF80
3C0000
3C0000
3C0000
3C0000
3C0000
3C0000
3C0000
3C0000
3C0000
3C0000
3C0000
3C0000
3C0000
3C0000
ENDCHAR
STARTCHAR 0493
ENCODING 1171
SWIDTH 384 0
DWIDTH 16 0
BBX 15 22 1 0
BITMAP
3FFE
3FFE
3FFE
3800
3800
3800
3800
3800
FFF0
FFF0
FFF0
3800
3800
3800
3800
3800
3800
3800
3800
3800
3800
3800
ENDCHAR
STARTCHAR 0496
ENCODING 1174
SWIDTH 1032 0
DWIDTH 43 0
BBX 42 36 0 -6
BITMAP
3E003C003C00
1E003C003C00
1F003C007800
0F003C00F800
07803C00F000
07C03C01E000
03C03C01E000
03E03C03C000
01E03C07C000
00F03C078000
00F83C0F8000
00783C0F0000
007C3C1E0000
003FFFFE0000
003FFFFC0000
003FFFFE0000
00783C1F0000
00F83C0F0000
00F03C078000
01E03C07C000
03E03C03C000
03C03C01E000
07803C01F000
0F803C00F000
0F003C007800
1E003C007C00
3E003C003C00
3C003C001FC0
78003C001FC0
F8003C000FC0
0000000001C0
0000000001C0
0000000001C0
0000000001C0
0000000001C0
0000000001C0
ENDCHAR
STARTCHAR 0497
ENCODING 1175
SWIDTH 816 0
DWIDTH 34 0
BBX 34 29 0 -7
BITMAP
3C01C03E00
1E01C03C00
1E01C07C00
0F01C07800
0F01C0F000
0781C0F000
07C1C1E000
03C1C1E000
03FFFFC000
01FFFFC000
03FFFFC000
03C1C1E000
07C1C1E000
0781C0F000
0F01C0F000
0F01C07800
1E01C07C00
1E01C03C00
3C01C01E00
7C01C01FC0
7801C00FC0
F001C00FC0
00000001C0
00000001C0
00000001C0
00000001C0
00000001C0
00000001C0
00000001C0
ENDCHAR
STARTCHAR 0498
ENCODING 1176
SWIDTH 600 0
DWIDTH 25 0
BBX 20 40 3 -9
BITMAP
01F800
0FFE00
1FFF80
3FBF80
3C07C0
7803C0
7801E0
7801E0
F001E0
F001E0
0001E0
0003C0
0007C0
003F80
00FF00
00FE00
00FF80
000FC0
0003E0
0001E0
0000F0
0000F0
E000F0
F000F0
F000F0
F001E0
F801E0
7C03E0
7F1FC0
3FFF80
0FFF00
03FC00
00C000
00A000
01F800
003C00
001C00
083800
1FF800
03E000
ENDCHAR
STARTCHAR 0499
ENCODING 1177
SWIDTH 456 0
DWIDTH 19 0
BBX 15 32 2 -9
BITMAP
07E0
1FF0
3FF8
7C7C
783E
F01E
F01E
F01E
001C
007C
03F8
03F0
03FC
003C
001E
001E
E00E
E00E
F01E
F01E
783C
7FFC
3FF8
0FE0
0300
0380
07E0
00F0
0070
3070
3FE0
0FC0
ENDCHAR
STARTCHAR 049A
ENCODING 1178
SWIDTH 672 0
DWIDTH 28 0
BBX 23 37 3 -7
BITMAP
F003E0
F003C0
F007C0
F00780
F00F00
F01F00
F01E00
F03E00
F03C00
F07800
F0F800
F0F000
F1F000
FFE000
FFE000
FFE000
F0F000
F0F800
F07800
F03C00
F03E00
F01E00
F00F00
F00F80
F00780
F003C0
F003E0
F001FE
F000FE
F000FE
00001E
00001E
00001E
00001E
00001E
00001E
00001E
ENDCHAR
STARTCHAR 049B
ENCODING 1179
SWIDTH 528 0
DWIDTH 22 0
BBX 19 29 3 -7
BITMAP
E00F00
E01E00
E01E00
E03C00
E03C00
E07800
E07800
E0F000
FFF000
FFE000
FFF000
E0F000
E07800
E07800
E03C00
E03C00
E01E00
E01E00
E00F00
E00FE0
E007E0
E003E0
0000E0
0000E0
0000E0
0000E0
0000E0
0000E0
0000E0
ENDCHAR
STARTCHAR 049C
ENCODING 1180
SWIDTH 624 0
DWIDTH 26 0
BBX 22 30 3 0
BITMAP
F000F0
F001F0
F001E0
F003E0
F003C0
F38780
F38780
F38F00
F39F00
F39E00
F3BC00
F3BC00
F3F800
FFF800
FFF000
FFF800
F3FC00
F3BC00
F39E00
F39F00
F38F00
F38780
F387C0
F003C0
F001E0
F001F0
F000F0
F00078
F0007C
F0003C
ENDCHAR
STARTCHAR 049D
ENCODING 1181
SWIDTH 504 0
DWIDTH 21 0
BBX 18 22 3 0
BITMAP
E00F00
E01E00
E01E00
E33C00
E33C00
E37800
E37800
E3F000
FFF000
FFE000
FFF000
E3F000
E37800
E37800
E33C00
E33C00
E31E00
E01E00
E00F00
E00F80
E00780
E003C0
ENDCHAR
STARTCHAR 04A0
ENCODING 1184
SWIDTH 576 0
DWIDTH 24 0
BBX 32 30 -9 0
BITMAP
FFFF007C
FFFF0078
FFFF00F0
000F00F0
000F01E0
000F03E0
000F03C0
000F07C0
000F0780
000F0F00
000F1F00
000F1E00
000F3E00
000FFC00
000FFC00
000FFC00
000F1E00
000F1F00
000F0F00
000F0780
000F07C0
000F03C0
000F01E0
000F01F0
000F00F0
000F0078
000F007C
000F003C
000F001E
000F001F
ENDCHAR
STARTCHAR 04A1
ENCODING 1185
SWIDTH 432 0
DWIDTH 18 0
BBX 26 22 -7 0
BITMAP
FFF00F80
FFF00F00
FFF01E00
00701E00
00703C00
00703C00
00707800
00707800
007FF000
007FF000
007FF000
00707800
00707800
00703C00
00703C00
00701E00
00701F00
00700F00
00700780
00700780
007003C0
007003C0
ENDCHAR
STARTCHAR 04A2
ENCODING 1186
SWIDTH 720 0
DWIDTH 30 0
BBX 26 37 3 -7
BITMAP
F0000F00
F0000F00
F0000F00
F0000F00
F0000F00
F0000F00
F0000F00
F0000F00
F0000F00
F0000F00
F0000F00
F0000F00
F0000F00
FFFFFF00
FFFFFF00
FFFFFF00
F0000F00
F0000F00
F0000F00
F0000F00
F0000F00
F0000F00
F0000F00
F0000F00
F0000F00
F0000F00
F0000F00
F0000FC0
F0000FC0
F0000FC0
000003C0
000003C0
000003C0
000003C0
000003C0
000003C0
000003C0
ENDCHAR
STARTCHAR 04A3
ENCODING 1187
SWIDTH 552 0
DWIDTH 23 0
BBX 18 29 3 -7
BITMAP
E00780
E00780
E00780
E00780
E00780
E00780
E00780
E00780
E00780
FFFF80
FFFF80
FFFF80
E00780
E00780
E00780
E00780
E00780
E00780
E00780
E007C0
E007C0
E007C0
0001C0
0001C0
0001C0
0001C0
0001C0
0001C0
0001C0
ENDCHAR
STARTCHAR 04AA
ENCODING 1194
SWIDTH 720 0
DWIDTH 30 0
BBX 26 40 2 -9
BITMAP
003FC000
01FFF000
03FFFC00
07FBFE00
0F803F00
1F000F00
3E000F80
3C000780
78000780
780003C0
78000000
70000000
F0000000
F0000000
F0000000
F0000000
F0000000
F0000000
F0000000
F0000000
F00003C0
780003C0
780003C0
780007C0
3C000780
3E000F80
1F000F00
1F803F00
0FF0FE00
07FFFC00
01FFF800
007FC000
000C0000
000E0000
000FC000
0001C000
0001C000
00C1C000
00FF8000
003F0000
ENDCHAR
STARTCHAR 04AB
ENCODING 1195
SWIDTH 504 0
DWIDTH 21 0
BBX 19 32 1 -9
BITMAP
01F800
07FE00
0FFF80
1F0F80
3C07C0
3C03C0
7801C0
7801E0
700000
700000
F00000
F00000
F00000
F00000
F00000
7001E0
7801E0
7801E0
7803C0
3C03C0
3F0F80
1FFF80
0FFF00
03FC00
004000
00C000
00FC00
001C00
001E00
041C00
0FFC00
03F000
ENDCHAR
STARTCHAR 04AE
ENCODING 1198
SWIDTH 672 0
DWIDTH 28 0
BBX 26 30 1 0
BITMAP
F80003C0
F80007C0
7C000F80
3C000F00
3E001F00
1F001E00
0F003C00
0F807C00
07C07800
03C0F800
03E0F000
01E1E000
00F3E000
00FBC000
007F8000
007F8000
003F0000
001F0000
001E0000
001E0000
001E0000
001E0000
001E0000
001E0000
001E0000
001E0000
001E0000
001E0000
001E0000
001E0000
ENDCHAR
STARTCHAR 04AF
ENCODING 1199
SWIDTH 504 0
DWIDTH 21 0
BBX 19 31 1 -9
BITMAP
F001E0
F001C0
7003C0
7803C0
780380
3C0780
3C0780
1C0700
1E0F00
1E0F00
0E0E00
0F1E00
0F1E00
071C00
07BC00
07BC00
03B800
03F800
03F000
01F000
01F000
00E000
00E000
00E000
00E000
00E000
00E000
00E000
00E000
00E000
00E000
ENDCHAR
STARTCHAR 04B0
ENCODING 1200
SWIDTH 672 0
DWIDTH 28 0
BBX 26 30 1 0
BITMAP
F80003C0
F80007C0
7C000F80
3C000F00
3E001F00
1F001E00
0F003C00
0F807C00
07807800
03C0F800
03E0F000
01E1E000
01F1E000
00FBC000
007FC000
007F8000
003F0000
001F0000
001E0000
001E0000
001E0000
07FFF800
07FFF800
07FFF800
07FFF800
001E0000
001E0000
001E0000
001E0000
001E0000
ENDCHAR
STARTCHAR 04B1
ENCODING 1201
SWIDTH 504 0
DWIDTH 21 0
BBX 19 31 1 -9
BITMAP
F001E0
F001C0
7003C0
7803C0
780380
3C0780
3C0780
1C0700
1E0F00
1E0F00
0E0E00
0F1E00
0F1E00
071C00
07BC00
07BC00
03B800
03F800
03F000
01F000
01F000
00E000
1FFF00
1FFF00
00E000
00E000
00E000
00E000
00E000
00E000
00E000
ENDCHAR
STARTCHAR 04B2
ENCODING 1202
SWIDTH 720 0
DWIDTH 30 0
BBX 28 37 1 -7
BITMAP
7C000F80
3C000F00
3E001F00
1F001E00
0F003C00
0F807C00
07C07800
03C0F000
03E1E000
01F1E000
00F3C000
00FF8000
007F8000
003F0000
003E0000
003F0000
007F8000
007F8000
00F3C000
01F3E000
03E1E000
03C0F000
07C0F800
0F807800
0F007C00
1F003E00
3E001E00
3C001FF0
7C000FF0
F80007F0
000000F0
000000F0
000000F0
000000F0
000000F0
000000F0
000000F0
ENDCHAR
STARTCHAR 04B3
ENCODING 1203
SWIDTH 528 0
DWIDTH 22 0
BBX 20 29 1 -7
BITMAP
F003C0
7803C0
3C0780
3C0F00
1E0F00
0F1E00
0F3C00
07B800
03F800
01F000
01E000
01F000
03F000
03F800
07BC00
0F3C00
0E1E00
1E0F00
3C0F00
3807F0
7803F0
F003F0
000070
000070
000070
000070
000070
000070
000070
ENDCHAR
STARTCHAR 04B6
ENCODING 1206
SWIDTH 696 0
DWIDTH 29 0
BBX 25 37 3 -7
BITMAP
E0001E00
E0001E00
E0001E00
E0001E00
E0001E00
E0001E00
E0001E00
E0001E00
E0001E00
E0001E00
E0001E00
E0001E00
F0001E00
F0001E00
F0001E00
F8003E00
7FCFFE00
3FFFFE00
1FFFFE00
03FF1E00
00001E00
00001E00
00001E00
00001E00
00001E00
00001E00
00001E00
00001F80
00001F80
00001F80
00000780
00000780
00000780
00000780
00000780
00000780
00000780
ENDCHAR
STARTCHAR 04B7
ENCODING 1207
SWIDTH 504 0
DWIDTH 21 0
BBX 18 29 2 -7
BITMAP
F00700
F00700
F00700
F00700
F00700
F00700
F00700
F00700
F00700
F00700
F00700
FC1F00
7FFF00
3FFF00
0FE700
000700
000700
000700
000700
0007C0
0007C0
0007C0
0003C0
0003C0
0003C0
0003C0
0003C0
0003C0
0003C0
ENDCHAR
STARTCHAR 04B8
ENCODING 1208
SWIDTH 696 0
DWIDTH 29 0
BBX 23 30 3 0
BITMAP
E0001E
E0001E
E0001E
E0001E
E0001E
E0001E
E0001E
E0301E
E0301E
E0301E
E0301E
E0301E
F0301E
F0301E
F0301E
FC303E
7FFFFE
3FFFFE
0FFFFE
01FC1E
00301E
00301E
00301E
00301E
00301E
00301E
00001E
00001E
00001E
00001E
ENDCHAR
STARTCHAR 04B9
ENCODING 1209
SWIDTH 504 0
DWIDTH 21 0
BBX 16 22 2 0
BITMAP
F007
F007
F007
F007
F007
F007
F187
F187
F187
F187
F987
7FBF
7FFF
3FFF
07C7
0187
0187
0187
0187
0007
0007
0007
ENDCHAR
STARTCHAR 04BA
ENCODING 1210
SWIDTH 696 0
DWIDTH 29 0
BBX 23 30 3 0
BITMAP
E00000
E00000
E00000
E00000
E00000
E00000
E00000
E00000
E00000
E00000
E1FF00
FFFFE0
FFFFF0
FFCFF8
F0007C
E0003C
E0003E
E0001E
E0001E
E0001E
E0001E
E0001E
E0001E
E0001E
E0001E
E0001E
E0001E
E0001E
E0001E
E0001E
ENDCHAR
STARTCHAR 04BB
ENCODING 1211
SWIDTH 576 0
DWIDTH 24 0
BBX 18 30 3 0
BITMAP
F00000
F00000
F00000
F00000
F00000
F00000
F00000
F07C00
F1FE00
F7FF00
FF8F80
FE0780
FC03C0
F803C0
F003C0
F003C0
F003C0
F003C0
F003C0
F003C0
F003C0
F003C0
F003C0
F003C0
F003C0
F003C0
F003C0
F003C0
F003C0
F003C0
ENDCHAR
STARTCHAR 04C0
ENCODING 1216
SWIDTH 288 0
DWIDTH 12 0
BBX 4 30 4 0
BITMAP
F0
F0
F0
F0
F0
F0
F0
F0
F0
F0
F0
F0
F0
F0
F0
F0
F0
F0
F0
F0
F0
F0
F0
F0
F0
F0
F0
F0
F0
F0
ENDCHAR
STARTCHAR 04CB
ENCODING 1227
SWIDTH 672 0
DWIDTH 28 0
BBX 23 37 2 -7
BITMAP
F0001E
F0001E
F0001E
F0001E
F0001E
F0001E
F0001E
F0001E
F0001E
F0001E
F0001E
F0001E
F0001E
F0001E
F8001E
7C001E
7FC7FE
3FFFFE
0FFFFE
03FF1E
00001E
00001E
00001E
00001E
00001E
00001E
00001E
00007E
00007E
00007E
000078
000078
000078
000078
000078
000078
000078
ENDCHAR
STARTCHAR 04CC
ENCODING 1228
SWIDTH 528 0
DWIDTH 22 0
BBX 17 29 2 -7
BITMAP
F00780
F00780
F00780
F00780
F00780
F00780
F00780
F00780
F00780
F00780
F80780
7C1F80
7FFF80
3FFF80
0FE780
000780
000780
000780
000780
001F80
001F80
001F80
001C00
001C00
001C00
001C00
001C00
001C00
001C00
ENDCHAR
STARTCHAR 04CF
ENCODING 1231
SWIDTH 288 0
DWIDTH 12 0
BBX 4 30 4 0
BITMAP
F0
F0
F0
F0
F0
F0
F0
F0
F0
F0
F0
F0
F0
F0
F0
F0
F0
F0
F0
F0
F0
F0
F0
F0
F0
F0
F0
F0
F0
F0
ENDCHAR
STARTCHAR 04D8
ENCODING 1240
SWIDTH 768 0
DWIDTH 32 0
BBX 29 32 2 -1
BITMAP
003FC000
01FFF800
03FFFE00
07FDFF00
0F801F80
1F0007C0
3E0003C0
3C0003E0
780001E0
780000F0
000000F0
000000F0
00000078
00000078
00000078
FFFFFFF8
FFFFFFF8
FFFFFFF8
F0000078
F0000078
F00000F0
F00000F0
780000F0
780001F0
7C0001E0
3E0003C0
1F0007C0
1F801F80
0FF9FF00
03FFFE00
01FFF800
003FC000
ENDCHAR
STARTCHAR 04D9
ENCODING 1241
SWIDTH 552 0
DWIDTH 23 0
BBX 19 24 2 -1
BITMAP
03F800
0FFE00
1FFF00
3E1F80
7C07C0
7803C0
F001E0
F001E0
0000E0
0000E0
0000E0
FFFFE0
FFFFE0
FFFFE0
F000E0
F001E0
F001E0
F001E0
7803C0
7C07C0
3F1F80
1FFF00
0FFE00
03F800
ENDCHAR
STARTCHAR 04E2
ENCODING 1250
SWIDTH 720 0
DWIDTH 30 0
BBX 24 35 3 0
BITMAP
01FFC0
01FFC0
01FFC0
000000
000000
F0000F
F0000F
F0000F
F0000F
F0001F
F0003F
F0007F
F000FF
F001FF
F003EF
F007CF
F007CF
F00F8F
F01F0F
F03E0F
F07C0F
F0F80F
F1F00F
F3E00F
F7C00F
F7C00F
FF800F
FF000F
FE000F
FC000F
F8000F
F0000F
F0000F
F0000F
F0000F
ENDCHAR
STARTCHAR 04E3
ENCODING 1251
SWIDTH 552 0
DWIDTH 23 0
BBX 17 27 3 0
BITMAP
3FFC00
3FFC00
3FFC00
000000
000000
F00780
F00780
F00780
F00F80
F01F80
F01F80
F03F80
F07F80
F07780
F0F780
F1E780
F3C780
F38780
F78780
FF0780
FE0780
FC0780
FC0780
F80780
F00780
F00780
F00780
ENDCHAR
STARTCHAR 04E8
ENCODING 1256
SWIDTH 768 0
DWIDTH 32 0
BBX 29 32 2 -1
BITMAP
003FC000
00FFF800
03FFFE00
07F9FF00
0F801F80
1F0007C0
3E0003C0
3C0003E0
780001E0
780000F0
F00000F0
F00000F0
F0000078
F0000078
F0000078
FFFFFFF8
FFFFFFF8
FFFFFFF8
F0000078
F0000078
F00000F0
F00000F0
780000F0
780001E0
7C0001E0
3E0003C0
1F0007C0
1F801F80
0FF9FF00
03FFFE00
01FFF800
003FC000
ENDCHAR
STARTCHAR 04E9
ENCODING 1257
SWIDTH 552 0
DWIDTH 23 0
BBX 19 24 2 -1
BITMAP
03F800
0FFE00
1FFF00
3F1F80
3C07C0
7803C0
7801E0
F001E0
F001E0
F000E0
E000E0
FFFFE0
FFFFE0
FFFFE0
F000E0
F000E0
F001E0
F001E0
7803C0
7C07C0
3F1F80
1FFF00
0FFE00
03F800
ENDCHAR
STARTCHAR 04EE
ENCODING 1262
SWIDTH 624 0
DWIDTH 26 0
BBX 25 36 1 0
BITMAP
01FFE000
01FFE000
01FFE000
00000000
00000000
00000000
F8000F80
F8000F00
7C000F00
7C001F00
3C001E00
3E003E00
1E003C00
1F007C00
0F007800
0F807800
0780F800
0780F000
03C1F000
03C1E000
01E1E000
01E3C000
00F3C000
00F78000
00FF8000
007F8000
007F0000
003F0000
003E0000
001E0000
003C0000
003C0000
00F80000
07F80000
07F00000
07E00000
ENDCHAR
STARTCHAR 04EF
ENCODING 1263
SWIDTH 504 0
DWIDTH 21 0
BBX 19 37 1 -9
BITMAP
1FFE00
1FFE00
1FFE00
000000
000000
000000
F001E0
F001C0
7003C0
7803C0
780380
380780
3C0780
3C0700
1C0F00
1E0F00
1E0E00
0E1E00
0F1C00
0F1C00
073C00
07B800
07F800
03F800
03F000
03F000
01E000
01E000
01E000
01C000
03C000
03C000
038000
4F8000
7F0000
7E0000
7C0000
ENDCHAR
STARTCHAR 1E80
ENCODING 7808
SWIDTH 936 0
DWIDTH 39 0
BBX 38 39 1 0
BITMAP
0003C00000
0001E00000
0000F00000
0000700000
0000380000
00001C0000
0000000000
0000000000
0000000000
F00078007C
F800F80078
7800FC0078
7800FC0078
7801FC00F8
7C01FC00F0
3C01DE00F0
3C01DE00F0
3C03CE01F0
3C03CF01E0
1E038F01E0
1E038F01E0
1E078701C0
1E078783C0
0F070783C0
0F0F0383C0
0F0F03C380
0F0E03C780
078E03C780
079E01C780
079E01E700
079C01EF00
03FC00EF00
03FC00FF00
03F800FE00
01F800FE00
01F8007E00
01F8007E00
01F0007C00
00F0003C00
ENDCHAR
STARTCHAR 1E81
ENCODING 7809
SWIDTH 720 0
DWIDTH 30 0
BBX 29 31 0 0
BITMAP
003C0000
001E0000
000E0000
00070000
00038000
00018000
00000000
00000000
00000000
F0078078
700F8078
780FC078
780FC070
380FC0F0
3C1FC0F0
3C1DE0F0
3C1DE0E0
1C1CE1E0
1E3CE1E0
1E38F1C0
0E38F1C0
0E3873C0
0F7873C0
0F707B80
07707B80
07703F80
07F03F00
03E03F00
03E03F00
03E01F00
03E01E00
ENDCHAR
STARTCHAR 1E82
ENCODING 7810
SWIDTH 936 0
DWIDTH 39 0
BBX 38 39 1 0
BITMAP
000003C000
0000078000
00000F0000
00000E0000
00001C0000
0000380000
0000000000
0000000000
0000000000
F00078007C
F800F80078
7800FC0078
7800FC0078
7801FC00F8
7C01FC00F0
3C01DE00F0
3C01DE00F0
3C03CE01F0
3C03CF01E0
1E038F01E0
1E038F01E0
1E078701C0
1E078783C0
0F070783C0
0F0F0383C0
0F0F03C380
0F0E03C780
078E03C780
079E01C780
079E01E700
079C01EF00
03FC00EF00
03FC00FF00
03F800FE00
01F800FE00
01F8007E00
01F8007E00
01F0007C00
00F0003C00
ENDCHAR
STARTCHAR 1E83
ENCODING 7811
SWIDTH 720 0
DWIDTH 30 0
BBX 29 31 0 0
BITMAP
0001F000
0003E000
0003C000
00078000
000F0000
000E0000
00000000
00000000
00000000
F0078078
700F8078
780FC078
780FC070
380FC0F0
3C1FC0F0
3C1DE0F0
3C1DE0E0
1C1CE1E0
1E3CE1E0
1E38F1C0
0E38F1C0
0E3873C0
0F7873C0
0F707B80
07707B80
07703F80
07F03F00
03E03F00
03E03F00
03E01F00
03E01E00
ENDCHAR
STARTCHAR 1E84
ENCODING 7812
SWIDTH 936 0
DWIDTH 39 0
BBX 38 38 1 0
BITMAP
00078F0000
00078F0000
00078F0000
00078F0000
0000000000
0000000000
0000000000
0000000000
F00078007C
F800F80078
7800FC0078
7800FC0078
7801FC00F8
7C01FC00F0
3C01DE00F0
3C01DE00F0
3C03CE01F0
3C03CF01E0
1E038F01E0
1E038F01E0
1E078701C0
1E078783C0
0F070783C0
0F0F0383C0
0F0F03C380
0F0E03C780
078E03C780
079E01C780
079E01E700
079C01EF00
03FC00EF00
03FC00FF00
03F800FE00
01F800FE00
01F8007E00
01F8007E00
01F0007C00
00F0003C00
ENDCHAR
STARTCHAR 1E85
ENCODING 7813
SWIDTH 720 0
DWIDTH 30 0
BBX 29 30 0 0
BITMAP
0078F000
0078F000
0078F000
0078F000
00000000
00000000
00000000
00000000
F0078078
700F8078
780FC078
780FC070
380FC0F0
3C1FC0F0
3C1DE0F0
3C1DE0E0
1C1CE1E0
1E3CE1E0
1E38F1C0
0E38F1C0
0E3873C0
0F7873C0
0F707B80
07707B80
07703F80
07F03F00
03E03F00
03E03F00
03E01F00
03E01E00
ENDCHAR
STARTCHAR 1EF2
ENCODING 7922
SWIDTH 672 0
DWIDTH 28 0
BBX 26 39 1 0
BITMAP
01F00000
00F00000
00780000
003C0000
001C0000
000E0000
00000000
00000000
00000000
F80003C0
F80007C0
7C000F80
3C000F00
3E001F00
1F001E00
0F003C00
0F807C00
07C07800
03C0F800
03E0F000
01E1E000
00F3E000
00FBC000
007F8000
007F8000
003F0000
001F0000
001E0000
001E0000
001E0000
001E0000
001E0000
001E0000
001E0000
001E0000
001E0000
001E0000
001E0000
001E0000
ENDCHAR
STARTCHAR 1EF3
ENCODING 7923
SWIDTH 504 0
DWIDTH 21 0
BBX 19 40 1 -9
BITMAP
0F0000
078000
038000
01C000
00E000
006000
000000
000000
000000
F001E0
F001C0
7003C0
7803C0
780380
380780
3C0780
3C0700
1C0F00
1E0E00
1E1E00
0E1E00
0F1C00
0F3C00
073C00
07B800
07F800
03F000
03F000
03F000
01E000
01E000
01E000
01C000
03C000
03C000
078000
5F8000
7F0000
7E0000
7C0000
ENDCHAR
STARTCHAR 2002
ENCODING 8194
SWIDTH 504 0
DWIDTH 21 0
BBX 0 0 0 0
BITMAP
ENDCHAR
STARTCHAR 2013
ENCODING 8211
SWIDTH 552 0
DWIDTH 23 0
BBX 23 3 0 10
BITMAP
FFFFFE
FFFFFE
FFFFFE
ENDCHAR
STARTCHAR 2014
ENCODING 8212
SWIDTH 1008 0
DWIDTH 42 0
BBX 42 3 0 10
BITMAP
FFFFFFFFFFC0
FFFFFFFFFFC0
FFFFFFFFFFC0
ENDCHAR
STARTCHAR 2015
ENCODING 8213
SWIDTH 1008 0
DWIDTH 42 0
BBX 42 3 0 10
BITMAP
FFFFFFFFFFC0
FFFFFFFFFFC0
FFFFFFFFFFC0
ENDCHAR
STARTCHAR 2017
ENCODING 8215
SWIDTH 552 0
DWIDTH 23 0
BBX 25 7 -1 -10
BITMAP
FFFFFF80
FFFFFF80
00000000
00000000
00000000
FFFFFF80
FFFFFF80
ENDCHAR
STARTCHAR 2018
ENCODING 8216
SWIDTH 216 0
DWIDTH 9 0
BBX 4 10 3 20
BITMAP
10
70
C0
C0
C0
C0
F0
F0
F0
F0
ENDCHAR
STARTCHAR 2019
ENCODING 8217
SWIDTH 216 0
DWIDTH 9 0
BBX 4 9 3 20
BITMAP
F0
F0
F0
F0
30
30
20
60
C0
ENDCHAR
STARTCHAR 201A
ENCODING 8218
SWIDTH 216 0
DWIDTH 9 0
BBX 4 9 3 -5
BITMAP
F0
F0
F0
F0
30
20
60
E0
C0
ENDCHAR
STARTCHAR 201B
ENCODING 8219
SWIDTH 216 0
DWIDTH 9 0
BBX 4 10 3 20
BITMAP
F0
F0
F0
F0
C0
C0
C0
C0
70
10
ENDCHAR
STARTCHAR 201C
ENCODING 8220
SWIDTH 336 0
DWIDTH 14 0
BBX 10 10 2 20
BITMAP
1000
70C0
6180
C180
C180
C100
F1C0
F1C0
F1C0
F1C0
ENDCHAR
STARTCHAR 201D
ENCODING 8221
SWIDTH 336 0
DWIDTH 14 0
BBX 11 10 2 20
BITMAP
F1E0
F1E0
F1E0
F1E0
3060
3060
3040
60C0
E180
8000
ENDCHAR
STARTCHAR 201E
ENCODING 8222
SWIDTH 336 0
DWIDTH 14 0
BBX 11 9 2 -5
BITMAP
F1E0
F1E0
F1E0
F1E0
3060
3040
20C0
61C0
C180
ENDCHAR
STARTCHAR 2020
ENCODING 8224
SWIDTH 552 0
DWIDTH 23 0
BBX 19 37 2 -7
BITMAP
00E000
00E000
00E000
00E000
00E000
00E000
00E000
00E000
00E000
FFFFE0
FFFFE0
FFFFE0
00E000
00E000
00E000
00E000
00E000
00E000
00E000
00E000
00E000
00E000
00E000
00E000
00E000
00E000
00E000
00E000
00E000
00E000
00E000
00E000
00E000
00E000
00E000
00E000
00E000
ENDCHAR
STARTCHAR 2021
ENCODING 8225
SWIDTH 552 0
DWIDTH 23 0
BBX 19 37 2 -7
BITMAP
00E000
00E000
00E000
00E000
00E000
00E000
00E000
00E000
00E000
FFFFE0
FFFFE0
FFFFE0
00E000
00E000
00E000
00E000
00E000
00E000
00E000
00E000
00E000
00E000
00E000
00E000
00E000
FFFFE0
FFFFE0
FFFFE0
00E000
00E000
00E000
00E000
00E000
00E000
00E000
00E000
00E000
ENDCHAR
STARTCHAR 2022
ENCODING 8226
SWIDTH 360 0
DWIDTH 15 0
BBX 11 10 2 9
BITMAP
3F00
7F80
7FC0
FFC0
FFE0
FFC0
FFC0
7FC0
3F80
1E00
ENDCHAR
STARTCHAR 2026
ENCODING 8230
SWIDTH 1008 0
DWIDTH 42 0
BBX 32 4 5 0
BITMAP
F003C00F
F003C00F
F003C00F
F003C00F
ENDCHAR
STARTCHAR 2030
ENCODING 8240
SWIDTH 1008 0
DWIDTH 42 0
BBX 41 32 0 -1
BITMAP
00000E000000
0F800C000000
1FE01C000000
3FF018000000
707038000000
603830000000
E03870000000
E03860000000
E038E0000000
7030C0000000
7871C0000000
3FE180000000
1FC380000000
000300000000
000700000000
000E00000000
000E00000000
001C00000000
001C00000000
003800000000
00387F00FE00
0070FF81FF00
0071C3C38780
00E381C70380
00E380C70180
01C300C60180
01C300C60180
038380C70180
0381C1C38380
0701FF83FF00
0700FF01FE00
0E003E007C00
ENDCHAR
STARTCHAR 2032
ENCODING 8242
SWIDTH 192 0
DWIDTH 8 0
BBX 6 11 1 17
BITMAP
1C
38
38
38
30
70
70
70
60
60
E0
ENDCHAR
STARTCHAR 2033
ENCODING 8243
SWIDTH 360 0
DWIDTH 15 0
BBX 11 11 2 17
BITMAP
38E0
38E0
39C0
31C0
71C0
7180
7380
6380
6380
E300
C300
ENDCHAR
STARTCHAR 2039
ENCODING 8249
SWIDTH 336 0
DWIDTH 14 0
BBX 6 13 4 4
BITMAP
04
0C
1C
7C
F0
E0
C0
E0
F0
78
3C
1C
04
ENDCHAR
STARTCHAR 203A
ENCODING 8250
SWIDTH 336 0
DWIDTH 14 0
BBX 6 13 4 4
BITMAP
80
C0
E0
F0
7C
3C
0C
1C
3C
F8
E0
C0
80
ENDCHAR
STARTCHAR 203C
ENCODING 8252
SWIDTH 504 0
DWIDTH 21 0
BBX 14 30 5 0
BITMAP
E03C
E03C
E03C
E03C
E03C
E03C
E03C
E03C
E03C
E03C
E03C
E03C
E03C
E03C
E038
E038
E038
E038
E038
E018
C018
C018
C018
0000
0000
0000
E03C
E03C
E03C
E03C
ENDCHAR
STARTCHAR 203E
ENCODING 8254
SWIDTH 336 0
DWIDTH 14 0
BBX 25 2 -6 36
BITMAP
FFFFFF80
FFFFFF80
ENDCHAR
STARTCHAR 2044
ENCODING 8260
SWIDTH 288 0
DWIDTH 12 0
BBX 21 30 -5 -1
BITMAP
000038
000030
000070
0000E0
0000C0
0001C0
000180
000300
000700
000600
000E00
000C00
001800
003800
003000
006000
00E000
00C000
01C000
018000
030000
070000
060000
0C0000
1C0000
180000
380000
300000
600000
E00000
ENDCHAR
STARTCHAR 2070
ENCODING 8304
SWIDTH 336 0
DWIDTH 14 0
BBX 12 19 1 11
BITMAP
1F00
3FC0
79E0
60E0
E060
E070
C070
C070
C070
C070
C070
C070
C070
E070
E060
60E0
71E0
3FC0
1F00
ENDCHAR
STARTCHAR 2074
ENCODING 8308
SWIDTH 336 0
DWIDTH 14 0
BBX 13 18 0 12
BITMAP
0060
00E0
01E0
03E0
03E0
06E0
0EE0
1CE0
18E0
30E0
70E0
E0E0
FFF8
FFF8
00E0
00E0
00E0
00E0
ENDCHAR
STARTCHAR 2075
ENCODING 8309
SWIDTH 336 0
DWIDTH 14 0
BBX 13 18 0 12
BITMAP
3FF0
3FF0
3000
3000
3000
3000
77C0
7FE0
78F0
7038
0038
0018
0018
E038
7038
7870
3FE0
1FC0
ENDCHAR
STARTCHAR 2076
ENCODING 8310
SWIDTH 336 0
DWIDTH 14 0
BBX 12 18 1 12
BITMAP
0F80
3FC0
78E0
7070
E070
E000
C000
CF80
FFE0
F0F0
E070
E030
C030
E030
E070
70E0
3FE0
1F80
ENDCHAR
STARTCHAR 2077
ENCODING 8311
SWIDTH 336 0
DWIDTH 14 0
BBX 12 18 1 12
BITMAP
FFF0
FFF0
0030
0060
00E0
00C0
0180
0380
0300
0700
0600
0E00
0C00
1C00
1C00
1800
3800
3800
ENDCHAR
STARTCHAR 2078
ENCODING 8312
SWIDTH 336 0
DWIDTH 14 0
BBX 13 18 0 12
BITMAP
0FC0
1FE0
38F0
7030
7038
7030
3870
1FE0
1FE0
3870
7038
6038
E018
6038
7038
7870
3FF0
0FC0
ENDCHAR
STARTCHAR 2079
ENCODING 8313
SWIDTH 336 0
DWIDTH 14 0
BBX 12 18 1 12
BITMAP
1F00
3FC0
71E0
E0E0
C070
C070
C070
C070
E070
F1F0
7FF0
1F70
0070
0070
E0E0
F1E0
7FC0
3F00
ENDCHAR
STARTCHAR 207F
ENCODING 8319
SWIDTH 360 0
DWIDTH 15 0
BBX 11 13 2 11
BITMAP
CF80
DFC0
F0E0
E060
E060
E060
E060
E060
E060
E060
E060
E060
E060
ENDCHAR
STARTCHAR 20A3
ENCODING 8355
SWIDTH 552 0
DWIDTH 23 0
BBX 21 30 2 0
BITMAP
FFFFF0
FFFFF0
FFFFF0
F00000
F00000
F00000
F00000
F00038
F03CF8
F03DF8
F03FF8
F03FC0
F03F00
FFFE00
FFFE00
FFFC00
F03C00
F03C00
F03C00
F03C00
F03C00
F03C00
F03C00
F03C00
F03C00
F03C00
F03C00
F03C00
F03C00
F03C00
ENDCHAR
STARTCHAR 20A4
ENCODING 8356
SWIDTH 552 0
DWIDTH 23 0
BBX 21 31 1 -1
BITMAP
00FE00
03FF80
0FFFC0
1F8FE0
1E01E0
3C00F0
3C00F0
7800F0
780070
780070
780000
3C0000
3C0000
1E0000
1E0000
FFFC00
FFFC00
078000
FFFC00
FFFC00
038000
078000
070000
070000
0E0000
1C0000
3BF830
7FFFF8
7FFFF8
303FF0
0007C0
ENDCHAR
STARTCHAR 20A7
ENCODING 8359
SWIDTH 1104 0
DWIDTH 46 0
BBX 37 31 5 -1
BITMAP
FF80000000
FFE0000000
FFF0000000
F7F8000000
F0FC000000
F07C000000
F03C000000
F03C000000
F03C000000
F03C000000
F03C000000
F03C000000
F07C000000
F1F8000000
FFF8600000
FFE0600000
FFC0600000
F001F807C0
F001F81FE0
F000603870
F000603030
F000603800
F000603C00
F000601FC0
F0006007F0
F000600078
F000600038
F000603038
F000603830
F000781FF0
0000780FC0
ENDCHAR
STARTCHAR 20AC
ENCODING 8364
SWIDTH 552 0
DWIDTH 23 0
BBX 22 31 0 -1
BITMAP
001FC0
007FF8
00FFFC
01F87C
03E01C
03C00C
078000
078000
0F0000
0F0000
0F0000
0E0000
7FFFE0
FFFFC0
1E0000
1E0000
1E0000
7FFF80
FFFF80
0E0000
0F0000
0F0000
0F0000
078000
078000
07C000
03E018
01F8F8
00FFF8
007FF8
001FC0
ENDCHAR
STARTCHAR 20AF
ENCODING 8367
SWIDTH 912 0
DWIDTH 38 0
BBX 34 33 2 -7
BITMAP
01FF000000
0FFFC00000
1EE3E00000
38E0E00000
70C0F00000
70C0700000
61C0700000
61C0783E00
E1C0787F80
81C078E780
018079C380
03807983C0
03807381C0
03807301C0
03807301C0
0380770180
0300E70380
0700E70380
0701E60380
0701CE0300
06038E0700
0E078E0600
0C0F0E0E00
18FE0F1C00
7FF80FF800
FFC01DE000
00001C0000
00001C0000
00001C0000
0000180000
0000380000
0000380000
0000380000
ENDCHAR
STARTCHAR 20DD
ENCODING 8413
SWIDTH 1008 0
DWIDTH 42 0
BBX 30 31 6 0
BITMAP
001FE000
007FF800
01F8FE00
07C00F00
0F000780
1E0001C0
1C0000E0
38000070
30000070
70000030
60000038
E0000018
E0000018
C000001C
C000001C
C000001C
C000001C
C000001C
E0000018
E0000018
60000038
70000030
70000070
38000070
1C0000E0
1E0001C0
0F000380
07C00F00
01FCFE00
00FFF800
001FC000
ENDCHAR
STARTCHAR 2105
ENCODING 8453
SWIDTH 888 0
DWIDTH 37 0
BBX 33 31 2 -1
BITMAP
07C0018000
1FE0038000
3FF0030000
7878070000
70380E0000
F0380E0000
E0001C0000
E0001C0000
E000380000
E000300000
E000700000
F038600000
7038E00000
7878C00000
3FF1C1F000
1FE387FC00
0FC38FFE00
00071E0E00
00071C0F00
000E1C0700
000E3C0700
001C380700
0018380780
0038380700
00303C0700
00701C0700
00601C0700
00E01E0E00
01C00FFE00
01C007FC00
000001F000
ENDCHAR
STARTCHAR 210F
ENCODING 8463
SWIDTH 576 0
DWIDTH 24 0
BBX 20 30 2 -1
BITMAP
07F000
07F000
00F000
00E080
01E380
01EE00
01F800
01E000
03C000
0FC1E0
3F83E0
778FF0
479CF0
0730F0
0F60E0
0F41E0
0EC1E0
1F81C0
1F01C0
1E03C0
1E03C0
3C0380
3C0780
380780
780700
780710
700F20
F00FC0
F00F80
000700
ENDCHAR
STARTCHAR 2111
ENCODING 8465
SWIDTH 720 0
DWIDTH 30 0
BBX 24 32 3 -3
BITMAP
01F000
0FFC00
1FFE00
381F00
700F82
600F82
C00786
C007C6
C003E6
C001FC
C000F8
C00000
600000
600078
3001FE
1E03C6
070383
000783
000781
0003C0
0003C0
8003E0
F801E0
7C01F0
1E01F0
1F00F0
0F00F0
0F80E0
07C1E0
03FFC0
01FF00
007C00
ENDCHAR
STARTCHAR 2112
ENCODING 8466
SWIDTH 840 0
DWIDTH 35 0
BBX 31 32 2 0
BITMAP
001C01F0
00F00798
01C00E0C
03000C04
06001C06
0C003C06
0C003806
0C003804
0C00780C
0C007808
04007818
06007830
03007860
01807980
00C07F00
00787C00
000FF000
00007000
0000F000
0000F000
0000F000
0000E000
0000E000
0001E000
0001C000
0001C004
7F038008
C1E70008
803E0010
C01F0030
7071E0C0
1FC03F00
ENDCHAR
STARTCHAR 2113
ENCODING 8467
SWIDTH 312 0
DWIDTH 13 0
BBX 16 32 -2 -1
BITMAP
001C
003E
0062
0063
00C2
00C2
01C2
01C6
0186
0384
038C
0388
0798
0730
0720
0740
07C0
0F80
0F00
0E00
1E00
3E00
6E00
DE00
1E00
1C00
1C00
1C60
1C40
1CC0
0F80
0F00
ENDCHAR
STARTCHAR 2116
ENCODING 8470
SWIDTH 1080 0
DWIDTH 45 0
BBX 41 31 2 0
BITMAP
00000007E000
F000701FF800
F000703FFC00
F800707FFE00
FC0070781E00
FC0070F00F00
FE0070E00700
EE0071E00780
EF0071C00380
E70071C00380
E78071C00380
E38071C00380
E3C071C00380
E1E071C00380
E1E071E00380
E0F071E00780
E07070E00700
E07870F00F00
E03870781E00
E03C707FFE00
E01C703FFC00
E01E701FF800
E00E7007E000
E00F70000000
E007F0000000
E007F0000000
E003F0000000
E001F0000000
E001F1FFFF80
E000F1FFFF80
E000F1FFFF80
ENDCHAR
STARTCHAR 2118
ENCODING 8472
SWIDTH 648 0
DWIDTH 27 0
BBX 21 24 3 -8
BITMAP
00C000
010000
0203E0
040430
081838
182018
304018
308038
310038
320038
3C0038
383070
3C7060
3C60E0
3C40C0
5E4300
4E3E00
8E0000
860000
860000
860000
860000
440000
300000
ENDCHAR
STARTCHAR 211C
ENCODING 8476
SWIDTH 768 0
DWIDTH 32 0
BBX 26 26 3 0
BITMAP
03806000
1FE3FC00
3FF7FE00
70FC3F00
60780F00
C07C0F80
C03C0F80
C03C0F00
C03C0F00
E03C1E00
F03C7800
7C3FE000
3E3FF000
1F3CF800
073C7800
063C7C00
023C7C00
003C3C00
003C3C00
00383E00
00783E00
0C781E00
3FF01FC0
3FE01F80
7FC00F00
07800E00
ENDCHAR
STARTCHAR 211E
ENCODING 8478
SWIDTH 768 0
DWIDTH 32 0
BBX 21 28 7 0
BITMAP
FFFE00
FFFF80
FFFFC0
E007E0
E001E0
E001E0
E000F0
E000F0
E000F0
E000F0
E001E0
E001E0
E007E0
FFFFC0
FFFF80
FFFE00
E07878
E03CF0
E03CE0
E01FE0
E00FC0
E00F80
E00780
E00FC0
E00FC0
E01FE0
E03CF0
E078F0
ENDCHAR
STARTCHAR 2120
ENCODING 8480
SWIDTH 600 0
DWIDTH 25 0
BBX 22 12 1 16
BITMAP
3E1E1C
7F1E14
619A14
C19A34
601B34
7E1B24
079B24
019964
C099E4
E199E4
7F99C4
3E18C4
ENDCHAR
STARTCHAR 2122
ENCODING 8482
SWIDTH 1008 0
DWIDTH 42 0
BBX 36 18 3 12
BITMAP
FFFE7C00F0
FFFE7C00F0
03807C01F0
03807E01F0
03807E01F0
03807603F0
0380770370
0380770370
0380730770
0380738670
0380738E70
038071CE70
038071CC70
038070DC70
038070FC70
038070F870
0380707870
0380707070
ENDCHAR
STARTCHAR 2126
ENCODING 8486
SWIDTH 768 0
DWIDTH 32 0
BBX 30 31 1 0
BITMAP
001FE000
007FFC00
01FFFE00
07FCFF80
0FC00FC0
0F8007E0
1F0003E0
3E0001F0
3C0000F0
7C0000F8
78000078
78000078
78000078
70000038
70000038
70000038
78000038
78000078
78000078
78000078
3C0000F0
3C0000F0
1E0001E0
0E0001C0
0F0003C0
03800700
01E01E00
00F03C00
FFF87FFC
FFF87FFC
FFF87FFC
ENDCHAR
STARTCHAR 2128
ENCODING 8488
SWIDTH 600 0
DWIDTH 25 0
BBX 24 37 0 -8
BITMAP
000FC0
003FF0
00E0F8
03803C
00001C
00001E
00000E
00000E
00000E
00000E
00700E
00701E
00F01C
007038
007070
003FE0
000F80
003FE0
007FF0
01C0FC
03803C
06001E
00000F
00000F
00000F
000007
000007
3C0007
7F0007
C38007
C1E00F
C1E00E
C1E01E
43E01C
007038
003FF0
0007C0
ENDCHAR
STARTCHAR 212D
ENCODING 8493
SWIDTH 672 0
DWIDTH 28 0
BBX 26 32 2 -3
BITMAP
00F07C00
03FCFF80
0707FF80
0E031F00
1C040C00
180C0000
380C0000
380C0000
701C0000
701E0000
700F0000
700F8000
70078000
F007C000
F003E000
F001F000
F000F000
F040F000
78C07000
78C07000
78407000
78607000
3C30E000
3C3FC0C0
3E0F8080
1F000180
0F800300
0FE00E00
07FFFC00
01FFF800
00FFF000
001F8000
ENDCHAR
STARTCHAR 212E
ENCODING 8494
SWIDTH 600 0
DWIDTH 25 0
BBX 20 23 2 -1
BITMAP
01FC00
07FF00
0F9F80
1E03C0
3C01E0
3800E0
7800E0
7800F0
7800F0
F800F0
FFFFF0
FFFFF0
F00000
F00000
700000
700000
780060
7800E0
3800E0
1C03C0
1FCF80
07FF00
01FC00
ENDCHAR
STARTCHAR 212F
ENCODING 8495
SWIDTH 504 0
DWIDTH 21 0
BBX 16 20 3 -1
BITMAP
007E
01C7
0787
0F07
1E0F
1C0E
3C1C
7838
78F0
F3C0
FE00
F000
F000
E000
E000
F00C
F018
FC70
7FC0
1F00
ENDCHAR
STARTCHAR 2135
ENCODING 8501
SWIDTH 504 0
DWIDTH 21 0
BBX 19 26 1 0
BITMAP
002000
C03000
E03FC0
E07FE0
707FE0
783FE0
3C3FE0
1E0340
0E0200
0F0600
1F8400
1BCC00
31CC00
30E800
787800
787800
7C3C00
7C1E00
7E0E00
3F0F00
3F0780
1F83C0
1F81C0
7F80C0
7F80C0
7F0040
ENDCHAR
STARTCHAR 2136
ENCODING 8502
SWIDTH 432 0
DWIDTH 18 0
BBX 17 23 2 0
BITMAP
800000
800000
FFF800
FFFC00
FFFE00
FFFE00
3FFF00
000700
000300
000300
000300
000300
000300
000300
000300
000200
000200
000200
7FFF80
7FFF00
FFFF00
FFFF00
FFFE00
ENDCHAR
STARTCHAR 2137
ENCODING 8503
SWIDTH 336 0
DWIDTH 14 0
BBX 10 23 3 0
BITMAP
4000
7800
7F00
7F80
7F80
3F80
0F80
0180
0180
0080
0080
0080
0080
0180
0180
0180
0180
01C0
7FC0
FFC0
FCC0
FC80
F800
ENDCHAR
STARTCHAR 215B
ENCODING 8539
SWIDTH 840 0
DWIDTH 35 0
BBX 31 31 2 -1
BITMAP
06000380
06000300
0E000700
3E000600
FE000C00
FE001C00
0E001800
0E003800
0E003000
0E006000
0E00E000
0E00C000
0E0181F0
0E0387F8
0E03061C
0E070E0C
0E060C0E
0E0C0C0E
001C0E0C
0018061C
003803F0
003007F8
00600E1C
00E00C0E
00C01C06
01C01C06
01801C06
03000C0E
07000E1C
060007F8
0C0001F0
ENDCHAR
STARTCHAR 215C
ENCODING 8540
SWIDTH 840 0
DWIDTH 35 0
BBX 32 31 1 -1
BITMAP
0FC000E0
3FE000C0
38F001C0
70300180
70380300
60380700
00300600
00F00E00
07E00C00
07F01800
00783800
00383000
001870F8
E01863FC
6038C38E
7039C707
78F18607
3FE38607
0FC30706
0006030E
000E01F8
000C03FC
001C0706
00180603
00300E03
00700E03
00600E03
00C00607
01C0070E
018003FE
038000F8
ENDCHAR
STARTCHAR 215D
ENCODING 8541
SWIDTH 840 0
DWIDTH 35 0
BBX 31 32 2 -1
BITMAP
7FE00000
7FE000C0
60000180
60000380
60000300
60000700
6F000600
FFC00C00
E1E01C00
C0E01800
00603800
00607000
00706000
0060E1F0
C060C7F8
C061861C
E1C38E0E
7F830C0E
1F070C0E
00060E0C
000C071C
001C03F0
001807F8
00380E0C
00300C06
00601C06
00E01C06
00C01C06
01C00C0E
03800E1C
030007FC
070001F0
ENDCHAR
STARTCHAR 215E
ENCODING 8542
SWIDTH 840 0
DWIDTH 35 0
BBX 31 32 2 -1
BITMAP
FFF00000
FFF00600
00300E00
00600C00
00C01C00
00C01800
01803000
01807000
03006000
0300E000
0600C000
06018000
0C038000
0C0301F0
0C0607F8
1C0E0E1C
180C0C0C
181C0C0C
18180C0C
00300C0C
00700618
006003F0
00E007F8
00C00E1C
01801C0E
03801806
03001806
07001806
06001C0E
0C000E1C
1C0007F8
180003F0
ENDCHAR
STARTCHAR 2190
ENCODING 8592
SWIDTH 1008 0
DWIDTH 42 0
BBX 34 14 4 6
BITMAP
0080000000
0180000000
0380000000
0700000000
0E00000000
3E00000000
FFFFFFFFC0
FFFFFFFFC0
7FFFFFFFC0
1E00000000
0F00000000
0700000000
0380000000
0180000000
ENDCHAR
STARTCHAR 2191
ENCODING 8593
SWIDTH 504 0
DWIDTH 21 0
BBX 14 34 3 -4
BITMAP
0300
0300
0780
0FC0
0FC0
1FE0
3FF0
7B78
E31C
0300
0300
0300
0300
0300
0300
0300
0300
0300
0300
0300
0300
0300
0300
0300
0300
0300
0300
0300
0300
0300
0300
0300
0300
0300
ENDCHAR
STARTCHAR 2192
ENCODING 8594
SWIDTH 1008 0
DWIDTH 42 0
BBX 34 14 4 6
BITMAP
0000004000
0000006000
0000007000
0000003800
0000003C00
0000001F00
FFFFFFFF80
FFFFFFFFC0
FFFFFFFF80
0000003E00
0000003800
0000007000
0000006000
0000004000
ENDCHAR
STARTCHAR 2193
ENCODING 8595
SWIDTH 504 0
DWIDTH 21 0
BBX 14 34 3 -4
BITMAP
0300
0300
0300
0300
0300
0300
0300
0300
0300
0300
0300
0300
0300
0300
0300
0300
0300
0300
0300
0300
0300
0300
0300
0300
0300
C30C
F33C
3FF0
1FE0
1FE0
0FC0
0780
0780
0300
ENDCHAR
STARTCHAR 2194
ENCODING 8596
SWIDTH 1008 0
DWIDTH 42 0
BBX 31 14 5 6
BITMAP
00800300
01800300
03800180
070001E0
0F0000F0
3E0000F8
7FFFFFFE
FFFFFFFE
3FFFFFFC
1F0000F0
070001E0
038001C0
01800380
00C00300
ENDCHAR
STARTCHAR 2195
ENCODING 8597
SWIDTH 504 0
DWIDTH 21 0
BBX 14 32 3 -2
BITMAP
0100
0380
0380
07C0
0FE0
1FE0
3FF0
7BF8
F39C
0380
0380
0380
0380
0380
0380
0380
0380
0380
0380
0380
0380
0380
E38C
73BC
3FF8
1FF0
0FE0
0FC0
07C0
0380
0300
0100
ENDCHAR
STARTCHAR 2196
ENCODING 8598
SWIDTH 720 0
DWIDTH 30 0
BBX 30 29 0 -1
BITMAP
70000000
FE000000
FF800000
FFE00000
7E7C0000
7F1C0000
37800000
33C00000
19E00000
18F00000
1C780000
0C3C0000
0E1E0000
040F0000
00078000
0003C000
0001E000
0000F000
00007800
00003C00
00001E00
00000F00
00000780
000003C0
000001E0
000000F0
00000078
0000003C
00000018
ENDCHAR
STARTCHAR 2197
ENCODING 8599
SWIDTH 720 0
DWIDTH 30 0
BBX 30 30 0 -2
BITMAP
00000010
00000078
000001FC
00000FF8
00003EF8
0000F9F8
0001C3B0
00000770
00000E60
00001C60
000038C0
000070C0
0000E1C0
0001C180
00038180
00070000
000E0000
001C0000
00380000
00700000
00E00000
01C00000
03800000
07000000
0E000000
1C000000
38000000
70000000
E0000000
40000000
ENDCHAR
STARTCHAR 2198
ENCODING 8600
SWIDTH 720 0
DWIDTH 30 0
BBX 30 30 0 -2
BITMAP
40000000
E0000000
F0000000
78000000
3C000000
1E000000
0F000000
07800000
03C00000
01E00000
00F00000
00780000
003C0000
001E0000
000F0000
00078000
0003C180
0001E180
0000F1C0
000078C0
00003CE0
00001E60
00000F60
000087B0
0001E3F0
0000FDF8
00001FF8
000007FC
000001F8
00000030
ENDCHAR
STARTCHAR 2199
ENCODING 8601
SWIDTH 720 0
DWIDTH 30 0
BBX 29 29 0 -1
BITMAP
00000018
00000038
00000070
000000E0
000001C0
00000380
00000700
00000E00
00001C00
00003800
00007000
0000E000
0001C000
00038000
00070000
060E0000
0C1C0000
0C380000
1C700000
18E00000
39C00000
33800000
37040000
6E3C0000
7CF80000
FFE00000
FF000000
FC000000
70000000
ENDCHAR
STARTCHAR 21A8
ENCODING 8616
SWIDTH 504 0
DWIDTH 21 0
BBX 14 38 3 -5
BITMAP
0100
0300
0380
07C0
07C0
0FE0
1FF0
3FF8
73BC
C38C
0380
0380
0380
0380
0380
0380
0380
0380
0380
0380
0380
0380
0380
F39C
7BF8
3FF0
1FE0
0FE0
07C0
0380
0380
0100
0000
0000
0000
0000
3FF8
3FF8
ENDCHAR
STARTCHAR 21B5
ENCODING 8629
SWIDTH 1008 0
DWIDTH 42 0
BBX 30 16 7 6
BITMAP
0000001C
0000001C
0010001C
0070001C
01F8001C
07C0001C
3F00001C
F800001C
FFFFFFFC
FFFFFFFC
FFFFFFFC
7C000000
1F800000
07E00000
00F00000
00300000
ENDCHAR
STARTCHAR 21C4
ENCODING 8644
SWIDTH 1008 0
DWIDTH 42 0
BBX 31 24 5 3
BITMAP
00000300
00000180
000001C0
000000E0
000000F8
0000007C
FFFFFFFE
FFFFFFFE
0000007C
000000F0
008000E0
018001C0
03800380
0F000300
1E000000
3C000000
FFFFFFFE
FFFFFFFE
3C000000
1E000000
0F000000
07000000
03800000
01800000
ENDCHAR
STARTCHAR 21C6
ENCODING 8646
SWIDTH 1008 0
DWIDTH 42 0
BBX 31 24 5 3
BITMAP
01800000
03800000
07000000
0F000000
1E000000
3C000000
FFFFFFFE
FFFFFFFE
3C000000
1E000000
0F000300
03800380
018001C0
00C001E0
000000F0
0000007C
FFFFFFFE
FFFFFFFE
0000007C
000000F0
000000E0
000001C0
00000180
00000300
ENDCHAR
STARTCHAR 21D0
ENCODING 8656
SWIDTH 720 0
DWIDTH 30 0
BBX 29 18 1 4
BITMAP
00400000
00C00000
01800000
03000000
0FFFFFF8
1FFFFFF8
38000000
70000000
E0000000
E0000000
70000000
38000000
1FFFFFF8
07FFFFF8
03800000
01C00000
00C00000
00400000
ENDCHAR
STARTCHAR 21D1
ENCODING 8657
SWIDTH 720 0
DWIDTH 30 0
BBX 18 27 6 0
BITMAP
008000
00C000
01E000
03F000
073800
0E1C00
0C0E00
1C0E00
3C0F00
6C0D80
EC0CC0
0C0C00
0C0C00
0C0C00
0C0C00
0C0C00
0C0C00
0C0C00
0C0C00
0C0C00
0C0C00
0C0C00
0C0C00
0C0C00
0C0C00
0C0C00
0C0C00
ENDCHAR
STARTCHAR 21D2
ENCODING 8658
SWIDTH 720 0
DWIDTH 30 0
BBX 29 18 0 4
BITMAP
00001000
00001800
00000C00
00000700
FFFFFF80
FFFFFFC0
000000E0
00000070
00000038
00000038
00000070
000000E0
FFFFFFC0
FFFFFF00
00000E00
00001C00
00001800
00001000
ENDCHAR
STARTCHAR 21D3
ENCODING 8659
SWIDTH 720 0
DWIDTH 30 0
BBX 18 27 6 0
BITMAP
0C0C00
0C0C00
0C0C00
0C0C00
0C0C00
0C0C00
0C0C00
0C0C00
0C0C00
0C0C00
0C0C00
0C0C00
0C0C00
0C0C00
0C0C00
0C0C00
EC0CC0
6C0D80
3C0F00
1C0E00
0C0E00
0E1C00
073800
03F000
01E000
00C000
008000
ENDCHAR
STARTCHAR 21D4
ENCODING 8660
SWIDTH 720 0
DWIDTH 30 0
BBX 30 18 0 4
BITMAP
00201000
00601800
01C00E00
03800700
07FFFF80
0FFFFFC0
1C0000E0
38000070
E000001C
70000038
38000070
1C0000E0
0FFFFFC0
07FFFF80
01800600
00C00C00
00601800
00201000
ENDCHAR
STARTCHAR 21D5
ENCODING 8661
SWIDTH 720 0
DWIDTH 30 0
BBX 20 30 5 -2
BITMAP
006000
00F000
01F800
03FC00
079E00
0F0F00
1F0F80
770EE0
C70E70
070E10
070E00
070E00
070E00
070E00
070E00
070E00
070E00
070E00
070E00
070E00
070E00
E70E30
770EE0
1F0F80
0F0F00
079E00
03FC00
01F800
00F000
006000
ENDCHAR
STARTCHAR 2200
ENCODING 8704
SWIDTH 600 0
DWIDTH 25 0
BBX 23 24 1 0
BITMAP
F0001E
70003C
78003C
780078
3C0078
3C0078
1C00F0
1E00F0
1FFFE0
0FFFE0
0FFFE0
0703C0
0783C0
078780
03C780
03C780
01EF00
01EF00
01FE00
00FE00
00FC00
007C00
007C00
007800
ENDCHAR
STARTCHAR 2202
ENCODING 8706
SWIDTH 480 0
DWIDTH 20 0
BBX 18 32 1 -1
BITMAP
0FC000
3FF000
183C00
000E00
000600
000700
000300
000380
000380
0001C0
0001C0
0001C0
0001C0
0001C0
03C1C0
0FF1C0
1F0FC0
3C07C0
7803C0
7803C0
700380
F00380
F00780
F00780
F00700
F00700
F00F00
700E00
701C00
383C00
1EF000
07E000
ENDCHAR
STARTCHAR 2203
ENCODING 8707
SWIDTH 432 0
DWIDTH 18 0
BBX 14 24 2 0
BITMAP
FFFC
FFFC
FFFC
FFFC
003C
003C
003C
003C
003C
003C
FFFC
FFFC
FFFC
FFFC
003C
003C
003C
003C
003C
003C
FFFC
FFFC
FFFC
FFFC
ENDCHAR
STARTCHAR 2205
ENCODING 8709
SWIDTH 1008 0
DWIDTH 42 0
BBX 33 29 4 -1
BITMAP
000FFC0100
003FFF0380
007C0FC780
01E001EF00
03C000FC00
0380007800
070000F800
0E0001FC00
0E0003DC00
0C000F0E00
1C001E0E00
1C003C0600
1C00780600
1800F00700
1803C00700
1807800700
1C0F000600
1C1E000E00
1C3C000E00
0EF0000E00
0FE0001C00
07C0001C00
0780003800
0F80007000
3DE000E000
78F003C000
F07F3F8000
601FFE0000
0007F80000
ENDCHAR
STARTCHAR 2206
ENCODING 8710
SWIDTH 624 0
DWIDTH 26 0
BBX 25 26 0 0
BITMAP
001E0000
003E0000
003F0000
007F0000
007F8000
00778000
00F38000
00E3C000
01E3C000
01E1E000
03C1E000
03C0E000
0380F000
07807000
07807800
0F007800
0F003800
0E003C00
1E001C00
1E001E00
3C001E00
3C000E00
38000F00
7FFFFF00
7FFFFF80
FFFFFF80
ENDCHAR
STARTCHAR 2207
ENCODING 8711
SWIDTH 744 0
DWIDTH 31 0
BBX 25 26 3 0
BITMAP
FFFFFF80
FFFFFF00
7FFFFF00
78000F00
38001E00
3C001E00
1C001C00
1E003C00
1E003800
0E007800
0F007800
07007000
0780F000
0780E000
0381E000
03C1E000
01C1C000
01E3C000
01E38000
00E78000
00F78000
00770000
007F0000
003E0000
003E0000
003C0000
ENDCHAR
STARTCHAR 2208
ENCODING 8712
SWIDTH 1008 0
DWIDTH 42 0
BBX 22 21 10 0
BITMAP
007FFC
0FFFFC
1FFFFC
3C0000
780000
700000
E00000
E00000
E00000
FFFFFC
FFFFFC
FFFFFC
E00000
E00000
E00000
700000
700000
3C0000
3FFFFC
0FFFFC
03FFFC
ENDCHAR
STARTCHAR 2209
ENCODING 8713
SWIDTH 1008 0
DWIDTH 42 0
BBX 22 26 10 -3
BITMAP
000020
000070
000060
007FFC
0FFFFC
1FFFFC
3C0380
780300
700700
E00600
E00E00
E00C00
FFFFFC
FFFFFC
FFFFFC
E07000
E06000
E0E000
70C000
718000
3D8000
3FFFFC
1FFFFC
07FFFC
0E0000
0C0000
ENDCHAR
STARTCHAR 220B
ENCODING 8715
SWIDTH 1008 0
DWIDTH 42 0
BBX 22 21 10 0
BITMAP
FFF800
FFFFC0
FFFFE0
0001F0
000078
000038
000038
00001C
00001C
FFFFFC
FFFFFC
FFFFFC
00001C
00001C
00001C
000038
000078
0000F0
FFFFE0
FFFFC0
FFFF00
ENDCHAR
STARTCHAR 220D
ENCODING 8717
SWIDTH 528 0
DWIDTH 22 0
BBX 17 19 4 0
BITMAP
FFE000
FFF800
003E00
000F00
000700
000380
000180
000180
000180
FFFF80
FFFF80
000180
000180
000380
000300
000F00
003E00
FFFC00
FFE000
ENDCHAR
STARTCHAR 220F
ENCODING 8719
SWIDTH 1008 0
DWIDTH 42 0
BBX 32 41 5 -10
BITMAP
FFFFFFFF
FFFFFFFF
FFFFFFFF
FFFFFFFF
0F0001E0
0F0001E0
0F0001E0
0F0001E0
0F0001E0
0F0001E0
0F0001E0
0F0001E0
0F0001E0
0F0001E0
0F0001E0
0F0001E0
0F0001E0
0F0001E0
0F0001E0
0F0001E0
0F0001E0
0F0001E0
0F0001E0
0F0001E0
0F0001E0
0F0001E0
0F0001E0
0F0001E0
0F0001E0
0F0001E0
0F0001E0
0F0001E0
0F0001E0
0F0001E0
0F0001E0
0F0001E0
0F0001E0
7FE00FFC
7FE00FFC
7FE00FFC
7FE00FFC
ENDCHAR
STARTCHAR 2211
ENCODING 8721
SWIDTH 1008 0
DWIDTH 42 0
BBX 21 37 9 -6
BITMAP
FFFFF8
FFFFF8
FFFFF8
700038
780038
3C0038
3C0038
1E0038
0E0038
0F0000
078000
078000
03C000
01C000
01E000
00E000
00F000
007800
007000
00F000
00E000
01E000
01C000
03C000
078000
078000
0F0000
0F0000
1E0038
1E0038
3C0038
380038
780038
700038
FFFFF8
FFFFF8
FFFFF8
ENDCHAR
STARTCHAR 2212
ENCODING 8722
SWIDTH 576 0
DWIDTH 24 0
BBX 21 3 2 8
BITMAP
FFFFF8
FFFFF8
FFFFF8
ENDCHAR
STARTCHAR 2213
ENCODING 8723
SWIDTH 1008 0
DWIDTH 42 0
BBX 20 26 11 -1
BITMAP
FFFFF0
FFFFF0
FFFFF0
000000
000000
000000
00E000
00E000
00E000
00E000
00E000
00E000
00E000
00E000
00E000
FFFFF0
FFFFF0
FFFFF0
00E000
00E000
00E000
00E000
00E000
00E000
00E000
00E000
ENDCHAR
STARTCHAR 2215
ENCODING 8725
SWIDTH 288 0
DWIDTH 12 0
BBX 21 30 -5 -1
BITMAP
000038
000030
000070
0000E0
0000C0
0001C0
000180
000300
000700
000600
000E00
000C00
001800
003800
003000
006000
00E000
00C000
01C000
018000
030000
070000
060000
0C0000
1C0000
180000
380000
300000
600000
E00000
ENDCHAR
STARTCHAR 2217
ENCODING 8727
SWIDTH 1008 0
DWIDTH 42 0
BBX 12 12 15 4
BITMAP
0E00
0E00
4660
F6E0
FFE0
1F80
1F80
FFF0
E6E0
4660
0E00
0E00
ENDCHAR
STARTCHAR 2219
ENCODING 8729
SWIDTH 288 0
DWIDTH 12 0
BBX 4 4 5 10
BITMAP
F0
F0
F0
F0
ENDCHAR
STARTCHAR 221A
ENCODING 8730
SWIDTH 456 0
DWIDTH 19 0
BBX 20 39 -1 -2
BITMAP
000010
000010
000010
000030
000030
000030
000020
000020
000020
000060
000060
000060
000060
000040
000040
0000C0
0400C0
1C00C0
7E00C0
EE0080
870080
070180
038180
038180
01C180
01C100
00E100
00E100
007300
007300
003B00
003A00
001E00
001E00
000E00
000E00
000600
000400
000400
ENDCHAR
STARTCHAR 221D
ENCODING 8733
SWIDTH 1008 0
DWIDTH 42 0
BBX 20 12 8 4
BITMAP
1F0030
3FC0F0
7FE1F0
60F380
E03F00
E01E00
E03F00
E07F80
70F3C0
7FE1F0
3F8070
040010
ENDCHAR
STARTCHAR 221E
ENCODING 8734
SWIDTH 720 0
DWIDTH 30 0
BBX 28 12 1 5
BITMAP
0F000F00
3FC03FC0
71F0F1E0
6079C060
E01F8070
C00F0070
C00F0070
E01F8060
6039C060
70F0F1E0
3FC07FC0
0F001F00
ENDCHAR
STARTCHAR 221F
ENCODING 8735
SWIDTH 984 0
DWIDTH 41 0
BBX 37 36 2 0
BITMAP
E000000000
E000000000
E000000000
E000000000
E000000000
E000000000
E000000000
E000000000
E000000000
E000000000
E000000000
E000000000
E000000000
E000000000
E000000000
E000000000
E000000000
E000000000
E000000000
E000000000
E000000000
E000000000
E000000000
E000000000
E000000000
E000000000
E000000000
E000000000
E000000000
E000000000
E000000000
E000000000
E000000000
FFFFFFFFF8
FFFFFFFFF8
FFFFFFFFF8
ENDCHAR
STARTCHAR 2220
ENCODING 8736
SWIDTH 1008 0
DWIDTH 42 0
BBX 24 17 9 0
BITMAP
000060
0000C0
000180
000300
000600
000C00
001800
003000
006000
00C000
018000
070000
0E0000
1C0000
380000
7FFFFF
FFFFFF
ENDCHAR
STARTCHAR 2223
ENCODING 8739
SWIDTH 720 0
DWIDTH 30 0
BBX 2 42 14 -11
BITMAP
C0
C0
C0
C0
C0
C0
C0
C0
C0
C0
C0
C0
C0
C0
C0
C0
C0
C0
C0
C0
C0
C0
C0
C0
C0
C0
C0
C0
C0
C0
C0
C0
C0
C0
C0
C0
C0
C0
C0
C0
C0
C0
ENDCHAR
STARTCHAR 2225
ENCODING 8741
SWIDTH 720 0
DWIDTH 30 0
BBX 8 48 11 -11
BITMAP
C3
C3
C3
C3
C3
C3
C3
C3
C3
C3
C3
C3
C3
C3
C3
C3
C3
C3
C3
C3
C3
C3
C3
C3
C3
C3
C3
C3
C3
C3
C3
C3
C3
C3
C3
C3
C3
C3
C3
C3
C3
C3
C3
C3
C3
C3
C3
C3
ENDCHAR
STARTCHAR 2227
ENCODING 8743
SWIDTH 1008 0
DWIDTH 42 0
BBX 21 21 10 0
BITMAP
007800
007800
00F800
00FC00
01FC00
01DE00
03CE00
038F00
038700
070780
070380
0F0380
0E01C0
1E01C0
1C01E0
1C00E0
3800F0
380070
780070
700038
F00038
ENDCHAR
STARTCHAR 2228
ENCODING 8744
SWIDTH 1008 0
DWIDTH 42 0
BBX 21 21 10 0
BITMAP
F00038
700078
780070
380070
3C00E0
1C00E0
1C01E0
0E01C0
0E03C0
0F0380
070380
078700
038700
038E00
01CE00
01DE00
01FC00
00FC00
00F800
007800
007000
ENDCHAR
STARTCHAR 2229
ENCODING 8745
SWIDTH 720 0
DWIDTH 30 0
BBX 20 25 5 1
BITMAP
07FE00
0FFF00
1E0780
3C03C0
7801E0
7000E0
E000F0
E00070
E00070
E00070
E00070
E00070
E00070
E00070
E00070
E00070
E00070
E00070
E00070
E00070
E00070
E00070
E00070
E00070
E00070
ENDCHAR
STARTCHAR 222A
ENCODING 8746
SWIDTH 720 0
DWIDTH 30 0
BBX 20 25 5 0
BITMAP
E00070
E00070
E00070
E00070
E00070
E00070
E00070
E00070
E00070
E00070
E00070
E00070
E00070
E00070
E00070
E00070
E00070
E00070
F000E0
7000E0
7801E0
3C03C0
1FFF80
0FFF00
01F800
ENDCHAR
STARTCHAR 222B
ENCODING 8747
SWIDTH 264 0
DWIDTH 11 0
BBX 11 42 1 -4
BITMAP
01C0
03E0
07E0
05E0
0400
0C00
0C00
0C00
0C00
0C00
0E00
0E00
0E00
0E00
0E00
0E00
0E00
0E00
0E00
0E00
0E00
0E00
0E00
0E00
0E00
0E00
0E00
0E00
0E00
0E00
0E00
0E00
0E00
0E00
0E00
0E00
0400
0400
E400
FC00
F800
F000
ENDCHAR
STARTCHAR 222E
ENCODING 8750
SWIDTH 1008 0
DWIDTH 42 0
BBX 17 51 12 -11
BITMAP
003E00
004F00
008F00
018F00
018F00
018000
038000
038000
038000
038000
038000
038000
038000
038000
03C000
03C000
03C000
07F000
1FFC00
3BCE00
63C300
43E300
C3E180
83E180
83E080
83E080
83E080
C3E180
C3E180
61E300
71E700
39EE00
1FF800
03E000
01E000
01E000
00E000
00E000
00E000
00E000
00E000
00E000
00E000
00E000
00C000
00C000
78C000
78C000
798000
7B0000
3E0000
ENDCHAR
STARTCHAR 2234
ENCODING 8756
SWIDTH 1008 0
DWIDTH 42 0
BBX 26 26 8 0
BITMAP
001C0000
003E0000
003E0000
003E0000
001E0000
00000000
00000000
00000000
00000000
00000000
00000000
00000000
00000000
00000000
00000000
00000000
00000000
00000000
00000000
00000000
00000000
F8000780
F8000FC0
F8000FC0
F8000F80
70000700
ENDCHAR
ENDFONT
